<svg width="30" height="30" viewBox="0 0 30 30" fill="none" xmlns="http://www.w3.org/2000/svg">
<path fill-rule="evenodd" clip-rule="evenodd" d="M15 28C22.1797 28 28 22.1797 28 15C28 7.8203 22.1797 2 15 2C7.8203 2 2 7.8203 2 15C2 22.1797 7.8203 28 15 28ZM15 30C23.2843 30 30 23.2843 30 15C30 6.71573 23.2843 0 15 0C6.71573 0 0 6.71573 0 15C0 23.2843 6.71573 30 15 30Z" fill="#AE194A"/>
<path fill-rule="evenodd" clip-rule="evenodd" d="M9.51937 5H20.4806L20.7809 5.3753C21.4559 6.21913 22.0257 7.1175 22.4894 8.0577C23.557 10.2226 24.0567 12.5983 23.9949 15.0255C23.9362 17.327 23.3731 19.6694 22.3176 21.924C21.8995 22.8172 21.404 23.6967 20.832 24.5547L20.5352 25H9.46482L9.16795 24.5547C8.59596 23.6967 8.10053 22.8172 7.68238 21.924C6.62694 19.6694 6.06376 17.327 6.00511 15.0255C5.94325 12.5983 6.44296 10.2226 7.51062 8.0577C7.97428 7.1175 8.54407 6.21913 9.21913 5.37531L9.51937 5ZM10.4917 7C10.3696 7.16462 10.252 7.33132 10.1389 7.5H19.8611C19.748 7.33132 19.6304 7.16462 19.5083 7H10.4917ZM20.9538 9.5H19.6584C19.9869 10.8243 20.1627 12.3932 20.2118 14H21.9856C21.9133 12.4358 21.5684 10.9182 20.9538 9.5ZM21.9315 16H20.2095C20.1602 17.5405 20.0026 19.0915 19.7396 20.5H20.7631C21.3958 19.0069 21.7837 17.4917 21.9315 16ZM19.7585 22.5H10.2415C10.3391 22.6673 10.44 22.834 10.5441 23H19.4559C19.56 22.834 19.6609 22.6673 19.7585 22.5ZM9.2369 20.5H10.2603C9.99649 19.0904 9.83651 17.5389 9.77678 16H8.06848C8.21634 17.4917 8.60419 19.0069 9.2369 20.5ZM8.0144 14H9.75566C9.78507 12.3848 9.92975 10.8161 10.2037 9.5H9.04617C8.43156 10.9182 8.08674 12.4358 8.0144 14ZM12.2536 9.5C11.962 10.6907 11.7895 12.2722 11.756 14H14V9.5H12.2536ZM16 9.5V14H18.2108C18.1538 12.2589 17.94 10.6774 17.5859 9.5H16ZM18.2084 16H16V20.5H17.7017C17.9821 19.1342 18.1549 17.571 18.2084 16ZM14 20.5V16H11.7784C11.843 17.5727 12.0178 19.1354 12.2983 20.5H14Z" fill="#AE194A"/>
</svg>
