<svg width="24" height="17" viewBox="0 0 24 17" fill="none" xmlns="http://www.w3.org/2000/svg">
<path fill-rule="evenodd" clip-rule="evenodd" d="M6.16864 1.6012C8.32248 -0.533733 11.8142 -0.533733 13.968 1.6012L14.2811 1.91152L14.5942 1.6012C16.748 -0.533733 20.2397 -0.533733 22.3936 1.6012C24.5414 3.73017 24.5414 7.17259 22.3936 9.30155L14.8702 16.7589C14.7146 16.913 14.5025 16.9998 14.2811 16.9998C14.0597 16.9998 13.8475 16.913 13.692 16.7589L7.56656 10.6872C7.0525 10.9829 6.4799 11.1909 5.86923 11.2901C5.87474 12.6537 5.88061 14.0172 5.87661 15.3808H7.20025C7.65731 15.3808 8.02783 15.7432 8.02783 16.1903C8.02783 16.6374 7.65731 16.9998 7.20025 16.9998H5.05703C5.04517 17.0001 5.03327 17.0001 5.02134 16.9998H2.88535C2.42829 16.9998 2.05777 16.6374 2.05777 16.1903C2.05777 15.7432 2.42829 15.3808 2.88535 15.3808H4.22143C4.22546 14.0167 4.21954 12.6525 4.21403 11.2884C1.83302 10.8961 0.0322346 8.85062 0.0322346 6.40463C0.0322346 5.53805 -0.0913878 4.6218 0.145556 3.75708C0.243026 3.40136 0.573672 3.15483 0.950158 3.15716L5.05667 3.18254C5.32172 2.60994 5.69237 2.07328 6.16864 1.6012ZM4.59721 4.79877L1.66449 4.78063C1.6474 5.20886 1.68741 5.77395 1.68741 6.40463C1.68741 8.25276 3.19845 9.73715 5.04706 9.73715C5.5072 9.73715 5.94654 9.64514 6.3469 9.47825L6.16864 9.30155C4.92667 8.0705 4.40287 6.40027 4.59721 4.79877ZM7.67067 8.48541L7.34675 8.16434C6.42543 7.25111 6.0656 5.99228 6.26726 4.80909L8.41428 4.82236C8.43625 5.25561 8.4067 5.83548 8.4067 6.3962C8.4067 7.18972 8.13078 7.91494 7.67067 8.48541ZM8.83916 9.64365L14.2811 15.0378L21.2154 8.16434C22.7272 6.66587 22.7272 4.23689 21.2154 2.73841C19.7097 1.2459 17.278 1.2459 15.7723 2.73841L14.8702 3.63262C14.7146 3.78676 14.5025 3.87353 14.2811 3.87353C14.0597 3.87353 13.8475 3.78676 13.692 3.63262L12.7899 2.73841C11.2842 1.2459 8.85248 1.2459 7.34675 2.73841C7.20156 2.88233 7.07031 3.03483 6.95301 3.19427L9.01817 3.20704C9.02129 3.20661 9.02442 3.2062 9.02756 3.20581C9.44084 3.1543 9.82883 3.41134 9.93331 3.80584C10.1563 4.64792 10.0619 5.53608 10.0619 6.3962C10.0619 7.63613 9.60183 8.77242 8.83916 9.64365Z" fill="black"/>
</svg>
