<svg width="30" height="30" viewBox="0 0 30 30" fill="none" xmlns="http://www.w3.org/2000/svg">
<path fill-rule="evenodd" clip-rule="evenodd" d="M15 28C22.1797 28 28 22.1797 28 15C28 7.8203 22.1797 2 15 2C7.8203 2 2 7.8203 2 15C2 22.1797 7.8203 28 15 28ZM15 30C23.2843 30 30 23.2843 30 15C30 6.71573 23.2843 0 15 0C6.71573 0 0 6.71573 0 15C0 23.2843 6.71573 30 15 30Z" fill="#AE194A"/>
<path fill-rule="evenodd" clip-rule="evenodd" d="M5 14V22H7V19.5H8.38644C10.0334 19.5 11.0114 18.3026 11.0114 16.75C11.0114 15.1974 10.0334 14 8.38644 14H5ZM7 16V17.5H8.38644C8.88644 17.5 9.01144 16.9961 9.01144 16.75C9.01144 16.5039 8.88644 16 8.38644 16H7Z" fill="#AE194A"/>
<path fill-rule="evenodd" clip-rule="evenodd" d="M12 18V26C13.2753 26 14 26 14 26C17 26 18 23.5526 18 22C18 20.4474 17 18 14 18H12ZM14 20V24C16.5 24 16.5 20 14 20Z" fill="#AE194A"/>
<path fill-rule="evenodd" clip-rule="evenodd" d="M23.5811 19.5334C23.8234 19.2068 24 18.6604 24 18C24 17.3396 23.8234 16.7932 23.5811 16.4666C23.3964 16.2175 23.1176 16 22.5 16C21.8824 16 21.6036 16.2175 21.4189 16.4666C21.1766 16.7932 21 17.3396 21 18C21 18.6604 21.1766 19.2068 21.4189 19.5334C21.6036 19.7825 21.8824 20 22.5 20C23.1176 20 23.3964 19.7825 23.5811 19.5334ZM22.5 22C25 22 26 19.933 26 18C26 16.067 25 14 22.5 14C20 14 19 16.067 19 18C19 19.933 20 22 22.5 22Z" fill="#AE194A"/>
<path fill-rule="evenodd" clip-rule="evenodd" d="M15.9498 15.8997C18.4147 13.0552 20 11.2258 20 9C20 6.23858 17.7614 4 15 4C12.2386 4 10 6.23858 10 9C10 11.2258 11.5853 13.0552 14.0502 15.8997C14.3539 16.2502 14.6709 16.6161 15 17C15.3291 16.6161 15.6461 16.2502 15.9498 15.8997ZM15 11C16.1046 11 17 10.1046 17 9C17 7.89543 16.1046 7 15 7C13.8954 7 13 7.89543 13 9C13 10.1046 13.8954 11 15 11Z" fill="#AE194A"/>
</svg>
