<svg width="207" height="70" viewBox="0 0 207 70" fill="none" xmlns="http://www.w3.org/2000/svg">
<rect width="207" height="70" rx="5" fill="#AE194A"/>
<rect x="8" y="8" width="54" height="54" rx="27" fill="white"/>
<path d="M40.292 15.0603H28.952V13.5H40.292V15.0603Z" fill="#AE194A"/>
<path fill-rule="evenodd" clip-rule="evenodd" d="M23.66 15.4545L34.9888 21.2036L45.584 15.4545L47.096 16.2364L36.6471 22.0592L41.048 24.3299L47.096 21.2094L53.9 24.72V32.7056L47.852 35.8262V42.8475L41.804 45.9681V52.9893L35 56.5L28.196 52.9893V45.9681L22.148 42.8475V35.8262L16.1 32.7056V24.72L22.904 21.2094L28.952 24.3299L33.3095 22.0816L22.148 16.2364L23.66 15.4545ZM35 22.9538L30.6424 25.2022L35 27.4505L39.3575 25.2022L35 22.9538ZM29.708 31.7413V26.4645L34.244 28.8049V34.0817L29.708 31.7413ZM24.5944 35.344L28.952 33.0957L33.3095 35.344L28.952 37.5924L24.5944 35.344ZM23.66 28.8049L28.196 26.4645V31.7413L23.66 34.0817V28.8049ZM17.612 26.4645L22.148 28.8049V34.0817L17.612 31.7413V26.4645ZM22.904 27.4505L27.2615 25.2022L22.904 22.9538L18.5464 25.2022L22.904 27.4505ZM41.804 26.4645V31.7413L46.34 34.0817V28.8049L41.804 26.4645ZM41.048 33.0957L36.6904 35.344L41.048 37.5924L45.4055 35.344L41.048 33.0957ZM40.292 26.4645L35.756 28.8049V34.0817L40.292 31.7413V26.4645ZM47.852 34.0817L52.388 31.7413V26.4645L47.852 28.8049V34.0817ZM47.096 27.4505L51.4535 25.2022L47.096 22.9538L42.7384 25.2022L47.096 27.4505ZM39.3575 45.4859L35 43.2376L30.6424 45.4859L35 47.7342L39.3575 45.4859ZM34.244 41.8832V36.6063L29.708 38.9468V44.2236L34.244 41.8832ZM40.292 44.2236V38.9468L35.756 36.6063V41.8832L40.292 44.2236ZM23.66 36.6063L28.196 38.9468V44.2236L23.66 41.8832V36.6063ZM29.708 46.7482L34.244 49.0886V54.3655L29.708 52.025V46.7482ZM35.756 54.3655L40.292 52.025V46.7482L35.756 49.0886V54.3655ZM46.34 41.8832L41.804 44.2236V38.9468L46.34 36.6063V41.8832Z" fill="#AE194A"/>
<path d="M130.638 18.2861L124.688 18.8079V39.3109H131.136V25.5968C132.218 24.647 133.725 24.1721 135.655 24.1721C136.62 24.1721 137.395 24.3057 137.98 24.5728V39.2939H144.428V24.0831C144.428 22.1243 143.902 20.6106 142.849 19.5421C141.825 18.4737 140.319 17.9395 138.331 17.9395C135.406 17.9395 133.052 19.186 131.268 21.6791H130.917L130.638 18.2861Z" fill="white"/>
<path d="M114.275 18.2899L120.768 18.8079V39.3024H114.275V18.2899Z" fill="white"/>
<path d="M92.2562 18.2956C93.8647 25.3 96.2418 32.4464 99.1371 39.3024H106.227C109.18 32.2387 111.461 25.0922 113.011 18.2956L106.79 18.8085C105.65 24.0915 104.377 28.6092 102.739 33.3876H102.564C100.926 28.4608 99.5494 23.9431 98.4381 18.8085L92.2562 18.2956Z" fill="white"/>
<path d="M147.673 18.2933L154.165 18.8126V39.2998H147.673V18.2933Z" fill="white"/>
<path d="M167.244 39.8002C163.442 39.8002 160.688 38.9228 158.963 37.0827C157.266 35.2426 156.418 32.6159 156.418 29.2028C156.418 25.8193 157.354 23.1334 159.226 21.1448C161.127 19.1266 163.7 18.1175 166.946 18.1175C170.192 18.1175 172.839 18.726 174.886 19.9428V21.5455C174.886 23.1779 174.64 25.1053 174.26 26.708L168.859 26.0671L168.569 24.3947C167.985 24.276 167.283 24.2167 166.464 24.2167C165.294 24.2167 164.314 24.3354 163.525 24.5728C163.115 25.9381 162.911 27.3924 162.911 28.9357C162.911 30.5681 163.232 31.7701 163.876 32.5417C164.548 33.2837 165.733 33.6547 167.429 33.6547C169.505 33.6547 171.333 33.0166 172.912 31.7404L175.807 36.504C174.667 37.5427 173.409 38.3589 172.035 38.9525C170.69 39.5461 169.087 39.8002 167.244 39.8002Z" fill="white"/>
<path fill-rule="evenodd" clip-rule="evenodd" d="M185.814 39.7984C182.422 39.7984 179.951 38.8931 178.401 37.0827C176.851 35.2723 176.076 32.6901 176.076 29.3364C176.076 27.1401 176.514 25.1812 177.392 23.4598C178.298 21.7384 179.585 20.388 181.252 19.4086C182.948 18.4292 184.952 17.9395 187.262 17.9395C193.754 17.9395 197 21.4713 197 28.535C197 31.9482 196.079 34.6787 194.237 36.7265C192.394 38.7744 189.587 39.7984 185.814 39.7984ZM186.604 34.2335C187.774 34.2335 188.856 34.0851 189.85 33.7883C190.347 32.5121 190.596 30.8649 190.596 28.8467C190.596 26.8878 190.289 25.5374 189.675 24.7954C189.09 24.0237 188.022 23.6379 186.472 23.6379C185.361 23.6379 184.279 23.7715 183.226 24.0386C182.729 25.2851 182.48 26.9472 182.48 29.0247C182.48 30.9836 182.773 32.3488 183.358 33.1205C183.972 33.8625 185.054 34.2335 186.604 34.2335Z" fill="white"/>
<path fill-rule="evenodd" clip-rule="evenodd" d="M71.2883 23.0502C70.6313 24.2267 69.9806 25.5876 70.0004 27.2933C70.0278 29.6452 71.0144 31.9664 72.8981 33.5042C73.4292 33.9378 74.042 34.3009 74.7365 34.5934L74.7365 34.786C73.9267 34.8428 73.2439 35.0087 72.6882 35.2837C72.1323 35.5429 71.7105 35.919 71.4228 36.412C71.1491 36.9049 71.0164 37.5067 71.0246 38.2174L71.0249 38.2411C71.0455 40.0111 72.2995 41.3583 74.0151 41.6901L74.0178 41.927C71.6625 42.166 69.9738 44.0003 70.0004 46.2933C70.0144 47.4965 70.4514 48.7218 71.3039 49.611C72.0677 50.4077 73.1782 50.9792 74.6355 51.3255C76.1068 51.6875 77.8764 51.8565 79.9441 51.8324C82.0792 51.8076 84.2338 51.7048 86.2639 50.977C87.7809 50.4539 88.9314 49.6586 89.7155 48.5911C90.6217 47.397 91.0338 45.9334 91.0167 44.4639C90.992 42.3476 90.2604 40.7816 89.089 39.7843C87.9176 38.787 86.1426 38.1442 83.7638 37.8559L78.8735 37.2731C78.1319 37.187 77.5926 37.0748 77.2557 36.9365C76.7325 36.7219 77.3809 35.6252 78.0227 35.2837C78.8892 35.4061 79.7535 35.5095 80.3829 35.5022C83.5404 35.4655 85.8669 34.8697 87.3626 33.715C88.872 32.5443 89.6141 30.8771 89.589 28.7134C89.5636 26.5338 88.639 24.4429 86.0904 23.5968V23.249H91.5075L90.5103 18.2924L79.8141 19.0415C77.6081 19.1935 75.8034 19.6015 74.3998 20.2655C72.9963 20.9295 71.9591 21.8577 71.2883 23.0502ZM77.7418 46.29C78.3865 46.4562 79.2048 46.5336 80.1967 46.522L80.4055 46.5198C81.3592 46.5099 82.3235 46.4998 83.2539 46.2732C84.4447 45.9894 84.7668 44.597 84.4143 43.3217C82.2761 42.6775 79.625 42.3105 77.6663 42.3105C76.4599 42.3105 75.9951 43.3574 76.0058 44.2822C76.0189 45.4015 76.735 46.0495 77.7418 46.29ZM76.8467 24.6878C76.0387 25.8699 76.1407 28.6964 76.8467 29.9633C77.5456 31.1174 78.9211 31.3845 80.1747 31.3699C81.1772 31.3582 83.0124 31.0893 83.5607 30.0835C84.2625 28.7959 83.8805 26.6337 83.2539 25.5452C82.4471 24.1435 78.7506 24.019 76.8467 24.6878Z" fill="white"/>
<path fill-rule="evenodd" clip-rule="evenodd" d="M190.271 51.9454H193.333C193.911 51.9454 194.391 51.8555 194.773 51.6758C195.155 51.496 195.44 51.251 195.63 50.9408C195.819 50.6281 195.914 50.276 195.914 49.8846C195.914 49.5005 195.835 49.173 195.678 48.9022C195.52 48.6313 195.317 48.4221 195.068 48.2743C194.822 48.1242 194.565 48.0417 194.297 48.0269V47.953C194.543 47.8939 194.766 47.7967 194.965 47.6613C195.164 47.5259 195.323 47.3498 195.441 47.1332C195.56 46.914 195.619 46.6506 195.619 46.3428C195.619 45.9686 195.528 45.6337 195.345 45.3383C195.166 45.0428 194.894 44.8101 194.529 44.6403C194.167 44.4679 193.713 44.3817 193.166 44.3817H190.271V51.9454ZM193.115 50.8005H191.641V48.5846H193.152C193.435 48.5846 193.679 48.6375 193.883 48.7434C194.087 48.8468 194.245 48.9896 194.356 49.1718C194.466 49.3515 194.522 49.5534 194.522 49.7775C194.522 50.0778 194.411 50.3241 194.189 50.5161C193.97 50.7057 193.612 50.8005 193.115 50.8005ZM192.997 47.5985H191.641V45.5118H193.026C193.43 45.5118 193.734 45.6066 193.938 45.7962C194.145 45.9858 194.249 46.2271 194.249 46.5201C194.249 46.7417 194.193 46.9337 194.082 47.0962C193.974 47.2563 193.825 47.3806 193.635 47.4692C193.446 47.5554 193.233 47.5985 192.997 47.5985Z" fill="white"/>
<path d="M187.412 44.3817H188.782V49.3232C188.782 49.8649 188.654 50.3413 188.398 50.7525C188.144 51.1636 187.787 51.4849 187.327 51.7164C186.866 51.9454 186.328 52.0599 185.713 52.0599C185.095 52.0599 184.555 51.9454 184.095 51.7164C183.635 51.4849 183.278 51.1636 183.024 50.7525C182.77 50.3413 182.644 49.8649 182.644 49.3232V44.3817H184.014V49.2087C184.014 49.5239 184.083 49.8046 184.221 50.0508C184.361 50.297 184.558 50.4903 184.812 50.6306C185.065 50.7685 185.366 50.8374 185.713 50.8374C186.06 50.8374 186.36 50.7685 186.614 50.6306C186.87 50.4903 187.067 50.297 187.205 50.0508C187.343 49.8046 187.412 49.5239 187.412 49.2087V44.3817Z" fill="white"/>
<path d="M174.905 51.9454H176.275V48.7323H179.78V51.9454H181.153V44.3817H179.78V47.5837H176.275V44.3817H174.905V51.9454Z" fill="white"/>
<path d="M165.127 45.5303V44.3817H171.162V45.5303H168.824V51.9454H167.465V45.5303H165.127Z" fill="white"/>
<path fill-rule="evenodd" clip-rule="evenodd" d="M158.695 44.3817V51.9454H160.065V49.1755H161.46L162.946 51.9454H164.475L162.839 48.9509C162.888 48.9311 162.936 48.9099 162.983 48.8874C163.382 48.6929 163.683 48.4184 163.888 48.0638C164.095 47.7068 164.198 47.2858 164.198 46.8008C164.198 46.3182 164.096 45.8959 163.891 45.534C163.69 45.1696 163.39 44.8865 162.994 44.6846C162.6 44.4827 162.113 44.3817 161.532 44.3817H158.695ZM161.328 48.038H160.065V45.5266H161.321C161.663 45.5266 161.943 45.5771 162.159 45.678C162.376 45.7765 162.537 45.9218 162.643 46.1138C162.749 46.3034 162.802 46.5324 162.802 46.8008C162.802 47.0691 162.749 47.2956 162.643 47.4803C162.54 47.6625 162.38 47.8016 162.163 47.8976C161.946 47.9912 161.668 48.038 161.328 48.038Z" fill="white"/>
<path fill-rule="evenodd" clip-rule="evenodd" d="M157.4 48.1635C157.4 48.9785 157.247 49.6765 156.942 50.2576C156.639 50.8362 156.225 51.2794 155.701 51.5871C155.179 51.8949 154.587 52.0488 153.925 52.0488C153.262 52.0488 152.669 51.8949 152.144 51.5871C151.622 51.2769 151.209 50.8325 150.903 50.2539C150.601 49.6728 150.449 48.976 150.449 48.1635C150.449 47.3486 150.601 46.6518 150.903 46.0732C151.209 45.4921 151.622 45.0477 152.144 44.74C152.669 44.4322 153.262 44.2783 153.925 44.2783C154.587 44.2783 155.179 44.4322 155.701 44.74C156.225 45.0477 156.639 45.4921 156.942 46.0732C157.247 46.6518 157.4 47.3486 157.4 48.1635ZM156.022 48.1635C156.022 47.5899 155.932 47.1061 155.753 46.7121C155.575 46.3157 155.329 46.0166 155.014 45.8147C154.699 45.6103 154.336 45.5082 153.925 45.5082C153.513 45.5082 153.15 45.6103 152.835 45.8147C152.52 46.0166 152.272 46.3157 152.093 46.7121C151.915 47.1061 151.827 47.5899 151.827 48.1635C151.827 48.7372 151.915 49.2223 152.093 49.6187C152.272 50.0126 152.52 50.3117 152.835 50.5161C153.15 50.718 153.513 50.8189 153.925 50.8189C154.336 50.8189 154.699 50.718 155.014 50.5161C155.329 50.3117 155.575 50.0126 155.753 49.6187C155.932 49.2223 156.022 48.7372 156.022 48.1635Z" fill="white"/>
<path fill-rule="evenodd" clip-rule="evenodd" d="M143.948 44.3817V51.9454H145.318V49.3897H146.766C147.35 49.3897 147.841 49.2826 148.24 49.0684C148.639 48.8517 148.94 48.555 149.145 48.1783C149.349 47.8016 149.451 47.3707 149.451 46.8857C149.451 46.4056 149.349 45.9772 149.145 45.6005C148.943 45.2213 148.644 44.9234 148.247 44.7067C147.853 44.4901 147.366 44.3817 146.785 44.3817H143.948ZM145.318 48.2633V45.5266H146.574C146.916 45.5266 147.196 45.5845 147.413 45.7002C147.632 45.8135 147.793 45.9723 147.896 46.1766C148.002 46.381 148.055 46.6173 148.055 46.8857C148.055 47.1541 148.002 47.3917 147.896 47.5985C147.793 47.8053 147.633 47.9678 147.416 48.086C147.2 48.2042 146.921 48.2633 146.582 48.2633H145.318Z" fill="white"/>
<path d="M134.523 44.3817H136.2L138.445 49.8624H138.534L140.78 44.3817H142.456V51.9454H141.141V46.7491H141.071L138.981 51.9232H137.999L135.908 46.738H135.838V51.9454H134.523V44.3817Z" fill="white"/>
<path d="M133.04 51.9454V44.3817H131.669V51.9454H133.04Z" fill="white"/>
<path d="M122.773 51.9454V44.3817H127.692V45.5303H124.143V47.5837H127.437V48.7323H124.143V50.7968H127.721V51.9454H122.773Z" fill="white"/>
<path d="M121.28 51.9454V44.3817H119.917V49.5374H119.85L116.29 44.3817H115.064V51.9454H116.434V46.7934H116.497L120.061 51.9454H121.28Z" fill="white"/>
<path d="M113.58 44.3817V51.9454H112.21V44.3817H113.58Z" fill="white"/>
<path d="M101.196 44.3817L103.331 51.9454H104.682L106.2 46.6383H106.259L107.774 51.9454H109.125L111.26 44.3817H109.786L108.424 49.9437H108.357L106.898 44.3817H105.558L104.103 49.94H104.032L102.67 44.3817H101.196Z" fill="white"/>
</svg>
