<svg width="180" height="180" viewBox="0 0 180 180" fill="none" xmlns="http://www.w3.org/2000/svg">
<circle cx="90" cy="90" r="90" fill="#AE194A"/>
<path d="M68.9024 22.1743H108.461V16.7441H68.9024V22.1743Z" fill="white"/>
<path fill-rule="evenodd" clip-rule="evenodd" d="M89.961 43.5546L50.4419 23.5465L45.1675 26.2674L84.1031 46.6103L68.9024 54.4351L47.8047 43.5747L24.0698 55.7927V83.5847L45.1675 94.4451V118.881L66.2652 129.741V154.177L90.0001 166.395L113.735 154.177V129.741L134.833 118.881V94.4451L155.93 83.5847V55.7927L132.195 43.5747L111.098 54.4351L95.7459 46.5325L132.195 26.2674L126.921 23.5465L89.961 43.5546ZM74.7994 57.4707L90.0001 49.6459L105.201 57.4707L90.0001 65.2955L74.7994 57.4707ZM71.5396 61.8638V80.2286L87.3628 88.3739V70.0091L71.5396 61.8638ZM68.9024 84.9422L53.7017 92.767L68.9024 100.592L84.1031 92.767L68.9024 84.9422ZM66.2652 61.8638L50.4419 70.0091V88.3739L66.2652 80.2286V61.8638ZM45.1675 70.0091L29.3442 61.8638V80.2286L45.1675 88.3739V70.0091ZM63.0054 57.4707L47.8047 65.2955L32.604 57.4707L47.8047 49.6459L63.0054 57.4707ZM113.735 80.2286V61.8638L129.558 70.0091V88.3739L113.735 80.2286ZM95.897 92.767L111.098 84.9422L126.298 92.767L111.098 100.592L95.897 92.767ZM92.6373 70.0091L108.461 61.8638V80.2286L92.6373 88.3739V70.0091ZM150.656 80.2286L134.833 88.3739V70.0091L150.656 61.8638V80.2286ZM147.396 57.4707L132.195 65.2955L116.995 57.4707L132.195 49.6459L147.396 57.4707ZM90.0001 120.239L105.201 128.063L90.0001 135.888L74.7994 128.063L90.0001 120.239ZM87.3628 97.1602V115.525L71.5396 123.67V105.305L87.3628 97.1602ZM108.461 105.305V123.67L92.6373 115.525V97.1602L108.461 105.305ZM66.2652 105.305L50.4419 97.1602V115.525L66.2652 123.67V105.305ZM87.3628 140.602L71.5396 132.457V150.821L87.3628 158.967V140.602ZM108.461 150.821L92.6373 158.967V140.602L108.461 132.457V150.821ZM113.735 123.67L129.558 115.525V97.1602L113.735 105.305V123.67Z" fill="white"/>
</svg>
