<?xml version="1.0" encoding="UTF-8"?><svg id="Layer_1" xmlns="http://www.w3.org/2000/svg" viewBox="0 0 190 54"><defs><style>.cls-1,.cls-2,.cls-3,.cls-4{stroke-width:0px;}.cls-1,.cls-3{fill:#ae194a;}.cls-2,.cls-4{fill:#fff;}.cls-3,.cls-4{fill-rule:evenodd;}</style></defs><circle class="cls-1" cx="27" cy="27" r="27"/><path class="cls-2" d="M20.92,7.56h11.4v-1.56h-11.4v1.56Z"/><path class="cls-4" d="M26.99,13.7l-11.39-5.75-1.52.78,11.22,5.85-4.38,2.25-6.08-3.12-6.84,3.51v7.99l6.08,3.12v7.02l6.08,3.12v7.02l6.84,3.51,6.84-3.51v-7.02l6.08-3.12v-7.02l6.08-3.12v-7.99l-6.84-3.51-6.08,3.12-4.42-2.27,10.5-5.82-1.52-.78-10.65,5.75ZM22.62,17.7l4.38-2.25,4.38,2.25-4.38,2.25-4.38-2.25ZM21.68,18.96v5.28l4.56,2.34v-5.28l-4.56-2.34ZM20.92,25.6l-4.38,2.25,4.38,2.25,4.38-2.25-4.38-2.25ZM20.16,18.96l-4.56,2.34v5.28l4.56-2.34v-5.28ZM14.08,21.3l-4.56-2.34v5.28l4.56,2.34v-5.28ZM19.22,17.7l-4.38,2.25-4.38-2.25,4.38-2.25,4.38,2.25ZM33.84,24.24v-5.28l4.56,2.34v5.28l-4.56-2.34ZM28.7,27.84l4.38-2.25,4.38,2.25-4.38,2.25-4.38-2.25ZM27.76,21.3l4.56-2.34v5.28l-4.56,2.34v-5.28ZM44.48,24.24l-4.56,2.34v-5.28l4.56-2.34v5.28ZM43.54,17.7l-4.38,2.25-4.38-2.25,4.38-2.25,4.38,2.25ZM27,35.74l4.38,2.25-4.38,2.25-4.38-2.25,4.38-2.25ZM26.24,29.11v5.28l-4.56,2.34v-5.28l4.56-2.34ZM32.32,31.45v5.28l-4.56-2.34v-5.28l4.56,2.34ZM20.16,31.45l-4.56-2.34v5.28l4.56,2.34v-5.28ZM26.24,41.59l-4.56-2.34v5.28l4.56,2.34v-5.28ZM32.32,44.53l-4.56,2.34v-5.28l4.56-2.34v5.28ZM33.84,36.72l4.56-2.34v-5.28l-4.56,2.34v5.28Z"/><path class="cls-1" d="M92.14,32.01c-2.9-6.86-5.27-14-6.88-21.01l6.18.51c1.11,5.13,2.49,9.65,4.13,14.58h.18c1.64-4.78,2.91-9.3,4.05-14.58l6.22-.51c-1.55,6.8-3.83,13.94-6.78,21.01h-7.09Z"/><path class="cls-1" d="M107.28,11l6.49.52v20.49h-6.49V11Z"/><path class="cls-1" d="M117.69,11.51l5.95-.52.28,3.39h.35c1.78-2.49,4.14-3.74,7.06-3.74,1.99,0,3.49.53,4.52,1.6,1.05,1.07,1.58,2.58,1.58,4.54v15.21h-6.45v-14.72c-.59-.27-1.36-.4-2.32-.4-1.93,0-3.44.47-4.52,1.42v13.71h-6.45V11.51Z"/><path class="cls-1" d="M140.67,11l6.49.52v20.49h-6.49V11Z"/><path class="cls-1" d="M160.24,32.51c-3.8,0-6.56-.88-8.28-2.72-1.7-1.84-2.54-4.47-2.54-7.88s.94-6.07,2.81-8.06c1.9-2.02,4.47-3.03,7.72-3.03s5.89.61,7.94,1.83v1.6c0,1.63-.25,3.56-.63,5.16l-5.4-.64-.29-1.67c-.59-.12-1.29-.18-2.11-.18-1.17,0-2.15.12-2.94.36-.41,1.37-.61,2.82-.61,4.36,0,1.63.32,2.83.96,3.61.67.74,1.86,1.11,3.55,1.11,2.08,0,3.9-.64,5.48-1.91l2.9,4.76c-1.14,1.04-2.4,1.85-3.77,2.45-1.35.59-2.95.85-4.79.85Z"/><path class="cls-1" d="M178.81,32.51c-3.39,0-5.86-.91-7.41-2.72-1.55-1.81-2.32-4.39-2.32-7.75,0-2.2.44-4.16,1.32-5.88.91-1.72,2.19-3.07,3.86-4.05,1.7-.98,3.7-1.47,6.01-1.47,6.49,0,9.74,3.53,9.74,10.6,0,3.41-.92,6.14-2.76,8.19-1.84,2.05-4.65,3.07-8.42,3.07ZM179.6,26.94c1.17,0,2.25-.15,3.25-.45.5-1.28.74-2.92.74-4.94s-.31-3.31-.92-4.05c-.58-.77-1.65-1.16-3.2-1.16-1.11,0-2.19.13-3.25.4-.5,1.25-.75,2.91-.75,4.99,0,1.96.29,3.32.88,4.1.62.74,1.7,1.11,3.25,1.11Z"/><path class="cls-3" d="M63,20c-.02-1.71.63-3.07,1.29-4.24.67-1.19,1.71-2.12,3.11-2.78,1.4-.66,3.21-1.07,5.41-1.22l10.7-.75,1,4.96h-5.42v.35c2.55.85,3.47,2.94,3.5,5.12.03,2.16-.72,3.83-2.23,5-1.5,1.15-3.82,1.75-6.98,1.79-.63,0-1.49-.1-2.36-.22-.64.34-1.29,1.44-.77,1.65.34.14.88.25,1.62.34l4.89.58c2.38.29,4.15.93,5.33,1.93,1.17,1,1.9,2.56,1.93,4.68.02,1.47-.39,2.93-1.3,4.13-.78,1.07-1.93,1.86-3.45,2.39-2.03.73-4.18.83-6.32.86-2.07.02-3.84-.14-5.31-.51-1.46-.35-2.57-.92-3.33-1.71-.85-.89-1.29-2.11-1.3-3.32-.03-2.29,1.66-4.13,4.02-4.37v-.24c-1.72-.33-2.97-1.68-2.99-3.45v-.02c0-.71.12-1.31.4-1.81.29-.49.71-.87,1.27-1.13.56-.27,1.24-.44,2.05-.5v-.19c-.69-.29-1.31-.66-1.84-1.09-1.88-1.54-2.87-3.86-2.9-6.21ZM73.2,39.23c-.99.01-1.81-.07-2.45-.23-1.01-.24-1.72-.89-1.74-2.01-.01-.92.45-1.97,1.66-1.97,1.96,0,4.61.37,6.75,1.01.35,1.28.03,2.67-1.16,2.95-.93.23-1.89.24-2.85.25-.07,0-.14,0-.21,0ZM69.85,22.67c-.71-1.27-.81-4.09,0-5.28,1.9-.67,5.6-.54,6.41.86.63,1.09,1.01,3.25.31,4.54-.55,1.01-2.38,1.27-3.39,1.29-1.25.01-2.63-.25-3.33-1.41Z"/><path class="cls-1" d="M98.64,39.77l-1.07,4.23h-1.57l-1.93-6.99h1.35l1.09,4.34c.05.21.11.44.17.7.06.25.11.51.16.75.03-.15.06-.3.1-.46.03-.17.07-.33.11-.5.04-.17.07-.32.11-.46l1.11-4.37h1.43l1.08,4.21c.05.21.11.45.17.73.06.28.11.56.16.85.05-.19.09-.37.13-.55.04-.18.08-.34.12-.5.04-.16.08-.32.11-.47l1.04-4.27h1.35l-1.94,6.99h-1.57l-1.06-4.18c-.05-.21-.1-.43-.16-.68-.05-.25-.11-.52-.16-.81-.03.16-.07.33-.11.53-.04.2-.08.38-.12.55-.04.17-.07.29-.09.37Z"/><path class="cls-1" d="M105.98,37.01v6.99h-1.32v-6.99h1.32Z"/><path class="cls-1" d="M108.69,39.71v4.3h-1.18v-6.99h1.52l3.4,5.62c-.06-.55-.08-1.01-.08-1.38v-4.24h1.18v6.99h-1.56l-3.36-5.57c.02.24.04.47.06.69.02.21.03.41.03.59Z"/><path class="cls-1" d="M120.79,42.99v1.01h-5.77v-6.99h5.56v1.01h-4.24v1.92h3.93v1.01h-3.93v2.04h4.44Z"/><path class="cls-1" d="M126.22,37.01v6.99h-1.33v-6.99h1.33Z"/><path class="cls-1" d="M128.93,39.62v4.38h-1.18v-6.99h1.76l1.49,4.22c.06.21.12.43.18.65.06.22.12.42.16.6.03-.11.06-.24.1-.37.04-.14.08-.27.12-.4.04-.13.08-.25.11-.34l1.5-4.35h1.75v6.99h-1.18v-4.38c0-.15,0-.36,0-.64.01-.28.02-.57.04-.87-.1.39-.2.73-.28,1.02-.09.28-.16.51-.22.68l-1.48,4.19h-.94l-1.49-4.19-.51-1.7c.02.34.03.63.04.88,0,.25.02.46.02.63Z"/><path class="cls-1" d="M142.18,39.19c0,.45-.1.84-.31,1.18-.21.34-.5.61-.88.8-.38.19-.84.28-1.37.28h-1.88v2.55h-1.33v-6.99h3.15c.84,0,1.49.19,1.94.57.45.38.68.91.68,1.61ZM140.85,39.21c0-.79-.48-1.19-1.44-1.19h-1.67v2.43h1.71c.46,0,.8-.11,1.04-.32.24-.21.36-.52.36-.93Z"/><path class="cls-1" d="M150.24,40.48c0,.73-.15,1.37-.45,1.92-.29.54-.71.96-1.26,1.26-.54.3-1.17.45-1.9.45s-1.38-.15-1.92-.44c-.53-.29-.95-.71-1.23-1.26-.29-.54-.43-1.19-.43-1.93s.14-1.39.43-1.92c.29-.53.7-.94,1.23-1.22.54-.28,1.18-.43,1.93-.43s1.39.14,1.93.43c.53.28.95.69,1.23,1.23.29.53.43,1.17.43,1.92ZM148.89,40.48c0-.79-.2-1.42-.59-1.87-.39-.45-.94-.67-1.65-.67s-1.28.22-1.67.67c-.39.45-.59,1.07-.59,1.87,0,.53.09.99.27,1.38.18.39.44.69.78.9.34.21.74.32,1.2.32.72,0,1.28-.23,1.67-.68.39-.45.58-1.09.58-1.92Z"/><path class="cls-1" d="M152.77,41.27v2.74h-1.32v-6.99h3.51c.84,0,1.48.18,1.93.54.46.36.68.86.68,1.52,0,.5-.15.93-.44,1.28-.29.35-.69.58-1.19.69l1.96,2.96h-1.49l-1.73-2.74h-1.92ZM156.24,39.11c0-.36-.12-.63-.36-.81-.24-.19-.6-.28-1.07-.28h-2.05v2.23h2.09c.45,0,.79-.1,1.03-.3.24-.2.36-.48.36-.85Z"/><path class="cls-1" d="M161.98,38.03v5.98h-1.32v-5.98h-2.36v-1.01h6.04v1.01h-2.37Z"/><path class="cls-1" d="M169.4,40.93v3.08h-1.32v-6.99h1.32v2.84h3.37v-2.84h1.32v6.99h-1.32v-3.08h-3.37Z"/><path class="cls-1" d="M178.53,44.1c-.63,0-1.18-.1-1.62-.31-.45-.21-.79-.52-1.03-.92-.23-.4-.35-.89-.35-1.46v-4.4h1.32v4.3c0,.58.14,1.02.43,1.32.29.3.72.45,1.27.45s1.01-.16,1.32-.47c.31-.31.47-.77.47-1.36v-4.24h1.32v4.32c0,.58-.12,1.08-.38,1.49-.25.41-.61.73-1.08.95-.47.22-1.03.33-1.68.33Z"/><path class="cls-1" d="M189.18,42.02c0,.63-.24,1.12-.72,1.46-.48.35-1.14.52-1.99.52h-3.36v-6.99h3.05c.86,0,1.51.15,1.95.44.44.29.66.72.66,1.3,0,.4-.12.74-.35,1.02-.23.27-.57.46-1.02.56.58.07,1.02.25,1.32.55.31.29.46.68.46,1.15ZM187.43,38.92c0-.33-.11-.57-.34-.71-.22-.14-.55-.21-.99-.21h-1.68v1.89h1.69c.45,0,.79-.08,1-.24.21-.16.32-.4.32-.72ZM187.85,41.92c0-.71-.52-1.07-1.55-1.07h-1.87v2.18h1.93c.52,0,.9-.09,1.13-.28.24-.19.36-.46.36-.83Z"/></svg>