<svg width="200" height="200" viewBox="0 0 200 200" fill="none" xmlns="http://www.w3.org/2000/svg">
<path d="M27.5688 64.1009C25.7613 68.1622 24.264 72.3628 23.0904 76.6642C23.7983 79.1707 23.8439 81.8266 23.2223 84.3573C23.1019 84.9834 22.9019 85.5904 22.6275 86.1626C22.5875 86.2494 22.5314 86.3273 22.4625 86.392C22.3962 86.4621 22.3168 86.5178 22.2292 86.5557C21.8153 86.7518 21.3801 86.8962 20.9329 86.9857C20.3194 91.1378 20.0093 95.3315 20.0053 99.5315C20.0053 100.101 20.017 100.67 20.0286 101.24C21.8678 103.877 22.8353 107.055 22.7881 110.303C22.8174 110.979 22.7595 111.655 22.6159 112.315C22.5983 112.395 22.568 112.472 22.5262 112.542C22.4703 112.647 22.392 112.738 22.2974 112.807C21.9588 113.084 21.5907 113.32 21.2003 113.512C22.0464 118.462 23.3295 123.322 25.0336 128.032C27.365 130.521 28.8632 133.713 29.3091 137.142C29.3603 137.501 29.3926 137.789 29.4168 138.059C31.1595 141.433 33.1287 144.678 35.3098 147.77C38.4794 149.592 40.8855 152.556 42.0677 156.093C44.202 158.392 46.4705 160.554 48.8605 162.567C49.9191 163.458 51.0004 164.316 52.1044 165.143C53.1779 165.13 54.2487 165.257 55.2909 165.523C59.0251 166.606 62.2079 169.137 64.1722 172.586C68.8344 174.896 73.7137 176.709 78.7339 177.996C81.9407 175.818 85.4682 174.189 89.1797 173.173C86.7692 172.783 84.3479 172.34 81.9401 171.794C80.6764 171.505 79.4204 171.178 78.1723 170.813C77.0306 171.393 75.826 171.831 74.5839 172.118L74.2421 172.129L73.8267 172.062L73.502 171.945C71.5147 170.739 69.8016 169.107 68.4782 167.16C62.9704 164.59 57.8069 161.299 53.1154 157.368C52.5772 157.432 52.1125 157.46 51.7841 157.46L51.4459 157.401L51.0691 157.26L50.7731 157.08C49.0445 155.502 47.6834 153.542 46.7909 151.346C33.879 137.371 26.6523 118.826 26.5972 99.5259C26.6028 93.9463 27.1932 88.3836 28.3582 82.9348C28.1179 81.2778 28.2242 79.587 28.67 77.9759C29.1157 76.3648 29.8907 74.8706 30.9427 73.5937C32.2605 69.7454 33.8651 66.008 35.7422 62.4149C35.1257 60.7736 34.8658 59.013 34.9806 57.2569C34.916 57.2144 34.8604 57.1644 34.7922 57.1228C34.3071 56.8467 33.762 56.7019 33.2079 56.702C32.7611 56.7025 32.319 56.7962 31.9083 56.9776C31.4975 57.1589 31.1267 57.4242 30.818 57.7573C30.8491 58.9861 30.7322 60.2141 30.47 61.4133C30.3682 62.0005 30.1895 62.5708 29.9389 63.1085C29.9066 63.1765 29.8642 63.2389 29.8133 63.2935C29.743 63.3766 29.6557 63.4427 29.5576 63.4868C29.0264 63.742 28.4652 63.9249 27.8881 64.0306C27.7859 64.0574 27.6746 64.0787 27.5688 64.1009ZM120.456 182.182L120.296 182.221C116.828 183.013 113.437 183.583 110.124 184.086C116.052 186.248 120.107 189.881 121.534 197.236C121.713 198.116 122.22 198.888 122.946 199.387C123.672 199.885 124.559 200.07 125.415 199.901C126.272 199.724 127.026 199.203 127.51 198.454C127.995 197.704 128.171 196.787 128 195.903C126.769 189.545 124.091 185.225 120.456 182.182Z" fill="#C7AD76"/>
<path d="M135.825 172.589C137.789 169.14 140.972 166.609 144.706 165.526C145.748 165.261 146.819 165.133 147.892 165.146C148.994 164.317 150.076 163.458 151.136 162.57C153.526 160.557 155.795 158.395 157.93 156.096C159.112 152.559 161.518 149.595 164.688 147.773C166.869 144.681 168.838 141.436 170.581 138.062C170.606 137.803 170.637 137.518 170.686 137.169C171.129 133.732 172.628 130.531 174.965 128.037C176.669 123.327 177.952 118.467 178.798 113.517C178.407 113.325 178.039 113.088 177.7 112.811C177.616 112.749 177.544 112.67 177.491 112.579C177.43 112.486 177.389 112.381 177.371 112.271C177.238 111.62 177.184 110.954 177.21 110.29C177.167 107.048 178.134 103.877 179.97 101.245C179.981 100.676 179.993 100.106 179.993 99.5363C179.989 95.3364 179.679 91.1426 179.065 86.9906C178.618 86.9011 178.183 86.7567 177.769 86.5605C177.681 86.5225 177.602 86.4669 177.535 86.3968C177.466 86.3319 177.41 86.2541 177.37 86.1674C177.095 85.5953 176.895 84.9882 176.775 84.3621C176.153 81.8315 176.199 79.1755 176.907 76.6691C175.733 72.3676 174.236 68.1671 172.429 64.1058C172.323 64.0836 172.208 64.0623 172.11 64.0401C171.533 63.9343 170.972 63.7515 170.441 63.4963C170.343 63.4521 170.255 63.3861 170.185 63.303C170.134 63.2484 170.092 63.186 170.059 63.118C169.809 62.5803 169.63 62.01 169.528 61.4227C169.267 60.2278 169.15 59.0042 169.179 57.7797C168.78 57.3385 168.274 57.0159 167.713 56.8456C167.296 56.7198 166.86 56.6805 166.429 56.73C165.997 56.7796 165.58 56.9169 165.201 57.1341C165.133 57.1721 165.077 57.2266 165.012 57.2673C165.127 59.0234 164.867 60.784 164.251 62.4253C166.128 66.0181 167.732 69.7552 169.05 73.6032C170.102 74.8801 170.877 76.3743 171.323 77.9854C171.769 79.5965 171.875 81.2873 171.635 82.9443C172.799 88.3935 173.39 93.9564 173.395 99.5363C173.339 118.836 166.113 137.38 153.202 151.355C152.309 153.55 150.948 155.51 149.219 157.089L148.923 157.268L148.546 157.41L148.208 157.469C147.763 157.458 147.319 157.427 146.877 157.376C142.183 161.308 137.017 164.599 131.507 167.168C130.184 169.115 128.471 170.746 126.484 171.952L126.158 172.07L125.743 172.136L125.402 172.126C124.16 171.839 122.955 171.401 121.813 170.82C120.566 171.184 119.31 171.511 118.046 171.801C113.686 172.798 109.276 173.439 105.013 174.059C89.7628 176.279 75.3903 178.361 71.9859 195.913C71.8978 196.352 71.8948 196.804 71.9771 197.244C72.0593 197.684 72.2252 198.103 72.4651 198.477C72.7051 198.851 73.0144 199.172 73.3752 199.422C73.736 199.672 74.1412 199.846 74.5675 199.934C74.9938 200.022 75.4328 200.022 75.8591 199.934C76.2855 199.847 76.6908 199.673 77.0518 199.423C77.4128 199.173 77.7222 198.852 77.9624 198.479C78.2026 198.105 78.3687 197.686 78.4512 197.246C80.9398 184.42 91.4062 182.901 105.893 180.797C110.299 180.157 114.848 179.495 119.473 178.439C125.123 177.14 130.609 175.177 135.825 172.589ZM34.5141 46.7174L34.445 46.6776L34.4647 46.6924L34.4566 46.7045L34.5141 46.7174ZM34.2333 46.501C35.4704 46.1384 40.3335 44.4173 41.7922 39.6108C43.2069 34.9559 39.8895 26.9161 38.5627 24C36.0813 26.2261 30.4646 31.8012 29.9335 37.0896C29.4302 42.1014 33.2366 45.6686 34.2333 46.501ZM19.0212 60.4932C22.6033 63.5129 27.2135 62.2755 28.3914 61.8852C28.7708 60.6699 29.9712 55.9189 27.0412 52.224C24.2432 48.6966 16.477 47.2178 13.5076 46.7674C13.9319 49.9803 15.2875 57.3469 19.0212 60.4932ZM28.7224 61.7557C28.6984 61.7667 28.6751 61.779 28.6524 61.7927L28.6757 61.7834L28.682 61.7973L28.7224 61.7557ZM38.9287 52.225C37.8594 53.5519 37.1662 55.1573 36.9254 56.8645C36.6846 58.5716 36.9057 60.3141 37.5642 61.9C39.1025 62.5785 40.7927 62.8063 42.4485 62.5581C44.1043 62.3098 45.6615 61.5953 46.9487 60.4932C50.3577 57.6178 51.9537 49.5207 52.4605 46.3475C49.4211 46.9301 41.7151 48.7114 38.9287 52.225ZM10.9473 83.2181C14.7411 86.5476 19.8447 85.3046 21.0899 84.9281C21.507 83.6592 22.9218 78.4541 19.8474 74.4097C16.8672 70.491 8.39505 68.7264 5.27673 68.1974C5.65262 71.6101 6.94264 79.7036 10.9473 83.2181ZM21.4164 84.807C21.393 84.8181 21.3699 84.8301 21.3474 84.843L21.3707 84.8347L21.3761 84.8477L21.4164 84.807ZM41.0629 83.8516C44.8477 80.7931 46.7388 71.9578 47.3336 68.6237C44.1184 69.1629 35.6354 70.9063 32.5198 74.676C31.3312 76.0927 30.5458 77.8206 30.2503 79.6688C29.9549 81.5169 30.161 83.4133 30.8458 85.1482C32.4991 85.9248 34.3286 86.2147 36.1318 85.9859C37.935 85.757 39.6416 85.0184 41.0629 83.8516ZM9.72365 112.403C14.5985 114.922 19.6752 112.194 20.8405 111.486C20.9643 110.098 21.1948 104.2 16.9031 100.729C12.7648 97.3833 3.31837 97.8161 0 98.0852C1.21647 101.506 4.59852 109.752 9.72365 112.403ZM21.098 111.342L21.132 111.287C21.1087 111.306 21.0872 111.325 21.0675 111.344L21.0881 111.33L21.098 111.342ZM30.9714 109.161C32.9076 109.544 34.9086 109.365 36.7523 108.646C38.596 107.926 40.2101 106.694 41.4154 105.086C44.6522 100.831 44.3956 90.9351 44.1848 87.3725C41.0261 88.7515 32.4409 92.857 30.0923 97.6838C29.1952 99.4937 28.8024 101.525 28.9577 103.551C29.1129 105.577 29.8099 107.519 30.9714 109.161ZM27.5633 138.76C27.4934 137.311 26.8726 130.904 21.6936 127.861C16.7147 124.934 6.57483 126.995 3.16855 127.808C4.95378 131.204 9.85732 139.565 15.7844 141.576C21.4505 143.499 26.4743 139.676 27.5633 138.76ZM27.793 138.579L27.8199 138.517C27.7995 138.539 27.7803 138.562 27.7625 138.586L27.7813 138.568L27.793 138.579ZM37.8889 134.68C40.0225 134.774 42.1397 134.257 44.0054 133.186C45.8712 132.115 47.4126 130.532 48.4586 128.612C51.2853 123.5 49.4454 112.843 48.6846 109.171C45.5995 111.102 36.9389 116.931 35.1546 122.519C34.4722 124.606 34.3652 126.847 34.8454 128.993C35.3257 131.139 36.3743 133.105 37.8746 134.673L37.8889 134.68ZM34.1023 149.306C28.4793 146.515 17.5957 149.575 14.0862 150.688C16.2079 154.149 22.1224 162.884 28.7009 164.608C35.0111 166.258 40.1658 161.683 41.2262 160.645C41.0629 159.149 39.9711 152.223 34.1023 149.306ZM41.4388 160.452L41.463 160.385C41.4431 160.409 41.4245 160.434 41.4074 160.461L41.4253 160.44L41.4388 160.452ZM51.881 155.508L51.9223 155.523C54.2339 155.466 56.4846 154.747 58.4233 153.448C60.3619 152.149 61.9121 150.32 62.9009 148.165C65.5985 142.394 62.7798 130.934 61.7231 127.141C58.6209 129.391 49.5907 136.389 48.0593 142.596C47.4737 144.902 47.5209 147.33 48.1957 149.61C48.8705 151.89 50.1464 153.932 51.881 155.508ZM64.5606 177.406L64.5749 177.414L64.5857 177.344C64.5714 177.372 64.5583 177.4 64.5462 177.428L64.5606 177.406ZM54.8145 167.406C48.4334 165.686 37.7454 171.178 34.4037 173.031C37.235 176.122 45.0846 183.962 52.2398 184.369C59.1385 184.747 63.5433 178.904 64.4045 177.643C63.9577 176.167 61.4898 169.203 54.8145 167.406ZM74.2959 170.176L74.3587 170.187C76.7363 169.646 78.9212 168.434 80.6691 166.686C82.417 164.938 83.659 162.724 84.2564 160.291C85.916 153.734 80.6994 142.434 78.8926 138.811C76.1807 141.725 68.166 150.878 67.8036 157.636C67.6519 160.141 68.1787 162.641 69.3252 164.855C70.4716 167.07 72.1926 168.912 74.2959 170.176ZM166.11 46.5842C166.084 46.5796 166.057 46.5769 166.03 46.5759L166.055 46.5805V46.5963L166.11 46.5842ZM165.767 46.501C166.764 45.664 170.57 42.0986 170.067 37.0905C169.535 31.8003 163.919 26.2252 161.437 24C160.11 26.9161 156.793 34.9559 158.208 39.6108C159.666 44.4201 164.53 46.1412 165.767 46.501ZM180.979 60.4932C184.713 57.3487 186.068 49.9803 186.492 46.7711C183.523 47.2187 175.757 48.6975 172.959 52.2277C170.029 55.9226 171.228 60.6736 171.609 61.8889C172.787 62.2764 177.397 63.5129 180.979 60.4932ZM171.732 62.219L171.698 62.1534L171.707 62.1784L171.697 62.183L171.732 62.219Z" fill="#C7AD76"/>
<path d="M153.05 60.499C154.337 61.6013 155.895 62.3159 157.551 62.5641C159.206 62.8123 160.897 62.5845 162.435 61.9057C163.094 60.3199 163.315 58.5775 163.074 56.8703C162.834 55.1632 162.141 53.5577 161.071 52.2307C158.282 48.7162 150.575 46.934 147.54 46.3541C148.047 49.5283 149.643 57.6273 153.05 60.499ZM179.037 85.2687C179.025 85.2437 179.011 85.2206 178.999 85.1975L179.008 85.2215L178.994 85.228L179.037 85.2687ZM180.153 74.4154C177.078 78.458 178.493 83.664 178.91 84.9339C180.155 85.3112 185.258 86.557 189.053 83.2238C193.055 79.7093 194.346 71.6168 194.723 68.2031C191.604 68.734 183.129 70.5005 180.153 74.4154ZM152.669 68.6285C153.264 71.9627 155.159 80.8016 158.939 83.8573C160.36 85.0245 162.067 85.7632 163.871 85.9917C165.674 86.2203 167.504 85.9297 169.157 85.1522C169.842 83.4172 170.048 81.5208 169.752 79.6727C169.457 77.8245 168.671 76.0966 167.483 74.6799C164.364 70.9083 155.884 69.1659 152.669 68.6285ZM179.16 111.493C180.327 112.201 185.404 114.932 190.276 112.41C195.401 109.759 198.784 101.513 200 98.0928C196.681 97.8246 187.236 97.3909 183.097 100.737C178.807 104.205 179.037 110.103 179.16 111.493ZM179.211 111.846C179.205 111.819 179.197 111.792 179.189 111.766V111.791H179.175L179.211 111.846ZM169.029 109.167C170.19 107.525 170.887 105.583 171.042 103.557C171.197 101.53 170.805 99.4995 169.908 97.6896C167.559 92.8627 158.974 88.7573 155.815 87.3783C155.606 90.9409 155.351 100.842 158.585 105.091C159.79 106.7 161.404 107.932 163.248 108.652C165.091 109.371 167.092 109.55 169.029 109.167ZM178.307 127.867C173.126 130.912 172.508 137.317 172.438 138.766C173.526 139.683 178.551 143.506 184.216 141.581C190.144 139.57 195.047 131.208 196.832 127.812C193.423 126.999 183.285 124.935 178.307 127.867ZM172.439 139.124C172.439 139.092 172.433 139.061 172.429 139.032V139.059H172.412L172.439 139.124ZM151.316 109.176C150.56 112.849 148.715 123.506 151.542 128.618C152.587 130.539 154.128 132.123 155.994 133.194C157.86 134.265 159.978 134.782 162.112 134.686L162.126 134.68C163.627 133.112 164.675 131.146 165.155 129C165.636 126.854 165.529 124.613 164.846 122.526C163.061 116.936 154.4 111.107 151.316 109.176ZM158.732 160.937L158.755 161.004C158.755 160.972 158.755 160.94 158.75 160.911V160.939L158.732 160.937ZM165.899 149.312C160.03 152.228 158.94 159.152 158.775 160.65C159.835 161.687 164.99 166.265 171.3 164.614C177.878 162.89 183.793 154.154 185.915 150.694C182.401 149.581 171.516 146.521 165.899 149.312ZM148.078 155.53L148.119 155.515C149.855 153.939 151.132 151.897 151.807 149.616C152.483 147.336 152.53 144.907 151.944 142.6C150.412 136.387 141.382 129.394 138.281 127.145C137.224 130.937 134.405 142.397 137.104 148.169C138.092 150.323 139.641 152.153 141.579 153.453C143.517 154.752 145.767 155.471 148.078 155.53ZM145.186 167.412C138.511 169.208 136.043 176.174 135.596 177.648C136.459 178.91 140.869 184.745 147.76 184.374C154.914 183.966 162.765 176.128 165.596 173.035C162.254 171.185 151.563 165.699 145.186 167.412ZM135.5 177.919L135.511 177.991C135.517 177.96 135.521 177.929 135.524 177.898L135.517 177.925L135.5 177.919ZM115.744 160.298C116.341 162.732 117.583 164.946 119.331 166.694C121.079 168.441 123.264 169.653 125.641 170.194L125.705 170.184C127.808 168.919 129.528 167.077 130.674 164.863C131.821 162.649 132.348 160.151 132.196 157.646C131.838 150.882 123.82 141.733 121.108 138.82C119.302 142.443 114.087 153.747 115.744 160.298Z" fill="#C7AD76"/>
<path fill-rule="evenodd" clip-rule="evenodd" d="M77.0892 0H122.91L123.903 2.54927C128.135 13.4238 131.574 23.5241 133.685 32.5654C135.786 41.563 136.645 49.8066 135.469 56.8581C134.268 64.0606 130.92 70.0725 124.748 74.16C119.521 77.6217 112.604 79.4777 104 79.904V114.126C112.165 114.635 120.293 116.722 126.217 120.668C128.056 121.893 128.553 124.376 127.329 126.214C126.104 128.053 123.621 128.551 121.782 127.326C116.675 123.925 108.552 122.002 99.9994 122.001C91.4468 122 83.3246 123.923 78.2179 127.326C76.3796 128.551 73.8962 128.054 72.6711 126.215C71.446 124.377 71.9431 121.894 73.7814 120.669C79.7058 116.72 87.8344 114.633 95.9997 114.125V79.904C87.3954 79.4776 80.479 77.6216 75.2518 74.16C69.0796 70.0724 65.732 64.0606 64.5307 56.8581C63.3546 49.8066 64.2138 41.563 66.3148 32.5654C68.426 23.5241 71.8649 13.4238 76.097 2.54927L77.0892 0ZM82.5697 8C78.8618 17.7175 75.9334 26.5552 74.1052 34.3846C72.7645 40.1262 71.9998 46.107 71.9998 52C71.9998 65.5542 84.1537 72 95.9998 72V64C88.5223 64 79.9998 61.1511 79.9998 52H127.952C128.2 47.0855 127.489 41.2117 125.894 34.3846C124.066 26.5552 121.138 17.7175 117.43 8H82.5697Z" fill="#B3AEA4"/>
</svg>
