<svg width="25" height="25" viewBox="0 0 25 25" fill="none" xmlns="http://www.w3.org/2000/svg">
<path d="M3.44609 8.01261C3.22016 8.52028 3.033 9.04534 2.88631 9.58303C2.97479 9.89634 2.98048 10.2283 2.90279 10.5447C2.88774 10.6229 2.86274 10.6988 2.82844 10.7703C2.82344 10.7812 2.81643 10.7909 2.80781 10.799C2.79952 10.8078 2.7896 10.8147 2.77865 10.8195C2.72692 10.844 2.67252 10.862 2.61662 10.8732C2.53992 11.3922 2.50116 11.9164 2.50067 12.4414C2.50067 12.5127 2.50212 12.5837 2.50358 12.655C2.73348 12.9847 2.85441 13.3819 2.84852 13.7879C2.85218 13.8723 2.84494 13.9569 2.82698 14.0394C2.82478 14.0494 2.82099 14.059 2.81577 14.0678C2.80878 14.0809 2.79901 14.0922 2.78718 14.1009C2.74485 14.1355 2.69884 14.1651 2.65003 14.189C2.7558 14.8078 2.91618 15.4153 3.12919 16.004C3.42062 16.3151 3.6079 16.7141 3.66364 17.1427C3.67003 17.1876 3.67407 17.2237 3.6771 17.2573C3.89494 17.6791 4.14108 18.0847 4.41373 18.4712C4.80992 18.699 5.11069 19.0695 5.25846 19.5117C5.52525 19.799 5.80881 20.0692 6.10756 20.3209C6.23988 20.4322 6.37505 20.5395 6.51305 20.6429C6.64724 20.6412 6.78109 20.6572 6.91136 20.6904C7.37814 20.8258 7.77599 21.1421 8.02152 21.5732C8.6043 21.862 9.21421 22.0886 9.84173 22.2495C10.2426 21.9773 10.6835 21.7737 11.1475 21.6466C10.8461 21.5978 10.5435 21.5426 10.2425 21.4742C10.0845 21.4382 9.92756 21.3973 9.77153 21.3516C9.62883 21.4241 9.47825 21.4789 9.32298 21.5148L9.28026 21.5161L9.22834 21.5078L9.18775 21.4931C8.93934 21.3423 8.7252 21.1384 8.55978 20.895C7.8713 20.5738 7.22587 20.1624 6.63943 19.671C6.57215 19.679 6.51406 19.6825 6.47302 19.6825L6.43074 19.6751L6.38364 19.6575L6.34664 19.635C6.13057 19.4377 5.96042 19.1927 5.84886 18.9183C4.23487 17.1714 3.33154 14.8533 3.32465 12.4407C3.32534 11.7433 3.39915 11.048 3.54478 10.3669C3.51474 10.1597 3.52802 9.94838 3.58374 9.74699C3.63947 9.5456 3.73633 9.35883 3.86784 9.19921C4.03256 8.71817 4.23314 8.25099 4.46778 7.80186C4.39072 7.5967 4.35822 7.37662 4.37257 7.15711C4.3645 7.1518 4.35755 7.14555 4.34902 7.14035C4.28839 7.10584 4.22025 7.08774 4.15099 7.08775C4.09514 7.08781 4.03987 7.09952 3.98853 7.12219C3.93719 7.14487 3.89083 7.17802 3.85226 7.21966C3.85614 7.37326 3.84152 7.52676 3.80875 7.67666C3.79602 7.75006 3.77369 7.82135 3.74236 7.88857C3.73833 7.89707 3.73303 7.90487 3.72666 7.91169C3.71787 7.92208 3.70696 7.93033 3.6947 7.93585C3.6283 7.96776 3.55815 7.99061 3.48602 8.00383C3.47323 8.00718 3.45933 8.00984 3.44609 8.01261ZM15.057 22.7727L15.0371 22.7776C14.6035 22.8767 14.1797 22.9479 13.7655 23.0108C14.5065 23.2809 15.0134 23.7352 15.1917 24.6545C15.2141 24.7645 15.2775 24.861 15.3682 24.9234C15.459 24.9857 15.5698 25.0088 15.6769 24.9877C15.784 24.9655 15.8782 24.9004 15.9388 24.8067C15.9994 24.713 16.0214 24.5983 16 24.4879C15.8461 23.6931 15.5114 23.1531 15.057 22.7727Z" fill="#C7AD76"/>
<path d="M16.9781 21.5736C17.2237 21.1425 17.6215 20.8261 18.0883 20.6908C18.2185 20.6576 18.3524 20.6416 18.4865 20.6433C18.6243 20.5396 18.7594 20.4323 18.892 20.3213C19.1908 20.0696 19.4744 19.7994 19.7412 19.512C19.889 19.0699 20.1897 18.6994 20.5859 18.4716C20.8586 18.0851 21.1048 17.6795 21.3227 17.2577C21.3257 17.2253 21.3296 17.1897 21.3358 17.1461C21.3911 16.7165 21.5785 16.3164 21.8706 16.0046C22.0836 15.4159 22.244 14.8084 22.3497 14.1896C22.3009 14.1656 22.2548 14.1361 22.2125 14.1014C22.2019 14.0936 22.193 14.0838 22.1864 14.0723C22.1788 14.0607 22.1737 14.0476 22.1713 14.0338C22.1548 13.9525 22.148 13.8693 22.1513 13.7862C22.1458 13.381 22.2667 12.9846 22.4962 12.6556C22.4977 12.5845 22.4991 12.5133 22.4991 12.442C22.4986 11.917 22.4599 11.3928 22.3832 10.8738C22.3273 10.8626 22.2729 10.8446 22.2211 10.8201C22.2101 10.8153 22.2002 10.8084 22.1919 10.7996C22.1833 10.7915 22.1763 10.7818 22.1712 10.7709C22.1369 10.6994 22.1119 10.6235 22.0969 10.5453C22.0192 10.2289 22.0249 9.89694 22.1134 9.58364C21.9667 9.04596 21.7795 8.52089 21.5536 8.01322C21.5403 8.01045 21.526 8.00779 21.5138 8.00501C21.4416 7.99179 21.3715 7.96894 21.3051 7.93703C21.2928 7.93152 21.2819 7.92326 21.2731 7.91287C21.2667 7.90605 21.2615 7.89825 21.2574 7.88975C21.2261 7.82254 21.2038 7.75125 21.191 7.67784C21.1584 7.52848 21.1437 7.37553 21.1474 7.22246C21.0975 7.16731 21.0342 7.12698 20.9641 7.1057C20.912 7.08997 20.8575 7.08506 20.8036 7.09125C20.7497 7.09744 20.6975 7.11462 20.6501 7.14177C20.6417 7.14651 20.6346 7.15333 20.6265 7.15842C20.6409 7.37792 20.6084 7.598 20.5313 7.80316C20.7659 8.25227 20.9665 8.7194 21.1313 9.2004C21.2628 9.36001 21.3596 9.54678 21.4154 9.74817C21.4711 9.94957 21.4844 10.1609 21.4543 10.368C21.5999 11.0492 21.6737 11.7446 21.6743 12.442C21.6674 14.8545 20.7641 17.1725 19.1502 18.9193C19.0387 19.1938 18.8685 19.4388 18.6524 19.6361L18.6154 19.6585L18.5683 19.6762L18.526 19.6836C18.4704 19.6822 18.4149 19.6783 18.3596 19.672C17.7729 20.1635 17.1272 20.5748 16.4384 20.896C16.273 21.1393 16.0588 21.3432 15.8105 21.494L15.7698 21.5087L15.7178 21.517L15.6752 21.5158C15.52 21.4799 15.3694 21.4251 15.2267 21.3525C15.0707 21.398 14.9137 21.4389 14.7557 21.4752C14.2107 21.5998 13.6596 21.6799 13.1267 21.7574C11.2203 22.0348 9.42379 22.2952 8.99823 24.4891C8.98722 24.5439 8.98685 24.6005 8.99713 24.6555C9.00741 24.7105 9.02815 24.7629 9.05814 24.8096C9.08813 24.8564 9.1268 24.8965 9.1719 24.9277C9.217 24.959 9.26765 24.9808 9.32094 24.9917C9.37423 25.0027 9.4291 25.0028 9.48239 24.9918C9.53569 24.9808 9.58635 24.9591 9.63147 24.9279C9.67659 24.8967 9.71528 24.8566 9.7453 24.8099C9.77533 24.7632 9.79609 24.7108 9.80641 24.6558C10.1175 23.0525 11.4258 22.8626 13.2366 22.5996C13.7874 22.5196 14.356 22.4369 14.9341 22.3049C15.6403 22.1425 16.3262 21.8972 16.9781 21.5736ZM4.31426 5.83968L4.30562 5.83471L4.30809 5.83655L4.30708 5.83806L4.31426 5.83968ZM4.27916 5.81262C4.4338 5.76731 5.04169 5.55216 5.22403 4.95135C5.40087 4.36949 4.98618 3.36451 4.82033 3C4.51016 3.27827 3.80807 3.97515 3.74169 4.6362C3.67878 5.26268 4.15457 5.70858 4.27916 5.81262ZM2.37765 7.56166C2.82541 7.93912 3.40168 7.78443 3.54892 7.73565C3.59635 7.58374 3.74639 6.98986 3.38015 6.52801C3.0304 6.08708 2.05963 5.90222 1.68845 5.84592C1.74149 6.24754 1.91093 7.16836 2.37765 7.56166ZM3.5903 7.71946C3.5873 7.72084 3.58438 7.72238 3.58155 7.72409L3.58447 7.72293L3.58525 7.72466L3.5903 7.71946ZM4.86609 6.52812C4.73242 6.69398 4.64577 6.89467 4.61568 7.10806C4.58558 7.32145 4.61321 7.53926 4.69552 7.7375C4.88782 7.82232 5.09908 7.85078 5.30606 7.81976C5.51304 7.78873 5.70769 7.69942 5.86859 7.56166C6.29471 7.20223 6.49421 6.19008 6.55756 5.79343C6.17764 5.86627 5.21438 6.08893 4.86609 6.52812ZM1.36841 10.4023C1.84264 10.8184 2.48059 10.6631 2.63624 10.616C2.68838 10.4574 2.86522 9.80676 2.48093 9.30121C2.10841 8.81138 1.04938 8.5908 0.659592 8.52467C0.706577 8.95126 0.86783 9.96295 1.36841 10.4023ZM2.67705 10.6009C2.67412 10.6023 2.67124 10.6038 2.66842 10.6054L2.67133 10.6043L2.67201 10.606L2.67705 10.6009ZM5.13286 10.4814C5.60597 10.0991 5.84235 8.99473 5.9167 8.57796C5.5148 8.64536 4.45443 8.86329 4.06498 9.3345C3.9164 9.51158 3.81822 9.72757 3.78129 9.95859C3.74436 10.1896 3.77012 10.4267 3.85573 10.6435C4.06239 10.7406 4.29107 10.7768 4.51647 10.7482C4.74187 10.7196 4.9552 10.6273 5.13286 10.4814ZM1.21546 14.0504C1.82481 14.3653 2.45939 14.0243 2.60506 13.9357C2.62054 13.7623 2.64936 13.0249 2.11289 12.5912C1.5956 12.1729 0.414796 12.227 0 12.2607C0.152058 12.6883 0.574816 13.719 1.21546 14.0504ZM2.63724 13.9178L2.64151 13.9108C2.63859 13.9133 2.6359 13.9156 2.63343 13.918L2.63601 13.9163L2.63724 13.9178ZM3.87143 13.6452C4.11345 13.693 4.36358 13.6706 4.59404 13.5807C4.8245 13.4908 5.02627 13.3367 5.17693 13.1357C5.58152 12.6039 5.54945 11.3669 5.5231 10.9216C5.12826 11.0939 4.05511 11.6071 3.76153 12.2105C3.6494 12.4367 3.60031 12.6906 3.61971 12.9438C3.63911 13.1971 3.72624 13.4399 3.87143 13.6452ZM3.44542 17.345C3.43667 17.1638 3.35907 16.363 2.7117 15.9827C2.08934 15.6168 0.821854 15.8743 0.396069 15.9759C0.619222 16.4005 1.23216 17.4457 1.97306 17.697C2.68131 17.9373 3.30928 17.4595 3.44542 17.345ZM3.47413 17.3224L3.47749 17.3147C3.47494 17.3174 3.47254 17.3202 3.47031 17.3232L3.47267 17.321L3.47413 17.3224ZM4.73612 16.835C5.00282 16.8468 5.26746 16.7821 5.50068 16.6482C5.73389 16.5143 5.92657 16.3165 6.05732 16.0765C6.41066 15.4376 6.18067 14.1054 6.08558 13.6463C5.69994 13.8877 4.61737 14.6164 4.39432 15.3149C4.30903 15.5758 4.29565 15.8559 4.35568 16.1241C4.41571 16.3924 4.54679 16.6381 4.73432 16.8341L4.73612 16.835ZM4.26279 18.6633C3.55991 18.3143 2.19946 18.6969 1.76078 18.836C2.02598 19.2686 2.76531 20.3605 3.58761 20.576C4.37638 20.7822 5.02072 20.2103 5.15327 20.0806C5.13286 19.8937 4.99639 19.0279 4.26279 18.6633ZM5.17985 20.0566L5.18287 20.0481C5.18038 20.0511 5.17806 20.0543 5.17592 20.0576L5.17816 20.0551L5.17985 20.0566ZM6.48512 19.4385L6.49028 19.4404C6.77924 19.4332 7.06058 19.3434 7.30291 19.181C7.54524 19.0186 7.73902 18.79 7.86262 18.5206C8.19981 17.7992 7.84748 16.3667 7.71538 15.8926C7.32761 16.1739 6.19884 17.0487 6.00742 17.8245C5.93421 18.1128 5.94011 18.4163 6.02446 18.7013C6.10881 18.9863 6.2683 19.2415 6.48512 19.4385ZM8.07007 22.1758L8.07187 22.1768L8.07321 22.168C8.07143 22.1715 8.06978 22.175 8.06828 22.1785L8.07007 22.1758ZM6.85181 20.9258C6.05418 20.7108 4.71818 21.3973 4.30046 21.6288C4.65437 22.0153 5.63557 22.9952 6.52998 23.0462C7.39231 23.0933 7.94291 22.363 8.05056 22.2054C7.99472 22.0208 7.68623 21.1503 6.85181 20.9258ZM9.28699 21.2721L9.29484 21.2733C9.59204 21.2057 9.86515 21.0542 10.0836 20.8358C10.3021 20.6173 10.4574 20.3405 10.532 20.0363C10.7395 19.2168 10.0874 17.8043 9.86158 17.3513C9.52259 17.7156 8.52075 18.8598 8.47545 19.7045C8.45649 20.0177 8.52234 20.3301 8.66565 20.6069C8.80895 20.8837 9.02407 21.114 9.28699 21.2721ZM20.7638 5.82303C20.7605 5.82246 20.7572 5.82211 20.7538 5.82199L20.7568 5.82257V5.82453L20.7638 5.82303ZM20.7208 5.81262C20.8455 5.708 21.3212 5.26233 21.2583 4.63631C21.1919 3.97504 20.4898 3.27815 20.1797 3C20.0138 3.36451 19.5991 4.36949 19.776 4.95135C19.9583 5.55251 20.5662 5.76765 20.7208 5.81262ZM22.6224 7.56166C23.0891 7.16859 23.2585 6.24754 23.3115 5.84638C22.9404 5.90234 21.9696 6.08719 21.6198 6.52847C21.2536 6.99032 21.4035 7.5842 21.4511 7.73611C21.5983 7.78455 22.1746 7.93912 22.6224 7.56166ZM21.4664 7.77738L21.4623 7.76917L21.4634 7.77229L21.4621 7.77287L21.4664 7.77738Z" fill="#C7AD76"/>
<path d="M19.1313 7.56237C19.2922 7.70016 19.4868 7.78949 19.6938 7.82051C19.9008 7.85154 20.1121 7.82306 20.3044 7.73821C20.3867 7.53999 20.4144 7.32218 20.3843 7.10879C20.3542 6.8954 20.2676 6.69471 20.1339 6.52884C19.7853 6.08953 18.8219 5.86675 18.4425 5.79427C18.5059 6.19103 18.7054 7.20341 19.1313 7.56237ZM22.3796 10.6586C22.3781 10.6555 22.3764 10.6526 22.3749 10.6497L22.376 10.6527L22.3743 10.6535L22.3796 10.6586ZM22.5191 9.30193C22.1348 9.80725 22.3116 10.458 22.3638 10.6167C22.5194 10.6639 23.1572 10.8196 23.6316 10.403C24.1318 9.96367 24.2932 8.9521 24.3404 8.52539C23.9505 8.59175 22.8911 8.81256 22.5191 9.30193ZM19.0836 8.57857C19.158 8.99533 19.3948 10.1002 19.8674 10.4822C20.045 10.6281 20.2584 10.7204 20.4838 10.749C20.7093 10.7775 20.938 10.7412 21.1446 10.644C21.2302 10.4272 21.256 10.1901 21.219 9.95908C21.1821 9.72806 21.0839 9.51207 20.9354 9.33499C20.5455 8.86354 19.4855 8.64574 19.0836 8.57857ZM22.3951 13.9366C22.5408 14.0251 23.1755 14.3665 23.7845 14.0512C24.4252 13.7199 24.8479 12.6891 25 12.2616C24.5851 12.2281 23.4045 12.1739 22.8871 12.5921C22.3509 13.0257 22.3796 13.7629 22.3951 13.9366ZM22.4013 13.9807C22.4006 13.9773 22.3997 13.974 22.3986 13.9708V13.9739H22.3968L22.4013 13.9807ZM21.1286 13.6459C21.2737 13.4406 21.3609 13.1978 21.3803 12.9446C21.3997 12.6913 21.3506 12.4374 21.2385 12.2112C20.9449 11.6078 19.8717 11.0947 19.4769 10.9223C19.4508 11.3676 19.4189 12.6052 19.8231 13.1364C19.9737 13.3375 20.1755 13.4915 20.4059 13.5815C20.6364 13.6714 20.8866 13.6937 21.1286 13.6459ZM22.2884 15.9834C21.6407 16.364 21.5634 17.1647 21.5547 17.3457C21.6907 17.4604 22.3189 17.9383 23.0271 17.6976C23.7679 17.4463 24.3809 16.4011 24.604 15.9765C24.1779 15.8749 22.9107 15.6169 22.2884 15.9834ZM21.5549 17.3905C21.5549 17.3865 21.5541 17.3827 21.5536 17.379V17.3823H21.5514L21.5549 17.3905ZM18.9145 13.647C18.82 14.1061 18.5893 15.4383 18.9428 16.0772C19.0734 16.3173 19.266 16.5154 19.4993 16.6493C19.7325 16.7832 19.9973 16.8477 20.264 16.8357L20.2658 16.8349C20.4533 16.639 20.5844 16.3932 20.6444 16.125C20.7045 15.8567 20.6911 15.5766 20.6058 15.3157C20.3826 14.617 19.2999 13.8883 18.9145 13.647ZM19.8415 20.1172L19.8444 20.1255C19.8444 20.1214 19.8444 20.1175 19.8437 20.1139V20.1174L19.8415 20.1172ZM20.7373 18.664C20.0037 19.0285 19.8675 19.894 19.8468 20.0812C19.9794 20.2109 20.6237 20.7831 21.4125 20.5767C22.2348 20.3612 22.9741 19.2693 23.2393 18.8368C22.8001 18.6976 21.4395 18.3151 20.7373 18.664ZM18.5097 19.4412L18.5149 19.4394C18.7319 19.2424 18.8915 18.9871 18.9759 18.7021C19.0604 18.417 19.0663 18.1133 18.993 17.825C18.8015 17.0483 17.6727 16.1742 17.2851 15.8931C17.153 16.3671 16.8006 17.7997 17.1379 18.5211C17.2614 18.7904 17.4551 19.0191 17.6973 19.1816C17.9396 19.344 18.2208 19.4339 18.5097 19.4412ZM18.1482 20.9265C17.3139 21.151 17.0054 22.0218 16.9494 22.206C17.0573 22.3638 17.6086 23.0931 18.47 23.0468C19.3642 22.9958 20.3456 22.016 20.6995 21.6294C20.2817 21.3981 18.9454 20.7124 18.1482 20.9265ZM16.9376 22.2398L16.9389 22.2489C16.9396 22.245 16.9401 22.2412 16.9405 22.2373L16.9397 22.2406L16.9376 22.2398ZM14.468 20.0373C14.5426 20.3415 14.6979 20.6182 14.9164 20.8367C15.1349 21.0551 15.408 21.2066 15.7052 21.2743L15.7131 21.273C15.976 21.1149 16.191 20.8847 16.3343 20.6079C16.4776 20.3312 16.5434 20.0188 16.5246 19.7057C16.4797 18.8603 15.4775 17.7166 15.1385 17.3525C14.9127 17.8053 14.2608 19.2184 14.468 20.0373Z" fill="#C7AD76"/>
<path fill-rule="evenodd" clip-rule="evenodd" d="M9.63618 0H15.3638L15.4879 0.318659C16.0169 1.67798 16.4467 2.94051 16.7106 4.07068C16.9733 5.19537 17.0807 6.22582 16.9336 7.10726C16.7835 8.00758 16.365 8.75906 15.5935 9.27C14.9401 9.70271 14.0755 9.93471 13 9.988V14.2657C14.0207 14.3294 15.0367 14.5903 15.7772 15.0835C16.007 15.2366 16.0692 15.547 15.9161 15.7768C15.7631 16.0066 15.4527 16.0689 15.2228 15.9158C14.5844 15.4906 13.569 15.2502 12.5 15.2501C11.4309 15.2501 10.4156 15.4903 9.77727 15.9157C9.54748 16.0688 9.23706 16.0067 9.08392 15.7769C8.93078 15.5471 8.99292 15.2367 9.22271 15.0836C9.96325 14.5901 10.9793 14.3292 12 14.2656V9.988C10.9245 9.9347 10.0599 9.7027 9.40651 9.27C8.63498 8.75906 8.21653 8.00758 8.06637 7.10726C7.91935 6.22582 8.02675 5.19537 8.28938 4.07068C8.55328 2.94051 8.98314 1.67798 9.51216 0.318659L9.63618 0ZM10.3212 1C9.85775 2.21468 9.49171 3.3194 9.26318 4.29807C9.09559 5.01577 9 5.76338 9 6.5C9 8.19427 10.5192 9 12 9V8C11.0653 8 10 7.64389 10 6.5H15.994C16.025 5.88569 15.9361 5.15146 15.7368 4.29807C15.5083 3.3194 15.1423 2.21468 14.6788 1H10.3212Z" fill="#C7AD76"/>
</svg>
