<svg width="30" height="30" viewBox="0 0 30 30" fill="none" xmlns="http://www.w3.org/2000/svg">
<path d="M4.13531 10.6962C3.86419 11.273 3.6396 11.8697 3.46357 12.4807C3.56975 12.8367 3.57658 13.214 3.48335 13.5735C3.46529 13.6624 3.43529 13.7486 3.39413 13.8299C3.38812 13.8422 3.37971 13.8533 3.36937 13.8625C3.35942 13.8725 3.34753 13.8804 3.33438 13.8857C3.2723 13.9136 3.20702 13.9341 3.13994 13.9468C3.04791 14.5366 3.00139 15.1323 3.0008 15.7289C3.0008 15.8098 3.00255 15.8906 3.0043 15.9715C3.28018 16.3462 3.4253 16.7976 3.41822 17.259C3.42261 17.3549 3.41393 17.451 3.39238 17.5447C3.38974 17.5562 3.38519 17.5671 3.37893 17.5771C3.37054 17.5919 3.35881 17.6048 3.34461 17.6146C3.29382 17.654 3.23861 17.6876 3.18004 17.7147C3.30695 18.4179 3.49942 19.1083 3.75503 19.7773C4.10475 20.1308 4.32948 20.5842 4.39637 21.0713C4.40404 21.1223 4.40888 21.1633 4.41252 21.2015C4.67393 21.6808 4.9693 22.1417 5.29647 22.5809C5.7719 22.8398 6.13283 23.2608 6.31015 23.7633C6.6303 24.0898 6.97058 24.3969 7.32907 24.6829C7.48786 24.8093 7.65006 24.9313 7.81566 25.0487C7.97669 25.0468 8.13731 25.065 8.29363 25.1027C8.85377 25.2565 9.33119 25.616 9.62582 26.1059C10.3252 26.4341 11.0571 26.6916 11.8101 26.8744C12.2911 26.5651 12.8202 26.3337 13.377 26.1893C13.0154 26.1339 12.6522 26.0711 12.291 25.9934C12.1015 25.9525 11.9131 25.906 11.7258 25.8541C11.5546 25.9365 11.3739 25.9988 11.1876 26.0396L11.1363 26.041L11.074 26.0315L11.0253 26.0149C10.7272 25.8435 10.4702 25.6118 10.2717 25.3353C9.44556 24.9702 8.67104 24.5027 7.96731 23.9443C7.88657 23.9534 7.81687 23.9574 7.76762 23.9574L7.71689 23.949L7.66037 23.9289L7.61597 23.9034C7.35668 23.6792 7.15251 23.4008 7.01863 23.0889C5.08185 21.1038 3.99785 18.4696 3.98958 15.7281C3.99041 14.9356 4.07898 14.1454 4.25373 13.3714C4.21768 13.1361 4.23363 12.8959 4.30049 12.667C4.36736 12.4382 4.4836 12.2259 4.64141 12.0446C4.83907 11.4979 5.07976 10.967 5.36133 10.4567C5.26886 10.2235 5.22986 9.97343 5.24709 9.72399C5.2374 9.71795 5.22906 9.71086 5.21883 9.70495C5.14607 9.66572 5.0643 9.64516 4.98119 9.64517C4.91416 9.64524 4.84785 9.65855 4.78624 9.68431C4.72463 9.71007 4.669 9.74775 4.62271 9.79507C4.62736 9.96961 4.60982 10.1441 4.5705 10.3144C4.55522 10.3978 4.52843 10.4788 4.49083 10.5552C4.48599 10.5648 4.47963 10.5737 4.47199 10.5815C4.46145 10.5933 4.44835 10.6027 4.43364 10.6089C4.35396 10.6452 4.26978 10.6711 4.18322 10.6862C4.16788 10.69 4.15119 10.693 4.13531 10.6962ZM18.0684 27.469L18.0445 27.4745C17.5242 27.5871 17.0156 27.668 16.5186 27.7395C17.4078 28.0465 18.0161 28.5627 18.23 29.6074C18.2569 29.7324 18.333 29.8421 18.4419 29.9129C18.5508 29.9837 18.6838 30.01 18.8123 29.986C18.9408 29.9608 19.0538 29.8869 19.1265 29.7804C19.1992 29.6739 19.2256 29.5436 19.2 29.4181C19.0153 28.5149 18.6137 27.9012 18.0684 27.469Z" fill="#AE194A"/>
<path d="M20.3738 26.1063C20.6684 25.6165 21.1458 25.257 21.706 25.1032C21.8623 25.0654 22.0228 25.0473 22.1838 25.0492C22.3491 24.9314 22.5113 24.8094 22.6704 24.6833C23.0289 24.3973 23.3693 24.0902 23.6895 23.7637C23.8668 23.2612 24.2277 22.8402 24.7031 22.5813C25.0304 22.1422 25.3258 21.6813 25.5872 21.2019C25.5909 21.1651 25.5956 21.1247 25.603 21.0751C25.6693 20.5869 25.8942 20.1322 26.2447 19.778C26.5003 19.109 26.6928 18.4186 26.8197 17.7154C26.7611 17.6882 26.7058 17.6546 26.655 17.6152C26.6423 17.6064 26.6317 17.5952 26.6236 17.5822C26.6145 17.569 26.6084 17.5541 26.6056 17.5385C26.5857 17.446 26.5776 17.3515 26.5815 17.2571C26.575 16.7966 26.7201 16.3462 26.9954 15.9722C26.9972 15.8914 26.9989 15.8105 26.9989 15.7296C26.9983 15.133 26.9518 14.5373 26.8598 13.9475C26.7927 13.9348 26.7274 13.9143 26.6653 13.8864C26.6522 13.881 26.6402 13.8731 26.6302 13.8632C26.6199 13.854 26.6115 13.8429 26.6055 13.8306C26.5643 13.7493 26.5343 13.6631 26.5163 13.5742C26.423 13.2147 26.4298 12.8374 26.536 12.4814C26.36 11.8704 26.1354 11.2737 25.8643 10.6968C25.8484 10.6937 25.8312 10.6907 25.8165 10.6875C25.73 10.6725 25.6458 10.6465 25.5661 10.6103C25.5514 10.604 25.5383 10.5946 25.5277 10.5828C25.5201 10.5751 25.5137 10.5662 25.5089 10.5565C25.4713 10.4802 25.4445 10.3991 25.4292 10.3157C25.39 10.146 25.3724 9.97219 25.3769 9.79825C25.3171 9.73558 25.2411 9.68976 25.1569 9.66557C25.0944 9.64769 25.029 9.64211 24.9643 9.64915C24.8996 9.65619 24.837 9.6757 24.7801 9.70655C24.77 9.71194 24.7615 9.71969 24.7518 9.72547C24.7691 9.97491 24.7301 10.225 24.6376 10.4581C24.9191 10.9685 25.1598 11.4993 25.3575 12.0459C25.5153 12.2273 25.6316 12.4395 25.6984 12.6684C25.7653 12.8972 25.7812 13.1374 25.7452 13.3728C25.9199 14.1468 26.0084 14.937 26.0092 15.7296C26.0009 18.471 24.917 21.1051 22.9803 23.0901C22.8464 23.402 22.6422 23.6805 22.3828 23.9046L22.3384 23.9301L22.2819 23.9502L22.2312 23.9586C22.1644 23.957 22.0978 23.9527 22.0315 23.9455C21.3274 24.5039 20.5526 24.9714 19.7261 25.3363C19.5276 25.6129 19.2706 25.8446 18.9726 26.0159L18.9237 26.0326L18.8614 26.0421L18.8103 26.0406C18.6239 25.9999 18.4433 25.9376 18.272 25.8551C18.0849 25.9068 17.8965 25.9533 17.7068 25.9945C17.0529 26.1361 16.3915 26.2272 15.752 26.3152C13.4644 26.6305 11.3086 26.9263 10.7979 29.4194C10.7847 29.4818 10.7842 29.546 10.7966 29.6086C10.8089 29.6711 10.8338 29.7306 10.8698 29.7837C10.9058 29.8368 10.9522 29.8824 11.0063 29.9179C11.0604 29.9534 11.1212 29.9781 11.1851 29.9906C11.2491 30.0031 11.3149 30.0031 11.3789 29.9907C11.4428 29.9782 11.5036 29.9535 11.5578 29.9181C11.6119 29.8826 11.6583 29.837 11.6944 29.7839C11.7304 29.7309 11.7553 29.6714 11.7677 29.6088C12.141 27.787 13.7109 27.5711 15.8839 27.2723C16.5449 27.1813 17.2272 27.0874 17.9209 26.9374C18.7684 26.7529 19.5914 26.474 20.3738 26.1063ZM5.17711 8.22691L5.16675 8.22126L5.16971 8.22336L5.1685 8.22507L5.17711 8.22691ZM5.13499 8.19616C5.32056 8.14467 6.05003 7.90018 6.26883 7.21744C6.48104 6.55624 5.98342 5.41422 5.7844 5C5.41219 5.31621 4.56968 6.10813 4.49002 6.85932C4.41453 7.57122 4.98549 8.07793 5.13499 8.19616ZM2.85318 10.1837C3.39049 10.6126 4.08202 10.4369 4.2587 10.3814C4.31563 10.2088 4.49567 9.53393 4.05618 9.0091C3.63648 8.50804 2.47155 8.29798 2.02614 8.234C2.08979 8.69039 2.29312 9.73677 2.85318 10.1837ZM4.30836 10.363C4.30476 10.3646 4.30126 10.3663 4.29786 10.3683L4.30136 10.367L4.3023 10.3689L4.30836 10.363ZM5.8393 9.00923C5.67891 9.19771 5.57492 9.42576 5.53881 9.66825C5.5027 9.91074 5.53585 10.1583 5.63463 10.3835C5.86538 10.4799 6.1189 10.5123 6.36727 10.477C6.61564 10.4417 6.84923 10.3402 7.04231 10.1837C7.55366 9.77526 7.79305 8.6251 7.86908 8.17436C7.41317 8.25712 6.25726 8.51014 5.8393 9.00923ZM1.64209 13.4117C2.21117 13.8846 2.97671 13.708 3.16348 13.6546C3.22606 13.4743 3.43826 12.735 2.97711 12.1605C2.53009 11.6038 1.25926 11.3532 0.79151 11.278C0.847892 11.7628 1.0414 12.9124 1.64209 13.4117ZM3.21246 13.6374C3.20894 13.6389 3.20549 13.6406 3.2021 13.6425L3.2056 13.6413L3.20641 13.6431L3.21246 13.6374ZM6.15943 13.5016C6.72716 13.0672 7.01082 11.8122 7.10004 11.3386C6.61776 11.4152 5.34532 11.6628 4.87797 12.1983C4.69968 12.3995 4.58186 12.645 4.53755 12.9075C4.49323 13.17 4.52415 13.4394 4.62687 13.6858C4.87487 13.7961 5.14929 13.8373 5.41977 13.8048C5.69025 13.7723 5.94624 13.6674 6.15943 13.5016ZM1.45855 17.5573C2.18977 17.9151 2.95127 17.5276 3.12607 17.4269C3.14464 17.2299 3.17923 16.392 2.53547 15.8991C1.91472 15.4238 0.497755 15.4852 0 15.5235C0.18247 16.0094 0.689779 17.1807 1.45855 17.5573ZM3.16469 17.4066L3.16981 17.3987C3.16631 17.4014 3.16308 17.4041 3.16012 17.4068L3.16321 17.4049L3.16469 17.4066ZM4.64571 17.0968C4.93614 17.1511 5.2363 17.1257 5.51285 17.0235C5.7894 16.9213 6.03152 16.7463 6.21232 16.5178C6.69783 15.9135 6.65934 14.5078 6.62772 14.0018C6.15391 14.1977 4.86613 14.7808 4.51384 15.4665C4.37928 15.7235 4.32037 16.012 4.34365 16.2998C4.36693 16.5876 4.47149 16.8635 4.64571 17.0968ZM4.1345 21.3011C4.12401 21.0952 4.03089 20.1852 3.25404 19.753C2.50721 19.3372 0.986225 19.6299 0.475283 19.7454C0.743066 20.2278 1.4786 21.4155 2.36767 21.7011C3.21758 21.9743 3.97114 21.4313 4.1345 21.3011ZM4.16895 21.2755L4.17299 21.2667C4.16993 21.2698 4.16705 21.273 4.16437 21.2764L4.1672 21.2739L4.16895 21.2755ZM5.68334 20.7216C6.00338 20.735 6.32095 20.6615 6.60081 20.5094C6.88067 20.3572 7.11188 20.1323 7.26878 19.8597C7.6928 19.1336 7.4168 17.6198 7.30269 17.0981C6.83993 17.3724 5.54084 18.2005 5.27319 18.9942C5.17083 19.2906 5.15478 19.609 5.22682 19.9138C5.29885 20.2186 5.45615 20.4979 5.68119 20.7206L5.68334 20.7216ZM5.11534 22.7991C4.27189 22.4027 2.63935 22.8374 2.11294 22.9954C2.43118 23.487 3.31837 24.7278 4.30513 24.9727C5.25166 25.2071 6.02487 24.5572 6.18392 24.4098C6.15943 24.1973 5.99567 23.2135 5.11534 22.7991ZM6.21581 24.3825L6.21945 24.3729C6.21646 24.3763 6.21367 24.3799 6.2111 24.3836L6.2138 24.3807L6.21581 24.3825ZM7.78215 23.6801L7.78834 23.6822C8.13508 23.6741 8.4727 23.5721 8.76349 23.3875C9.05429 23.203 9.28682 22.9431 9.43514 22.637C9.83978 21.8173 9.41698 20.1894 9.25846 19.6507C8.79313 19.9703 7.4386 20.9644 7.2089 21.846C7.12106 22.1736 7.12814 22.5185 7.22936 22.8424C7.33058 23.1662 7.52195 23.4563 7.78215 23.6801ZM9.68409 26.7906L9.68624 26.7918L9.68785 26.7818C9.68572 26.7857 9.68374 26.7897 9.68193 26.7938L9.68409 26.7906ZM8.22217 25.3702C7.26502 25.1259 5.66181 25.906 5.16056 26.1691C5.58524 26.6083 6.76269 27.7218 7.83597 27.7797C8.87078 27.8333 9.53149 27.0035 9.66067 26.8243C9.59366 26.6146 9.22347 25.6254 8.22217 25.3702ZM11.1444 25.7637L11.1538 25.7651C11.5105 25.6883 11.8382 25.5161 12.1004 25.2679C12.3626 25.0197 12.5489 24.7051 12.6385 24.3595C12.8874 23.4282 12.1049 21.823 11.8339 21.3083C11.4271 21.7223 10.2249 23.0225 10.1705 23.9824C10.1478 24.3383 10.2268 24.6933 10.3988 25.0079C10.5707 25.3224 10.8289 25.5841 11.1444 25.7637ZM24.9165 8.20799C24.9126 8.20734 24.9086 8.20694 24.9046 8.2068L24.9082 8.20746V8.2097L24.9165 8.20799ZM24.865 8.19616C25.0146 8.07727 25.5855 7.57083 25.51 6.85945C25.4303 6.108 24.5878 5.31608 24.2156 5C24.0166 5.41422 23.519 6.55624 23.7312 7.21744C23.95 7.90058 24.6794 8.14506 24.865 8.19616ZM27.1468 10.1837C27.7069 9.73703 27.9102 8.69039 27.9739 8.23452C27.5284 8.29811 26.3635 8.50817 25.9438 9.00962C25.5043 9.53446 25.6842 10.2093 25.7413 10.3819C25.918 10.437 26.6095 10.6126 27.1468 10.1837ZM25.7597 10.4288L25.7547 10.4195L25.7561 10.4231L25.7545 10.4237L25.7597 10.4288Z" fill="#AE194A"/>
<path d="M22.9576 10.1845C23.1506 10.3411 23.3842 10.4426 23.6326 10.4779C23.881 10.5131 24.1345 10.4808 24.3652 10.3843C24.464 10.1591 24.4972 9.91157 24.4611 9.66908C24.425 9.42659 24.3211 9.19853 24.1607 9.01005C23.7423 8.51083 22.5863 8.25767 22.1311 8.1753C22.2071 8.62618 22.4465 9.7766 22.9576 10.1845ZM26.8555 13.7029C26.8537 13.6994 26.8517 13.6961 26.8498 13.6928L26.8512 13.6962L26.8492 13.6972L26.8555 13.7029ZM27.0229 12.1613C26.5617 12.7355 26.7739 13.475 26.8365 13.6554C27.0233 13.709 27.7887 13.8859 28.3579 13.4125C28.9582 12.9133 29.1518 11.7637 29.2085 11.2789C28.7406 11.3543 27.4694 11.6052 27.0229 12.1613ZM22.9004 11.3393C22.9896 11.8129 23.2738 13.0684 23.8408 13.5025C24.054 13.6682 24.3101 13.7732 24.5806 13.8056C24.8511 13.8381 25.1256 13.7968 25.3735 13.6864C25.4763 13.4399 25.5072 13.1706 25.4629 12.908C25.4185 12.6455 25.3007 12.4001 25.1224 12.1989C24.6545 11.6631 23.3826 11.4156 22.9004 11.3393ZM26.8741 17.428C27.049 17.5285 27.8106 17.9165 28.5415 17.5582C29.3102 17.1817 29.8175 16.0104 30 15.5246C29.5021 15.4865 28.0854 15.4248 27.4645 15.9001C26.821 16.3928 26.8555 17.2306 26.8741 17.428ZM26.8816 17.4781C26.8807 17.4743 26.8796 17.4705 26.8784 17.4668V17.4703H26.8762L26.8816 17.4781ZM25.3543 17.0976C25.5285 16.8643 25.633 16.5884 25.6563 16.3006C25.6796 16.0128 25.6207 15.7244 25.4862 15.4673C25.1339 14.7816 23.8461 14.1985 23.3723 14.0026C23.3409 14.5086 23.3027 15.915 23.7877 16.5186C23.9685 16.7471 24.2106 16.9222 24.4871 17.0244C24.7637 17.1266 25.0639 17.1519 25.3543 17.0976ZM26.7461 19.7538C25.9688 20.1863 25.8761 21.0962 25.8656 21.3019C26.0289 21.4322 26.7827 21.9753 27.6325 21.7018C28.5215 21.4162 29.2571 20.2285 29.5249 19.7461C29.0135 19.6306 27.4928 19.3374 26.7461 19.7538ZM25.8659 21.3529C25.8659 21.3483 25.865 21.344 25.8643 21.3398V21.3436H25.8617L25.8659 21.3529ZM22.6974 17.0989C22.584 17.6206 22.3072 19.1344 22.7313 19.8605C22.888 20.1333 23.1192 20.3584 23.3991 20.5105C23.679 20.6627 23.9967 20.7361 24.3168 20.7224L24.3189 20.7215C24.544 20.4988 24.7013 20.2195 24.7733 19.9147C24.8454 19.6099 24.8293 19.2916 24.7269 18.9952C24.4592 18.2011 23.1599 17.3731 22.6974 17.0989ZM23.8098 24.4513L23.8133 24.4608C23.8133 24.4562 23.8133 24.4517 23.8124 24.4476V24.4516L23.8098 24.4513ZM24.8848 22.8C24.0045 23.2142 23.841 24.1978 23.8162 24.4105C23.9753 24.5579 24.7485 25.208 25.695 24.9735C26.6818 24.7286 27.569 23.4878 27.8872 22.9964C27.3601 22.8382 25.7274 22.4035 24.8848 22.8ZM22.2117 23.6832L22.2179 23.6811C22.4782 23.4573 22.6698 23.1672 22.7711 22.8432C22.8724 22.5193 22.8795 22.1742 22.7916 21.8466C22.5618 20.964 21.2073 19.9707 20.7421 19.6512C20.5836 20.1899 20.1608 21.8178 20.5655 22.6376C20.7137 22.9437 20.9461 23.2035 21.2368 23.3882C21.5275 23.5728 21.865 23.6749 22.2117 23.6832ZM21.7778 25.3711C20.7767 25.6262 20.4065 26.6157 20.3393 26.825C20.4688 27.0043 21.1303 27.8331 22.164 27.7804C23.237 27.7225 24.4148 26.6091 24.8394 26.1698C24.3381 25.9069 22.7344 25.1278 21.7778 25.3711ZM20.3251 26.8635L20.3267 26.8737C20.3275 26.8694 20.3282 26.865 20.3286 26.8606L20.3276 26.8644L20.3251 26.8635ZM17.3615 24.3605C17.4512 24.7062 17.6375 25.0207 17.8996 25.269C18.1618 25.5172 18.4896 25.6894 18.8462 25.7662L18.8558 25.7648C19.1711 25.5851 19.4292 25.3235 19.6011 25.009C19.7731 24.6945 19.8521 24.3396 19.8295 23.9838C19.7756 23.023 18.573 21.7234 18.1662 21.3097C17.8952 21.8243 17.113 23.43 17.3615 24.3605Z" fill="#AE194A"/>
<path fill-rule="evenodd" clip-rule="evenodd" d="M19.1799 0H10.7647L10.5454 0.701748C9.91538 2.71809 9.45087 4.4516 9.18959 5.91838C8.93051 7.37287 8.85651 8.6412 9.06691 9.69567C9.28535 10.7905 9.81799 11.6769 10.7424 12.2544C11.6213 12.8034 12.74 13 14 13V17.6635C13.252 17.721 12.5043 17.8431 11.7575 18.0299L10.7874 18.2724L11.2724 20.2127L12.2426 19.9701C14.0833 19.51 15.9167 19.51 17.7575 19.9701L18.7276 20.2127L19.2127 18.2724L18.2426 18.0299C17.4957 17.8431 16.748 17.721 16 17.6635V12.9999C17.2375 12.9941 18.3362 12.7953 19.2022 12.2544C20.1266 11.6769 20.6592 10.7905 20.8777 9.69567C21.0881 8.6412 21.0141 7.37287 20.755 5.91838C20.4937 4.4516 20.0292 2.71809 19.3992 0.701748L19.1799 0ZM18.786 6.26912C18.9463 7.16938 19.0124 7.90424 18.9982 8.5C17.4152 8.95251 16.3438 8.58596 15.3158 8.23427C14.3046 7.88831 13.3354 7.55674 11.9627 8.03338C11.9098 8.48246 11.945 8.9203 12.2477 9.25982C12.5667 9.6176 13.3021 10 15 10V11C13.1979 11 12.1039 10.6013 11.5013 9.9253C11.0086 9.37269 10.9231 8.72333 10.9457 8.20591C10.9555 7.66697 11.0237 7.02659 11.1586 6.26912C11.3694 5.08543 11.7324 3.67292 12.2385 2H17.7061C18.2122 3.67292 18.5751 5.08543 18.786 6.26912Z" fill="#AE194A"/>
</svg>
