<svg width="30" height="30" viewBox="0 0 30 30" fill="none" xmlns="http://www.w3.org/2000/svg">
<path d="M19.2574 27.2869C23.7011 25.7474 27.0507 21.8651 27.8284 17.1176L29.7062 17.969C28.6363 23.2977 24.7428 27.6053 19.6529 29.2644L19.2574 27.2869Z" fill="#62A50D"/>
<path d="M10.7426 27.2869C5.65381 25.5239 2 20.6887 2 15.0001C2 14.3557 2.04688 13.7223 2.13742 13.103L0.0311767 14.0251C0.0104983 14.3474 0 14.6725 0 15.0001C0 21.6602 4.34055 27.3065 10.3471 29.2644L10.7426 27.2869Z" fill="#62A50D"/>
<path d="M14.9997 25L15.8933 26.5341L17.6284 26.9098L16.4455 28.2337L16.6243 30L14.9997 29.2841L13.3752 30L13.554 28.2337L12.3711 26.9098L14.1062 26.5341L14.9997 25Z" fill="#62A50D"/>
<path d="M16.6834 7.94357C14.128 7.94357 12.0564 5.87201 12.0564 3.3166C12.0564 2.01589 12.5931 0.840634 13.4571 0C11.4448 0.697296 10 2.60939 10 4.85892C10 7.69825 12.3017 10 15.1411 10C17.3906 10 19.3027 8.5552 20 6.54289C19.1594 7.40687 17.9841 7.94357 16.6834 7.94357Z" fill="#62A50D"/>
<path d="M9.20455 23.4915C8.74432 23.4915 8.34943 23.3968 8.01989 23.2074C7.69223 23.018 7.44034 22.7547 7.2642 22.4176C7.08807 22.0786 7 21.6866 7 21.2415C7 20.7945 7.08807 20.4025 7.2642 20.0653C7.44223 19.7263 7.69508 19.4621 8.02273 19.2727C8.35227 19.0833 8.74527 18.9886 9.2017 18.9886C9.60511 18.9886 9.95644 19.0616 10.2557 19.2074C10.5568 19.3532 10.7917 19.5597 10.9602 19.8267C11.1307 20.0919 11.2206 20.4034 11.2301 20.7614H9.93182C9.9053 20.5379 9.82955 20.3627 9.70455 20.2358C9.58144 20.1089 9.42045 20.0455 9.22159 20.0455C9.06061 20.0455 8.91951 20.0909 8.7983 20.1818C8.67708 20.2708 8.58239 20.4034 8.5142 20.5795C8.44792 20.7538 8.41477 20.9697 8.41477 21.2273C8.41477 21.4848 8.44792 21.7027 8.5142 21.8807C8.58239 22.0568 8.67708 22.1903 8.7983 22.2812C8.91951 22.3703 9.06061 22.4148 9.22159 22.4148C9.35038 22.4148 9.46402 22.3873 9.5625 22.3324C9.66288 22.2775 9.74527 22.197 9.80966 22.0909C9.87405 21.983 9.91477 21.8523 9.93182 21.6989H11.2301C11.2169 22.0587 11.1269 22.3731 10.9602 22.642C10.7955 22.911 10.5634 23.1203 10.2642 23.2699C9.96686 23.4176 9.61364 23.4915 9.20455 23.4915Z" fill="#62A50D"/>
<path d="M13.9808 23.4915C13.5244 23.4915 13.1304 23.4015 12.799 23.2216C12.4695 23.0398 12.2157 22.7813 12.0376 22.446C11.8615 22.1089 11.7734 21.7083 11.7734 21.2443C11.7734 20.7936 11.8625 20.3996 12.0405 20.0625C12.2185 19.7235 12.4695 19.4602 12.7933 19.2727C13.1172 19.0833 13.4988 18.9886 13.9382 18.9886C14.2488 18.9886 14.5329 19.0369 14.7905 19.1335C15.0481 19.2301 15.2706 19.3731 15.4581 19.5625C15.6456 19.7519 15.7914 19.9858 15.8956 20.2642C15.9998 20.5407 16.0518 20.858 16.0518 21.2159V21.5625H12.2592V20.7557H14.7592C14.7573 20.608 14.7223 20.4763 14.6541 20.3608C14.5859 20.2453 14.4922 20.1553 14.3729 20.0909C14.2554 20.0246 14.12 19.9915 13.9666 19.9915C13.8113 19.9915 13.6721 20.0265 13.549 20.0966C13.4259 20.1648 13.3284 20.2585 13.2564 20.3778C13.1844 20.4953 13.1465 20.6288 13.1428 20.7784V21.5994C13.1428 21.7775 13.1778 21.9337 13.2479 22.0682C13.3179 22.2008 13.4174 22.304 13.5462 22.3778C13.675 22.4517 13.8284 22.4886 14.0064 22.4886C14.1295 22.4886 14.2412 22.4716 14.3416 22.4375C14.442 22.4034 14.5282 22.3532 14.6001 22.2869C14.6721 22.2206 14.7261 22.1392 14.7621 22.0426L16.0376 22.0795C15.9846 22.3655 15.8681 22.6146 15.6882 22.8267C15.5102 23.0369 15.2763 23.2008 14.9865 23.3182C14.6967 23.4337 14.3615 23.4915 13.9808 23.4915Z" fill="#62A50D"/>
<path d="M16.7614 23.4091V19.0455H18.1108V19.8409H18.1562C18.2358 19.553 18.3655 19.339 18.5455 19.1989C18.7254 19.0568 18.9347 18.9858 19.1733 18.9858C19.2377 18.9858 19.304 18.9905 19.3722 19C19.4403 19.0076 19.5038 19.0199 19.5625 19.0369V20.2443C19.4962 20.2216 19.4091 20.2036 19.3011 20.1903C19.1951 20.1771 19.1004 20.1705 19.017 20.1705C18.8523 20.1705 18.7036 20.2074 18.571 20.2812C18.4403 20.3532 18.3371 20.4545 18.2614 20.5852C18.1875 20.714 18.1506 20.8655 18.1506 21.0398V23.4091H16.7614Z" fill="#62A50D"/>
<path d="M22.7947 19.0455V20.0682H20.0419V19.0455H22.7947ZM20.6186 18H22.0078V22.0369C22.0078 22.1222 22.0211 22.1913 22.0476 22.2443C22.076 22.2955 22.1167 22.3324 22.1697 22.3551C22.2228 22.3759 22.547 22.3964 22.8176 22.3551C22.9532 22.9261 22.539 23.358 22.1641 23.4716C21.8383 23.4867 21.5589 23.4489 21.326 23.358C21.0949 23.2652 20.9179 23.1212 20.7947 22.9261C20.6735 22.7311 20.6148 22.4858 20.6186 22.1903V18Z" fill="#62A50D"/>
<path d="M9.44043 17.9999V12.1818H11.8666C12.3022 12.1818 12.6668 12.2433 12.9603 12.3664C13.2558 12.4895 13.4774 12.6619 13.6251 12.8835C13.7747 13.1051 13.8495 13.3617 13.8495 13.6534C13.8495 13.8749 13.8031 14.0729 13.7103 14.2471C13.6175 14.4195 13.4897 14.5624 13.3268 14.6761C13.1639 14.7897 12.9755 14.8693 12.7615 14.9147V14.9715C12.9963 14.9829 13.2132 15.0463 13.412 15.1619C13.6128 15.2774 13.7738 15.4384 13.895 15.6448C14.0162 15.8494 14.0768 16.0918 14.0768 16.3721C14.0768 16.6846 13.9972 16.964 13.8382 17.2102C13.6791 17.4545 13.449 17.6477 13.1478 17.7897C12.8467 17.9299 12.4811 17.9999 12.0512 17.9999H9.44043ZM10.8467 16.8664H11.716C12.0209 16.8664 12.2454 16.8087 12.3893 16.6931C12.5351 16.5776 12.608 16.4166 12.608 16.2102C12.608 16.0606 12.573 15.9318 12.5029 15.8238C12.4329 15.714 12.3334 15.6297 12.2046 15.571C12.0758 15.5104 11.9215 15.4801 11.7416 15.4801H10.8467V16.8664ZM10.8467 14.5738H11.6251C11.7785 14.5738 11.9149 14.5482 12.0342 14.4971C12.1535 14.446 12.2463 14.3721 12.3126 14.2755C12.3808 14.1789 12.4149 14.0624 12.4149 13.9261C12.4149 13.731 12.3457 13.5776 12.2075 13.4659C12.0692 13.3541 11.8827 13.2982 11.6478 13.2982H10.8467V14.5738Z" fill="#62A50D"/>
<path d="M16.9035 17.9999H14.7529V12.1818H16.9007C17.4935 12.1818 18.0039 12.2982 18.4319 12.5312C18.8618 12.7623 19.1933 13.0956 19.4262 13.5312C19.6592 13.9649 19.7757 14.4838 19.7757 15.088C19.7757 15.6941 19.6592 16.2149 19.4262 16.6505C19.1952 17.0861 18.8647 17.4204 18.4347 17.6534C18.0048 17.8844 17.4944 17.9999 16.9035 17.9999ZM16.1592 16.8011H16.8495C17.1753 16.8011 17.4508 16.7462 17.6762 16.6363C17.9035 16.5246 18.0749 16.3437 18.1904 16.0937C18.3079 15.8418 18.3666 15.5066 18.3666 15.088C18.3666 14.6695 18.3079 14.3361 18.1904 14.088C18.073 13.838 17.8997 13.6581 17.6705 13.5482C17.4433 13.4365 17.163 13.3806 16.8296 13.3806H16.1592V16.8011Z" fill="#62A50D"/>
<path d="M4 5L5.01976 6.75081L7 7.17963L5.65 8.6905L5.8541 10.7063L4 9.8893L2.1459 10.7063L2.35 8.6905L1 7.17963L2.98024 6.75081L4 5Z" fill="#62A50D"/>
<path d="M18 0L18.6798 1.16721L20 1.45309L19.1 2.46034L19.2361 3.80423L18 3.25953L16.7639 3.80423L16.9 2.46034L16 1.45309L17.3202 1.16721L18 0Z" fill="#62A50D"/>
<path d="M26 7L27.3597 9.33442L30 9.90617L28.2 11.9207L28.4721 14.6085L26 13.5191L23.5279 14.6085L23.8 11.9207L22 9.90617L24.6403 9.33442L26 7Z" fill="#62A50D"/>
</svg>
