<svg width="30" height="30" viewBox="0 0 30 30" fill="none" xmlns="http://www.w3.org/2000/svg">
<path d="M19.2574 27.2869C23.7011 25.7474 27.0507 21.8651 27.8284 17.1176L29.7062 17.969C28.6363 23.2977 24.7428 27.6053 19.6529 29.2644L19.2574 27.2869Z" fill="#62A50D"/>
<path d="M10.7426 27.2869C5.65381 25.5239 2 20.6887 2 15.0001C2 14.3557 2.04688 13.7223 2.13742 13.103L0.0311767 14.0251C0.0104983 14.3474 0 14.6725 0 15.0001C0 21.6602 4.34055 27.3065 10.3471 29.2644L10.7426 27.2869Z" fill="#62A50D"/>
<path d="M16.6834 7.94357C14.128 7.94357 12.0564 5.87201 12.0564 3.3166C12.0564 2.01589 12.5931 0.840634 13.4571 0C11.4448 0.697296 10 2.60939 10 4.85892C10 7.69825 12.3017 10 15.1411 10C17.3906 10 19.3027 8.5552 20 6.54289C19.1594 7.40687 17.9841 7.94357 16.6834 7.94357Z" fill="#62A50D"/>
<path d="M4 5L5.01976 6.75081L7 7.17963L5.65 8.6905L5.8541 10.7063L4 9.8893L2.1459 10.7063L2.35 8.6905L1 7.17963L2.98024 6.75081L4 5Z" fill="#62A50D"/>
<path d="M15.0002 25L15.8938 26.5341L17.6289 26.9098L16.446 28.2337L16.6248 30L15.0002 29.2841L13.3756 30L13.5545 28.2337L12.3716 26.9098L14.1067 26.5341L15.0002 25Z" fill="#62A50D"/>
<path d="M18 0L18.6798 1.16721L20 1.45309L19.1 2.46034L19.2361 3.80423L18 3.25953L16.7639 3.80423L16.9 2.46034L16 1.45309L17.3202 1.16721L18 0Z" fill="#62A50D"/>
<path d="M26 7L27.3597 9.33442L30 9.90617L28.2 11.9207L28.4721 14.6085L26 13.5191L23.5279 14.6085L23.8 11.9207L22 9.90617L24.6403 9.33442L26 7Z" fill="#62A50D"/>
<path d="M9 21.2727V14H12.0327C12.5772 14 13.0329 14.0769 13.3999 14.2308C13.7692 14.3847 14.0462 14.6001 14.2308 14.8771C14.4179 15.1541 14.5114 15.4749 14.5114 15.8395C14.5114 16.1165 14.4534 16.3639 14.3374 16.5817C14.2214 16.7971 14.0616 16.9759 13.858 17.1179C13.6544 17.2599 13.4188 17.3594 13.1513 17.4162V17.4872C13.4448 17.5014 13.7159 17.5807 13.9645 17.7251C14.2154 17.8696 14.4167 18.0708 14.5682 18.3288C14.7197 18.5845 14.7955 18.8875 14.7955 19.2379C14.7955 19.6286 14.696 19.9777 14.4972 20.2855C14.2983 20.5909 14.0107 20.8324 13.6342 21.0099C13.2578 21.1851 12.8009 21.2727 12.2635 21.2727H9ZM10.7578 19.8558H11.8445C12.2256 19.8558 12.5062 19.7836 12.6861 19.6392C12.8684 19.4948 12.9595 19.2936 12.9595 19.0355C12.9595 18.8485 12.9157 18.6875 12.8281 18.5526C12.7405 18.4152 12.6162 18.3099 12.4553 18.2365C12.2943 18.1607 12.1013 18.1229 11.8764 18.1229H10.7578V19.8558ZM10.7578 16.9901H11.7308C11.9226 16.9901 12.093 16.9581 12.2422 16.8942C12.3913 16.8303 12.5073 16.7379 12.5902 16.6172C12.6754 16.4964 12.718 16.3509 12.718 16.1804C12.718 15.9366 12.6316 15.7448 12.4588 15.6051C12.286 15.4654 12.0528 15.3956 11.7592 15.3956H10.7578V16.9901Z" fill="#62A50D"/>
<path d="M18.3288 21.2727H15.6406V14H18.3253C19.0663 14 19.7043 14.1456 20.2393 14.4368C20.7768 14.7256 21.1911 15.1423 21.4822 15.6868C21.7734 16.2289 21.919 16.8776 21.919 17.6328C21.919 18.3904 21.7734 19.0414 21.4822 19.5859C21.1934 20.1304 20.7803 20.5483 20.2429 20.8395C19.7055 21.1283 19.0675 21.2727 18.3288 21.2727ZM17.3984 19.7741H18.2614C18.6686 19.7741 19.013 19.7055 19.2947 19.5682C19.5788 19.4285 19.7931 19.2024 19.9375 18.8899C20.0843 18.575 20.1577 18.156 20.1577 17.6328C20.1577 17.1096 20.0843 16.6929 19.9375 16.3828C19.7907 16.0703 19.5741 15.8454 19.2876 15.7081C19.0036 15.5684 18.6532 15.4986 18.2365 15.4986H17.3984V19.7741Z" fill="#62A50D"/>
</svg>
