<svg width="14" height="18" viewBox="0 0 14 18" fill="none" xmlns="http://www.w3.org/2000/svg">
<path d="M9.24675 13.8C9.25007 13.8 9.34775 14.1295 9.34775 14.5207C9.34775 15.89 8.29692 17 7.00068 17C5.42727 17 4.29797 15.3934 4.75429 13.8H4.75461" stroke="#AE194A" stroke-miterlimit="10" stroke-linecap="round" stroke-linejoin="round"/>
<path d="M2.30933 10.0667C1.48065 11.7681 2.68703 13.8 4.57288 13.8C5.33323 13.8 6.01497 13.4567 6.47824 12.9136" stroke="#AE194A" stroke-miterlimit="10" stroke-linecap="round" stroke-linejoin="round"/>
<path d="M5.17391 9.15144C4.74566 9.70893 4.08231 10.0668 3.33728 10.0668C2.04644 10.0668 1 8.99226 1 7.66679C1 6.34133 2.04644 5.26681 3.33728 5.26681C4.08231 5.26681 4.74566 5.62465 5.17391 6.18214" stroke="#AE194A" stroke-miterlimit="10" stroke-linecap="round" stroke-linejoin="round"/>
<path d="M11.1612 10.0667C11.9689 11.6737 10.9028 13.6089 9.08553 13.7871C8.08326 13.8868 7.11269 13.4068 6.58996 12.5475C6.13355 11.7954 6.09992 10.874 6.47024 10.1064" stroke="#AE194A" stroke-miterlimit="10" stroke-linecap="round" stroke-linejoin="round"/>
<path d="M8.82605 9.15144C9.25401 9.70893 9.91742 10.0668 10.6625 10.0668C11.9534 10.0668 13 8.99226 13 7.66679C13 6.34133 11.9534 5.26681 10.6625 5.26681C9.91742 5.26681 9.25401 5.62465 8.82605 6.18214" stroke="#AE194A" stroke-miterlimit="10" stroke-linecap="round" stroke-linejoin="round"/>
<path d="M4.6521 7.66679C4.6521 8.99226 5.70324 10.0668 6.99994 10.0668C8.29661 10.0668 9.34775 8.99226 9.34775 7.66679C9.34775 6.34133 8.29661 5.26681 6.99994 5.26681C5.70324 5.26681 4.6521 6.34133 4.6521 7.66679Z" stroke="#AE194A" stroke-miterlimit="10" stroke-linecap="round" stroke-linejoin="round"/>
<path d="M6.73914 5.2666C6.76053 2.33675 9.86957 2.06663 9.86957 2.06663" stroke="#AE194A" stroke-miterlimit="10" stroke-linecap="round" stroke-linejoin="round"/>
<path d="M6.71386 5.2666C7.03081 2.05497 4.26858 0.999968 4.26858 0.999968C4.26858 0.999968 3.2562 3.78255 6.71386 5.2666Z" stroke="#AE194A" stroke-miterlimit="10" stroke-linecap="round" stroke-linejoin="round"/>
</svg>
