<svg width="13" height="13" viewBox="0 0 13 13" fill="none" xmlns="http://www.w3.org/2000/svg">
<path fill-rule="evenodd" clip-rule="evenodd" d="M12.8218 8.01805L10.8767 7.55268C10.957 7.21696 11 6.86482 11 6.5C11 6.13518 10.957 5.78304 10.8767 5.44732L12.8218 4.98195C12.9383 5.46896 13 5.97728 13 6.5C13 7.02272 12.9383 7.53104 12.8218 8.01805ZM12.043 3.10336L10.3387 4.14995C9.96694 3.54457 9.45543 3.03306 8.85005 2.6613L9.89664 0.957002C10.7699 1.49326 11.5067 2.2301 12.043 3.10336ZM8.01805 0.178223L7.55268 2.12333C7.21696 2.04301 6.86482 2 6.5 2C6.13518 2 5.78304 2.04301 5.44732 2.12333L4.98195 0.178223C5.46896 0.0617031 5.97728 0 6.5 0C7.02272 0 7.53104 0.0617032 8.01805 0.178223ZM3.10336 0.957002L4.14995 2.6613C3.54457 3.03306 3.03306 3.54457 2.6613 4.14995L0.957002 3.10336C1.49326 2.2301 2.2301 1.49326 3.10336 0.957002ZM0.178223 4.98195C0.0617032 5.46896 0 5.97728 0 6.5C0 7.02272 0.0617031 7.53104 0.178223 8.01805L2.12333 7.55268C2.04301 7.21696 2 6.86482 2 6.5C2 6.13518 2.04301 5.78304 2.12333 5.44732L0.178223 4.98195ZM0.957002 9.89664L2.6613 8.85005C3.03306 9.45543 3.54457 9.96694 4.14995 10.3387L3.10336 12.043C2.2301 11.5067 1.49326 10.7699 0.957002 9.89664ZM4.98195 12.8218L5.44732 10.8767C5.78304 10.957 6.13518 11 6.5 11C6.86482 11 7.21696 10.957 7.55268 10.8767L8.01805 12.8218C7.53104 12.9383 7.02272 13 6.5 13C5.97728 13 5.46896 12.9383 4.98195 12.8218ZM9.89664 12.043L8.85005 10.3387C9.45543 9.96694 9.96694 9.45543 10.3387 8.85005L12.043 9.89664C11.5067 10.7699 10.7699 11.5067 9.89664 12.043Z" fill="#AE194A"/>
</svg>
