<svg width="7" height="17" viewBox="0 0 7 17" fill="none" xmlns="http://www.w3.org/2000/svg">
<path d="M4.5 0.5L4.5 4.5L2.5 4.5L2.5 0.5L4.5 0.5Z" stroke="#AE194A"/>
<path d="M2.49999 2C2.49999 2 2.49999 3.65 2.49999 5C2.49999 6.35 0.499999 9.5173 0.499999 11M0.499999 11C0.499999 12.0111 0.499999 16 0.499999 16M0.499999 11L0.499999 16M0.499999 16C0.499999 16 0.499999 16.5 0.999999 16.5M0.999999 16.5C0.999999 16.5 3 16.5 3.5 16.5L0.999999 16.5Z" stroke="#AE194A"/>
<path d="M4.50001 2C4.50001 2 4.50001 3.65 4.50001 5C4.50001 6.35 6.5 9.5173 6.5 11M6.5 11C6.5 12.0111 6.5 16 6.5 16M6.5 11L6.5 16M6.5 16C6.5 16 6.5 16.5 6 16.5M6 16.5C6 16.5 4 16.5 3.5 16.5L6 16.5Z" stroke="#AE194A"/>
<path d="M6 10.5H2.5V14.5H6" stroke="#AE194A"/>
</svg>
