<svg width="27" height="27" viewBox="0 0 27 27" fill="none" xmlns="http://www.w3.org/2000/svg">
<path d="M24.1071 0C25.6741 0 27 1.32589 27 2.89286V24.1071C27 25.7344 25.6741 27 24.1071 27H15.7902V17.8393H19.2857L19.9487 13.5H15.7902V10.7277C15.7902 9.52232 16.3929 8.37723 18.2612 8.37723H20.1295V4.70089C20.1295 4.70089 18.442 4.39955 16.7545 4.39955C13.3795 4.39955 11.1496 6.50893 11.1496 10.2455V13.5H7.35268V17.8393H11.1496V27H2.89286C1.26563 27 0 25.7344 0 24.1071V2.89286C0 1.32589 1.26563 0 2.89286 0H24.1071Z" fill="black"/>
</svg>
