<svg width="24" height="30" viewBox="0 0 24 30" fill="none" xmlns="http://www.w3.org/2000/svg">
<path fill-rule="evenodd" clip-rule="evenodd" d="M8.63654 8.6462C8.77338 8.53621 8.91589 8.43283 9.06354 8.33652C7.08139 7.03445 6.19099 5.43553 5.87847 3.96792C5.65059 2.89782 5.6702 1.68175 6.05774 0.644063C6.25242 0.133294 6.82582 -0.124802 7.33937 0.0624269C8.385 0.450909 9.358 1.13764 10.1499 1.91007C10.817 2.56089 11.4633 3.40685 11.9122 4.4706C12.5091 3.7586 13.2308 3.23587 13.9371 2.8609C14.9219 2.3381 16.0598 1.96422 17.1782 1.87031C17.7286 1.82466 18.2118 2.23384 18.2574 2.78424C18.3051 3.35844 17.857 3.80527 17.309 3.86714C16.467 3.96218 15.6214 4.23114 14.8749 4.62741C13.8711 5.16031 12.9188 6.02006 12.6187 7.5022C13.6503 7.62016 14.5959 8.02938 15.3633 8.64619C16.2764 7.90862 17.4446 7.46703 18.7147 7.46703C21.6147 7.46703 24.0001 9.7763 24.0001 12.667C24.0001 14.7752 22.7315 16.574 20.9198 17.3935C21.7581 20.2102 20.0819 23.1421 17.2725 24.0873C17.6062 27.172 15.1293 30.0003 12.0013 30.0003C8.86295 30.0003 6.52288 27.3142 6.70531 24.3399C3.2098 23.8329 0.999946 20.2277 2.27345 16.9402C0.903077 16.0043 0 14.4457 0 12.667C0 9.77637 2.38518 7.46703 5.28501 7.46703C6.55516 7.46703 7.7233 7.9087 8.63654 8.6462ZM5.28501 9.46703C6.06648 9.46703 6.78117 9.73189 7.3434 10.1729C6.93087 10.9113 6.69556 11.7602 6.69556 12.667C6.69556 13.5738 6.93087 14.4228 7.3434 15.1611C6.78117 15.6022 6.06648 15.867 5.28501 15.867C3.45178 15.867 2 14.4155 2 12.667C2 10.9185 3.45178 9.46703 5.28501 9.46703ZM7.55036 22.4004C4.97138 22.4004 3.33245 19.9301 4.11166 17.7381C5.68437 18.0895 7.37972 17.7028 8.63654 16.6879C8.9837 16.9669 9.36732 17.2034 9.77887 17.3898C9.40018 18.683 9.5237 20.0894 10.1632 21.3254C9.50409 21.9866 8.5799 22.4004 7.55036 22.4004ZM12.092 20.6715C11.5422 19.8062 11.4275 18.7815 11.7265 17.8602C13.0328 17.9256 14.3427 17.5082 15.3633 16.6879C16.3738 17.5041 17.6709 17.9214 18.9671 17.8612C19.617 19.8719 18.2069 22.1502 15.7305 22.382L15.7291 22.3821C14.2466 22.5229 12.8385 21.8425 12.092 20.6715ZM18.7147 15.867C17.9331 15.867 17.2184 15.6021 16.6564 15.1612C17.0689 14.4228 17.3043 13.5738 17.3043 12.667C17.3043 11.7602 17.0689 10.9113 16.6564 10.1729C17.2184 9.73195 17.9331 9.46703 18.7147 9.46703C20.5482 9.46703 22.0001 10.9186 22.0001 12.667C22.0001 14.4155 20.5482 15.867 18.7147 15.867ZM8.71794 24.2815C9.73958 24.0702 10.6608 23.5873 11.3973 22.9122C12.4529 23.8553 13.844 24.3877 15.2934 24.4001C15.4467 26.2933 13.9142 28.0003 12.0013 28.0003C10.0011 28.0003 8.49355 26.224 8.71794 24.2815ZM7.74025 2.52664C7.69641 4.41149 8.90862 5.93261 10.4831 6.86635C10.2302 4.54482 8.79165 3.22366 7.74025 2.52664ZM11.9949 15.9474C13.8319 15.9474 15.321 14.4582 15.321 12.6212C15.321 10.7842 13.8319 9.29501 11.9949 9.29501C10.1579 9.29501 8.6687 10.7842 8.6687 12.6212C8.6687 14.4582 10.1579 15.9474 11.9949 15.9474Z" fill="#AE194A"/>
<path d="M7.3434 10.1729C6.78117 9.73189 6.06648 9.46703 5.28501 9.46703C3.45178 9.46703 2 10.9185 2 12.667C2 14.4155 3.45178 15.867 5.28501 15.867C6.06648 15.867 6.78117 15.6022 7.3434 15.1611C6.93087 14.4228 6.69556 13.5738 6.69556 12.667C6.69556 11.7602 6.93087 10.9113 7.3434 10.1729Z" fill="white"/>
<path d="M11.3973 22.9122C10.6608 23.5873 9.73958 24.0702 8.71794 24.2815C8.49355 26.224 10.0011 28.0003 12.0013 28.0003C13.9142 28.0003 15.4467 26.2933 15.2934 24.4001C13.844 24.3877 12.4529 23.8553 11.3973 22.9122Z" fill="white"/>
<path d="M4.11166 17.7381C3.33245 19.9301 4.97138 22.4004 7.55036 22.4004C8.5799 22.4004 9.50409 21.9866 10.1632 21.3254C9.5237 20.0894 9.40018 18.683 9.77887 17.3898C9.36732 17.2034 8.9837 16.9669 8.63654 16.6879C7.37972 17.7028 5.68437 18.0895 4.11166 17.7381Z" fill="white"/>
<path d="M11.7265 17.8602C11.4275 18.7815 11.5422 19.8062 12.092 20.6715C12.8385 21.8425 14.2466 22.5229 15.7291 22.3821L15.7305 22.382C18.2069 22.1502 19.617 19.8719 18.9671 17.8612C17.6709 17.9214 16.3738 17.5041 15.3633 16.6879C14.3427 17.5082 13.0328 17.9256 11.7265 17.8602Z" fill="white"/>
<path d="M16.6564 15.1612C17.2184 15.6021 17.9331 15.867 18.7147 15.867C20.5482 15.867 22.0001 14.4155 22.0001 12.667C22.0001 10.9186 20.5482 9.46703 18.7147 9.46703C17.9331 9.46703 17.2184 9.73195 16.6564 10.1729C17.0689 10.9113 17.3043 11.7602 17.3043 12.667C17.3043 13.5738 17.0689 14.4228 16.6564 15.1612Z" fill="white"/>
<path d="M15.321 12.6212C15.321 14.4582 13.8319 15.9474 11.9949 15.9474C10.1579 15.9474 8.6687 14.4582 8.6687 12.6212C8.6687 10.7842 10.1579 9.29501 11.9949 9.29501C13.8319 9.29501 15.321 10.7842 15.321 12.6212Z" fill="white"/>
<path d="M7.74025 2.52664C7.69641 4.41149 8.90862 5.93261 10.4831 6.86635C10.2302 4.54482 8.79165 3.22366 7.74025 2.52664Z" fill="white"/>
</svg>
