<svg width="22" height="29" viewBox="0 0 22 29" fill="none" xmlns="http://www.w3.org/2000/svg">
<path d="M14.7447 21.8869C14.7502 21.8869 14.913 22.4223 14.913 23.058C14.913 25.2831 13.1616 27.0869 11.0012 27.0869C8.37887 27.0869 6.49669 24.4761 7.25723 21.8869H7.25776" stroke="#AE194A" stroke-width="2" stroke-miterlimit="10" stroke-linecap="round" stroke-linejoin="round"/>
<path d="M3.18225 15.8202C1.80113 18.5849 3.81175 21.8868 6.95484 21.8868C8.2221 21.8868 9.35832 21.3289 10.1304 20.4464" stroke="#AE194A" stroke-width="2" stroke-miterlimit="10" stroke-linecap="round" stroke-linejoin="round"/>
<path d="M7.95652 14.3329C7.24277 15.2388 6.13718 15.8203 4.89546 15.8203C2.74407 15.8203 1 14.0742 1 11.9203C1 9.76641 2.74407 8.02031 4.89546 8.02031C6.13718 8.02031 7.24277 8.60181 7.95652 9.50773" stroke="#AE194A" stroke-width="2" stroke-miterlimit="10" stroke-linecap="round" stroke-linejoin="round"/>
<path d="M17.9353 15.8202C19.2815 18.4314 17.5047 21.5762 14.4759 21.8657C12.8054 22.0277 11.1878 21.2479 10.3166 19.8515C9.55592 18.6293 9.49987 17.132 10.1171 15.8846" stroke="#AE194A" stroke-width="2" stroke-miterlimit="10" stroke-linecap="round" stroke-linejoin="round"/>
<path d="M14.0435 14.3329C14.7567 15.2388 15.8624 15.8203 17.1042 15.8203C19.2558 15.8203 21 14.0742 21 11.9203C21 9.76641 19.2558 8.02031 17.1042 8.02031C15.8624 8.02031 14.7567 8.60181 14.0435 9.50773" stroke="#AE194A" stroke-width="2" stroke-miterlimit="10" stroke-linecap="round" stroke-linejoin="round"/>
<path d="M7.08691 11.9203C7.08691 14.0742 8.83881 15.8203 11 15.8203C13.1611 15.8203 14.913 14.0742 14.913 11.9203C14.913 9.76641 13.1611 8.02031 11 8.02031C8.83881 8.02031 7.08691 9.76641 7.08691 11.9203Z" stroke="#AE194A" stroke-width="2" stroke-miterlimit="10" stroke-linecap="round" stroke-linejoin="round"/>
<path d="M10.5652 8.02014C10.6008 3.25909 15.7826 2.82014 15.7826 2.82014" stroke="#AE194A" stroke-width="2" stroke-miterlimit="10" stroke-linecap="round" stroke-linejoin="round"/>
<path d="M10.523 8.02014C11.0513 2.8012 6.44755 1.08681 6.44755 1.08681C6.44755 1.08681 4.76025 5.60855 10.523 8.02014Z" stroke="#AE194A" stroke-width="2" stroke-miterlimit="10" stroke-linecap="round" stroke-linejoin="round"/>
</svg>
