<svg width="30" height="30" viewBox="0 0 30 30" fill="none" xmlns="http://www.w3.org/2000/svg">
<path d="M2.24283 18.4603C1.77654 18.4603 1.37576 18.365 1.04049 18.1744C0.707146 17.9819 0.449915 17.7144 0.268793 17.3717C0.0895975 17.0272 0 16.6278 0 16.1735C0 15.7173 0.0895975 15.3179 0.268793 14.9753C0.449915 14.6307 0.707146 14.3632 1.04049 14.1726C1.37576 13.9801 1.77654 13.8839 2.24283 13.8839C2.70912 13.8839 3.10894 13.9801 3.44228 14.1726C3.77755 14.3632 4.03478 14.6307 4.21397 14.9753C4.3951 15.3179 4.48566 15.7173 4.48566 16.1735C4.48566 16.6278 4.3951 17.0272 4.21397 17.3717C4.03478 17.7144 3.77755 17.9819 3.44228 18.1744C3.10894 18.365 2.70912 18.4603 2.24283 18.4603ZM2.2515 17.3948C2.42106 17.3948 2.56461 17.3429 2.68215 17.2389C2.79968 17.135 2.88928 16.9906 2.95094 16.8058C3.01452 16.621 3.04632 16.4074 3.04632 16.1648C3.04632 15.9185 3.01452 15.7029 2.95094 15.5181C2.88928 15.3333 2.79968 15.1889 2.68215 15.085C2.56461 14.981 2.42106 14.9291 2.2515 14.9291C2.07616 14.9291 1.92779 14.981 1.8064 15.085C1.68694 15.1889 1.59541 15.3333 1.53183 15.5181C1.47017 15.7029 1.43934 15.9185 1.43934 16.1648C1.43934 16.4074 1.47017 16.621 1.53183 16.8058C1.59541 16.9906 1.68694 17.135 1.8064 17.2389C1.92779 17.3429 2.07616 17.3948 2.2515 17.3948Z" fill="#62A50D"/>
<path d="M5.20966 18.3765V13.9416H6.58253V14.7501H6.62877C6.7097 14.4575 6.84169 14.24 7.02474 14.0975C7.20778 13.9532 7.4207 13.881 7.66348 13.881C7.72899 13.881 7.79643 13.8858 7.8658 13.8954C7.93516 13.9031 7.99971 13.9156 8.05944 13.933V15.1601C7.992 15.137 7.90337 15.1187 7.79354 15.1052C7.68564 15.0917 7.5893 15.085 7.50452 15.085C7.33688 15.085 7.18563 15.1225 7.05075 15.1976C6.9178 15.2707 6.81278 15.3737 6.73571 15.5065C6.66057 15.6374 6.62299 15.7914 6.62299 15.9685V18.3765H5.20966Z" fill="#62A50D"/>
<path d="M10.4742 20.132C10.0523 20.132 9.69099 20.0733 9.3904 19.9559C9.08981 19.8385 8.85378 19.6777 8.68229 19.4737C8.5108 19.2697 8.40772 19.0387 8.37303 18.7807L9.71122 18.7057C9.73627 18.7961 9.78251 18.8751 9.84995 18.9424C9.91931 19.0098 10.0089 19.0618 10.1187 19.0984C10.2305 19.1349 10.3615 19.1532 10.5118 19.1532C10.7488 19.1532 10.9444 19.0955 11.0985 18.98C11.2546 18.8664 11.3326 18.6672 11.3326 18.3823V17.6027H11.2835C11.2276 17.7394 11.1429 17.8616 11.0292 17.9694C10.9155 18.0772 10.7739 18.1619 10.6043 18.2235C10.4367 18.2851 10.244 18.3159 10.0263 18.3159C9.70255 18.3159 9.40581 18.2408 9.13606 18.0907C8.86823 17.9386 8.65339 17.7038 8.49153 17.3862C8.33161 17.0666 8.25164 16.6557 8.25164 16.1533C8.25164 15.6355 8.3345 15.2091 8.50021 14.8742C8.66591 14.5374 8.88268 14.2881 9.15051 14.1264C9.42027 13.9647 9.71025 13.8839 10.0205 13.8839C10.2536 13.8839 10.453 13.9243 10.6188 14.0051C10.7864 14.0841 10.9242 14.1861 11.0321 14.3112C11.14 14.4363 11.2219 14.5662 11.2777 14.701H11.3182V13.9416H12.7257V18.3938C12.7257 18.7692 12.6313 19.0858 12.4425 19.3438C12.2537 19.6017 11.9897 19.7971 11.6506 19.9299C11.3114 20.0646 10.9193 20.132 10.4742 20.132ZM10.5176 17.288C10.6891 17.288 10.8355 17.2428 10.9569 17.1523C11.0783 17.0618 11.1718 16.9319 11.2373 16.7625C11.3028 16.5931 11.3355 16.3901 11.3355 16.1533C11.3355 15.9127 11.3028 15.7058 11.2373 15.5325C11.1737 15.3574 11.0802 15.2226 10.9569 15.1283C10.8355 15.034 10.6891 14.9868 10.5176 14.9868C10.3423 14.9868 10.1939 15.0349 10.0725 15.1312C9.95111 15.2274 9.85862 15.3631 9.79503 15.5383C9.73338 15.7115 9.70255 15.9165 9.70255 16.1533C9.70255 16.3901 9.73434 16.5931 9.79792 16.7625C9.86151 16.9319 9.95303 17.0618 10.0725 17.1523C10.1939 17.2428 10.3423 17.288 10.5176 17.288Z" fill="#62A50D"/>
<path d="M14.8782 18.4516C14.595 18.4516 14.3436 18.4044 14.1239 18.3101C13.9062 18.2139 13.7337 18.0695 13.6065 17.877C13.4813 17.6826 13.4187 17.4391 13.4187 17.1465C13.4187 16.9001 13.462 16.6923 13.5487 16.5229C13.6354 16.3535 13.7549 16.2159 13.9071 16.11C14.0593 16.0041 14.2347 15.9242 14.4332 15.8703C14.6316 15.8145 14.8436 15.777 15.069 15.7577C15.3214 15.7346 15.5247 15.7106 15.6788 15.6856C15.833 15.6586 15.9447 15.6211 16.0141 15.5729C16.0854 15.5229 16.1211 15.4526 16.1211 15.3622V15.3477C16.1211 15.1995 16.07 15.085 15.9679 15.0041C15.8657 14.9233 15.728 14.8829 15.5546 14.8829C15.3677 14.8829 15.2174 14.9233 15.1037 15.0041C14.99 15.085 14.9177 15.1966 14.8869 15.3391L13.5834 15.2929C13.622 15.0234 13.7212 14.7828 13.8811 14.5711C14.043 14.3574 14.2646 14.1899 14.5459 14.0687C14.8291 13.9455 15.1692 13.8839 15.5661 13.8839C15.8494 13.8839 16.1105 13.9176 16.3494 13.9849C16.5883 14.0504 16.7964 14.1466 16.9737 14.2737C17.1509 14.3988 17.2877 14.5528 17.3841 14.7356C17.4824 14.9185 17.5315 15.1273 17.5315 15.3622V18.3765H16.202V17.7586H16.1673C16.0883 17.9088 15.9871 18.0358 15.8638 18.1398C15.7424 18.2437 15.5989 18.3217 15.4332 18.3736C15.2694 18.4256 15.0844 18.4516 14.8782 18.4516ZM15.3147 17.5277C15.4669 17.5277 15.6037 17.4969 15.7251 17.4353C15.8484 17.3737 15.9467 17.289 16.0199 17.1812C16.0931 17.0715 16.1297 16.9444 16.1297 16.8001V16.3785C16.0893 16.3997 16.0401 16.4189 15.9823 16.4363C15.9264 16.4536 15.8648 16.4699 15.7973 16.4853C15.7299 16.5007 15.6605 16.5142 15.5892 16.5258C15.518 16.5373 15.4496 16.5479 15.384 16.5575C15.2511 16.5787 15.1374 16.6114 15.043 16.6557C14.9505 16.7 14.8792 16.7577 14.8291 16.8289C14.7809 16.8982 14.7569 16.981 14.7569 17.0772C14.7569 17.2235 14.8089 17.3352 14.9129 17.4122C15.0189 17.4892 15.1528 17.5277 15.3147 17.5277Z" fill="#62A50D"/>
<path d="M19.809 15.8472V18.3765H18.3957V13.9416H19.7396V14.7558H19.7888C19.887 14.4844 20.0547 14.2717 20.2917 14.1177C20.5287 13.9618 20.811 13.8839 21.1385 13.8839C21.4507 13.8839 21.7214 13.9541 21.9507 14.0946C22.1819 14.2332 22.3611 14.4276 22.4883 14.6779C22.6174 14.9262 22.6809 15.2168 22.679 15.5498V18.3765H21.2657V15.827C21.2676 15.5806 21.205 15.3882 21.0778 15.2496C20.9526 15.111 20.7782 15.0417 20.5547 15.0417C20.4063 15.0417 20.2753 15.0744 20.1616 15.1399C20.0499 15.2034 19.9632 15.2948 19.9015 15.4141C19.8418 15.5335 19.8109 15.6779 19.809 15.8472Z" fill="#62A50D"/>
<path d="M23.554 18.3765V13.9416H24.9674V18.3765H23.554ZM24.2621 13.4248C24.0637 13.4248 23.8932 13.3593 23.7506 13.2285C23.608 13.0956 23.5367 12.9359 23.5367 12.7492C23.5367 12.5644 23.608 12.4065 23.7506 12.2756C23.8932 12.1428 24.0637 12.0764 24.2621 12.0764C24.4625 12.0764 24.6331 12.1428 24.7737 12.2756C24.9163 12.4065 24.9876 12.5644 24.9876 12.7492C24.9876 12.9359 24.9163 13.0956 24.7737 13.2285C24.6331 13.3593 24.4625 13.4248 24.2621 13.4248Z" fill="#62A50D"/>
<path d="M27.9393 18.4603C27.471 18.4603 27.0693 18.364 26.734 18.1715C26.4007 17.979 26.1444 17.7115 25.9652 17.3689C25.786 17.0243 25.6964 16.6259 25.6964 16.1735C25.6964 15.7192 25.786 15.3208 25.9652 14.9782C26.1463 14.6336 26.4036 14.3651 26.7369 14.1726C27.0722 13.9801 27.472 13.8839 27.9364 13.8839C28.3468 13.8839 28.7042 13.958 29.0086 14.1062C29.315 14.2544 29.5539 14.4642 29.7254 14.7356C29.8988 15.0051 29.9904 15.3218 30 15.6856H28.6792C28.6522 15.4584 28.5751 15.2804 28.4479 15.1514C28.3227 15.0224 28.1589 14.958 27.9566 14.958C27.7928 14.958 27.6493 15.0041 27.526 15.0965C27.4026 15.187 27.3063 15.3218 27.2369 15.5008C27.1695 15.6779 27.1358 15.8973 27.1358 16.1591C27.1358 16.4209 27.1695 16.6422 27.2369 16.8232C27.3063 17.0022 27.4026 17.1379 27.526 17.2303C27.6493 17.3207 27.7928 17.366 27.9566 17.366C28.0876 17.366 28.2032 17.3381 28.3034 17.2822C28.4056 17.2264 28.4894 17.1446 28.5549 17.0368C28.6204 16.9271 28.6618 16.7943 28.6792 16.6384H30C29.9865 17.0041 29.895 17.3236 29.7254 17.597C29.5578 17.8703 29.3218 18.083 29.0173 18.235C28.7148 18.3852 28.3555 18.4603 27.9393 18.4603Z" fill="#62A50D"/>
<path d="M26.9749 20H29.1221C27.0436 25.8301 21.5055 29.9999 15.0003 29.9999C8.49503 29.9999 2.95698 25.8301 0.878418 20H3.02565C5.00127 24.6936 9.61893 27.986 15.0003 27.986C20.3816 27.986 24.9993 24.6936 26.9749 20Z" fill="#62A50D"/>
<path d="M9.20455 25.0823C8.74432 25.0823 8.34943 24.9876 8.01989 24.7982C7.69223 24.6088 7.44034 24.3456 7.2642 24.0084C7.08807 23.6694 7 23.2774 7 22.8323C7 22.3853 7.08807 21.9933 7.2642 21.6562C7.44223 21.3171 7.69508 21.0529 8.02273 20.8635C8.35227 20.6742 8.74527 20.5795 9.2017 20.5795C9.60511 20.5795 9.95644 20.6524 10.2557 20.7982C10.5568 20.944 10.7917 21.1505 10.9602 21.4175C11.1307 21.6827 11.2206 21.9942 11.2301 22.3522H9.93182C9.9053 22.1287 9.82955 21.9535 9.70455 21.8266C9.58144 21.6997 9.42045 21.6363 9.22159 21.6363C9.06061 21.6363 8.91951 21.6817 8.7983 21.7726C8.67708 21.8617 8.58239 21.9942 8.5142 22.1704C8.44792 22.3446 8.41477 22.5605 8.41477 22.8181C8.41477 23.0757 8.44792 23.2935 8.5142 23.4715C8.58239 23.6476 8.67708 23.7812 8.7983 23.8721C8.91951 23.9611 9.06061 24.0056 9.22159 24.0056C9.35038 24.0056 9.46402 23.9781 9.5625 23.9232C9.66288 23.8683 9.74527 23.7878 9.80966 23.6817C9.87405 23.5738 9.91477 23.4431 9.93182 23.2897H11.2301C11.2169 23.6495 11.1269 23.9639 10.9602 24.2329C10.7955 24.5018 10.5634 24.7111 10.2642 24.8607C9.96686 25.0084 9.61364 25.0823 9.20455 25.0823Z" fill="#62A50D"/>
<path d="M13.9808 25.0823C13.5244 25.0823 13.1304 24.9923 12.799 24.8124C12.4695 24.6306 12.2157 24.3721 12.0376 24.0368C11.8615 23.6997 11.7734 23.2992 11.7734 22.8351C11.7734 22.3844 11.8625 21.9904 12.0405 21.6533C12.2185 21.3143 12.4695 21.051 12.7933 20.8635C13.1172 20.6742 13.4988 20.5795 13.9382 20.5795C14.2488 20.5795 14.5329 20.6278 14.7905 20.7243C15.0481 20.8209 15.2706 20.9639 15.4581 21.1533C15.6456 21.3427 15.7914 21.5766 15.8956 21.855C15.9998 22.1315 16.0518 22.4488 16.0518 22.8067V23.1533H12.2592V22.3465H14.7592C14.7573 22.1988 14.7223 22.0671 14.6541 21.9516C14.5859 21.8361 14.4922 21.7461 14.3729 21.6817C14.2554 21.6154 14.12 21.5823 13.9666 21.5823C13.8113 21.5823 13.6721 21.6173 13.549 21.6874C13.4259 21.7556 13.3284 21.8493 13.2564 21.9687C13.1844 22.0861 13.1465 22.2196 13.1428 22.3692V23.1903C13.1428 23.3683 13.1778 23.5245 13.2479 23.659C13.3179 23.7916 13.4174 23.8948 13.5462 23.9687C13.675 24.0425 13.8284 24.0795 14.0064 24.0795C14.1295 24.0795 14.2412 24.0624 14.3416 24.0283C14.442 23.9942 14.5282 23.944 14.6001 23.8778C14.6721 23.8115 14.7261 23.73 14.7621 23.6334L16.0376 23.6704C15.9846 23.9564 15.8681 24.2054 15.6882 24.4175C15.5102 24.6278 15.2763 24.7916 14.9865 24.909C14.6967 25.0245 14.3615 25.0823 13.9808 25.0823Z" fill="#62A50D"/>
<path d="M16.7614 24.9999V20.6363H18.1108V21.4317H18.1562C18.2358 21.1439 18.3655 20.9298 18.5455 20.7897C18.7254 20.6476 18.9347 20.5766 19.1733 20.5766C19.2377 20.5766 19.304 20.5814 19.3722 20.5908C19.4403 20.5984 19.5038 20.6107 19.5625 20.6278V21.8351C19.4962 21.8124 19.4091 21.7944 19.3011 21.7812C19.1951 21.7679 19.1004 21.7613 19.017 21.7613C18.8523 21.7613 18.7036 21.7982 18.571 21.8721C18.4403 21.944 18.3371 22.0454 18.2614 22.176C18.1875 22.3048 18.1506 22.4564 18.1506 22.6306V24.9999H16.7614Z" fill="#62A50D"/>
<path d="M22.7947 20.6363V21.659H20.0419V20.6363H22.7947ZM20.6186 19.5908H22.0078V23.6278C22.0078 23.713 22.0211 23.7821 22.0476 23.8351C22.076 23.8863 22.1167 23.9232 22.1697 23.9459C22.2228 23.9668 22.547 23.9872 22.8176 23.9459C22.9532 24.517 22.539 24.9488 22.1641 25.0624C21.8383 25.0776 21.5589 25.0397 21.326 24.9488C21.0949 24.856 20.9179 24.712 20.7947 24.517C20.6735 24.3219 20.6148 24.0766 20.6186 23.7812V19.5908Z" fill="#62A50D"/>
<path d="M1 9C4.5 6 10 2.99891 15.9999 3C11.5 3.5427 6.47773 5.9922 3 9C4 10 3.5 10.8693 3 11C5 11.5 7 12 8.5 11.5C8.5 11.5 8 10.5 8 10C11.4039 11.7019 14.6112 9.5 18 9.5C17 9 14.9999 7.5 14.9999 7C20 7 20 3 23.9999 2.99891C21.4929 1.11584 18.3767 0 14.9999 0C9.06616 0 3.31896 3.69177 1 9Z" fill="#62A50D"/>
</svg>
