<svg width="30" height="30" viewBox="0 0 30 30" fill="none" xmlns="http://www.w3.org/2000/svg">
<path fill-rule="evenodd" clip-rule="evenodd" d="M15 28C22.1797 28 28 22.1797 28 15C28 7.8203 22.1797 2 15 2C7.8203 2 2 7.8203 2 15C2 22.1797 7.8203 28 15 28ZM15 30C23.2843 30 30 23.2843 30 15C30 6.71573 23.2843 0 15 0C6.71573 0 0 6.71573 0 15C0 23.2843 6.71573 30 15 30Z" fill="#AE194A"/>
<path fill-rule="evenodd" clip-rule="evenodd" d="M15.5181 16.3103C18.2281 12.7061 20 10.3494 20 7.9359C20 5.20988 17.7614 3 15 3C12.2386 3 10 5.20988 10 7.9359C10 10.3494 11.7719 12.7061 14.4819 16.3103C14.651 16.5353 14.8238 16.765 15 17C15.1762 16.765 15.349 16.5353 15.5181 16.3103ZM15 11C16.6569 11 18 9.65685 18 8C18 6.34315 16.6569 5 15 5C13.3431 5 12 6.34315 12 8C12 9.65685 13.3431 11 15 11Z" fill="#AE194A"/>
<path d="M5 22V14H8.22628C8.78102 14 9.26642 14.1172 9.68248 14.3516C10.0985 14.5859 10.4221 14.9154 10.6533 15.3398C10.8844 15.7643 11 16.2604 11 16.8281C11 17.401 10.8808 17.8971 10.6423 18.3164C10.4063 18.7357 10.0742 19.0586 9.64599 19.2852C9.2202 19.5117 8.72263 19.625 8.15328 19.625H6.22628V17.9375H7.74453C7.98297 17.9375 8.18613 17.8932 8.35401 17.8047C8.52433 17.7135 8.6545 17.5846 8.74453 17.418C8.83698 17.2513 8.88321 17.0547 8.88321 16.8281C8.88321 16.599 8.83698 16.4036 8.74453 16.2422C8.6545 16.0781 8.52433 15.9531 8.35401 15.8672C8.18613 15.7786 7.98297 15.7344 7.74453 15.7344H7.0292V22H5Z" fill="#AE194A"/>
<path d="M14.615 26H12V18H14.5885C15.2876 18 15.8916 18.1602 16.4004 18.4805C16.9115 18.7982 17.3053 19.2565 17.5819 19.8555C17.8606 20.4518 18 21.1667 18 22C18 22.8333 17.8617 23.5495 17.5852 24.1484C17.3086 24.7448 16.917 25.2031 16.4104 25.5234C15.9038 25.8411 15.3053 26 14.615 26ZM13.8451 24.1563H14.5487C14.885 24.1563 15.1715 24.0924 15.4082 23.9648C15.6471 23.8372 15.8285 23.6172 15.9524 23.3047C16.0785 22.9922 16.1416 22.5573 16.1416 22C16.1416 21.4427 16.0774 21.0078 15.9491 20.6953C15.823 20.3828 15.6372 20.1628 15.3916 20.0352C15.1482 19.9076 14.8496 19.8437 14.4956 19.8437H13.8451V24.1563Z" fill="#AE194A"/>
<path d="M26 18C26 18.8669 25.8442 19.5982 25.5326 20.1939C25.2211 20.7871 24.8005 21.237 24.2711 21.5437C23.7416 21.8479 23.1513 22 22.5 22C21.844 22 21.2513 21.8466 20.7219 21.5399C20.1948 21.2307 19.7754 20.7795 19.4639 20.1863C19.1546 19.5906 19 18.8619 19 18C19 17.1331 19.1546 16.403 19.4639 15.8099C19.7754 15.2142 20.1948 14.7643 20.7219 14.4601C21.2513 14.1534 21.844 14 22.5 14C23.1513 14 23.7416 14.1534 24.2711 14.4601C24.8005 14.7643 25.2211 15.2142 25.5326 15.8099C25.8442 16.403 26 17.1331 26 18ZM23.99 18C23.99 17.5336 23.9326 17.1407 23.8178 16.8213C23.7053 16.4994 23.5378 16.256 23.3153 16.0913C23.095 15.924 22.8233 15.8403 22.5 15.8403C22.1767 15.8403 21.9038 15.924 21.6812 16.0913C21.461 16.256 21.2935 16.4994 21.1787 16.8213C21.0663 17.1407 21.01 17.5336 21.01 18C21.01 18.4664 21.0663 18.8606 21.1787 19.1825C21.2935 19.5019 21.461 19.7452 21.6812 19.9125C21.9038 20.0773 22.1767 20.1597 22.5 20.1597C22.8233 20.1597 23.095 20.0773 23.3153 19.9125C23.5378 19.7452 23.7053 19.5019 23.8178 19.1825C23.9326 18.8606 23.99 18.4664 23.99 18Z" fill="#AE194A"/>
</svg>
