<svg width="30" height="30" viewBox="0 0 30 30" fill="none" xmlns="http://www.w3.org/2000/svg">
<path fill-rule="evenodd" clip-rule="evenodd" d="M15 28C22.1797 28 28 22.1797 28 15C28 7.8203 22.1797 2 15 2C7.8203 2 2 7.8203 2 15C2 22.1797 7.8203 28 15 28ZM15 30C23.2843 30 30 23.2843 30 15C30 6.71573 23.2843 0 15 0C6.71573 0 0 6.71573 0 15C0 23.2843 6.71573 30 15 30Z" fill="#AE194A"/>
<path fill-rule="evenodd" clip-rule="evenodd" d="M24.6561 7H5.34387L12 14.8663V22.618L18 25.618V20L16 22L16 22.382L14 21.382V14.1337L11.7715 11.5H18.2285L16.9779 12.9779L18.397 14.397L24.6561 7ZM10.0792 9.5L9.65609 9H20.3439L19.9208 9.5H10.0792Z" fill="#AE194A"/>
<path fill-rule="evenodd" clip-rule="evenodd" d="M18 18.4142L16.2071 20.2072L14.7928 18.793L16.5858 17L14.7929 15.2072L16.2072 13.793L18 15.5858L19.7928 13.793L21.2071 15.2072L19.4142 17L21.2072 18.793L19.7929 20.2072L18 18.4142Z" fill="#AE194A"/>
</svg>
