<svg width="30" height="30" viewBox="0 0 30 30" fill="none" xmlns="http://www.w3.org/2000/svg">
<path fill-rule="evenodd" clip-rule="evenodd" d="M15 28C22.1797 28 28 22.1797 28 15C28 7.8203 22.1797 2 15 2C7.8203 2 2 7.8203 2 15C2 22.1797 7.8203 28 15 28ZM15 30C23.2843 30 30 23.2843 30 15C30 6.71573 23.2843 0 15 0C6.71573 0 0 6.71573 0 15C0 23.2843 6.71573 30 15 30Z" fill="#AE194A"/>
<path fill-rule="evenodd" clip-rule="evenodd" d="M7.90856 27.4093L9.01846 28.2331C10.7402 29.3508 12.7943 30 15 30C17.2057 30 19.2598 29.3508 20.9815 28.2331L22.0914 27.4093C24.4818 25.3915 26 22.3731 26 19V15C26 8.92487 21.0751 4 15 4C8.92487 4 4 8.92487 4 15V19C4 22.3731 5.51821 25.3915 7.90856 27.4093ZM24 15V19C24 21.9488 22.5818 24.5664 20.3904 26.2079C18.8484 25.9679 18.2333 24.1761 18.0571 22.8378C18.782 22.2713 19.425 21.5403 19.9571 20.7422C21.5381 18.3706 22 16 22 13C20.5127 13 18.9 12.2672 17.7455 11.3537C18.5629 10.8409 19.2677 10.264 19.7799 9.62595L18.2201 8.37405C17.3769 9.42459 15.5373 10.445 13.2972 11.2064C11.0967 11.9543 8.72191 12.3813 7 12.3813V14.3813C7.32053 14.3813 7.65681 14.3688 8.0053 14.3445C8.07704 16.6849 8.87183 18.9855 10.0429 20.7422C10.575 21.5403 11.218 22.2713 11.9429 22.8378C11.7667 24.1761 11.1516 25.9679 9.60963 26.2079C7.41815 24.5664 6 21.9488 6 19V15C6 10.0294 10.0294 6 15 6C19.9706 6 24 10.0294 24 15ZM18.2382 27.3999C17.2334 27.7875 16.1415 28 15 28C13.8585 28 12.7666 27.7875 11.7618 27.3999C12.9395 26.5005 13.5214 25.1147 13.7999 23.8241C14.1882 23.9381 14.5892 24 15 24C15.4108 24 15.8118 23.9381 16.2001 23.8241C16.4786 25.1147 17.0605 26.5005 18.2382 27.3999ZM13.9408 13.1C14.5884 12.8798 15.2351 12.6298 15.8573 12.3507C16.9861 13.4668 18.4566 14.2359 19.9755 14.6742C19.845 16.4889 19.202 18.2693 18.2929 19.6328C17.2424 21.2086 16.0057 22 15 22C13.9943 22 12.7576 21.2086 11.7071 19.6328C10.7023 18.1256 10.0225 16.1091 10.0005 14.0999C11.2932 13.8798 12.6526 13.5378 13.9408 13.1Z" fill="#AE194A"/>
</svg>
