<svg width="400" height="400" viewBox="0 0 400 400" fill="none" xmlns="http://www.w3.org/2000/svg">
<g clip-path="url(#clip0_405_595)">
<path d="M400 0H0V400H400V0Z" fill="white"/>
<path d="M217 43V30C217 29.4477 216.552 29 216 29L184 29C183.448 29 183 29.4477 183 30V43C183 43.5523 183.448 44 184 44H216C216.552 44 217 43.5523 217 43Z" stroke="#666666" stroke-width="2"/>
<path d="M185 44C185 44 185 60.13 185 101.09C185 142.049 154 189.031 154 236.813C154 258.641 154 332.461 154 372.537C154 374.965 155.5 379 160 379C164.5 379 200 379 200 379" stroke="#666666" stroke-width="2"/>
<path d="M215 44C215 44 215 60.13 215 101.09C215 142.049 246 189.031 246 236.813C246 258.641 246 332.461 246 372.537C246 374.965 244.5 379 240 379C235.5 379 200 379 200 379" stroke="#666666" stroke-width="2"/>
<path d="M212.5 154.5C214.5 161.5 217.5 170.5 220.5 177.5M224.5 187.5C228.5 196 232.5 213.5 233.5 223.5" stroke="#666666" stroke-width="2" stroke-linecap="round"/>
<path d="M234 242V342H166V242H234Z" stroke="#666666" stroke-width="2"/>
<path d="M215 29V21H185V29" stroke="#666666" stroke-width="2" stroke-linejoin="round"/>
<path d="M185 102H215" stroke="#666666" stroke-width="2"/>
</g>
<defs>
<clipPath id="clip0_405_595">
<rect width="400" height="400" fill="white"/>
</clipPath>
</defs>
</svg>
