<svg width="400" height="400" viewBox="0 0 400 400" fill="none" xmlns="http://www.w3.org/2000/svg">
<rect width="400" height="400" fill="white"/>
<rect x="217" y="47.5" width="15" height="34" rx="1" transform="rotate(90 217 47.5)" stroke="#EEEEEE" stroke-width="6"/>
<path d="M213.875 60.8594C213.875 60.8594 213.875 76.9494 213.875 114.975C213.875 153 245 198.5 245 242.859C245 263.123 245 317.531 245 354.736C245 356.99 243.875 361.5 239.375 361.5C234.875 361.5 211.25 361.5 200 361.5" stroke="#EEEEEE" stroke-width="6"/>
<path d="M186.125 60.8594C186.125 60.8594 186.125 76.9494 186.125 114.975C186.125 153 155 198.5 155 242.859C155 263.123 155 317.531 155 354.736C155 356.99 156.125 361.5 160.625 361.5C165.125 361.5 188.75 361.5 200 361.5" stroke="#EEEEEE" stroke-width="6"/>
<path d="M206.999 157.5C208.578 164.353 211.089 171.558 213.503 177.038M218.624 187.897C222.969 196.219 227 209.5 228.5 220.5" stroke="#EEEEEE" stroke-width="6" stroke-linecap="round"/>
<path d="M234 241.5L234 331.5L166 331.5L166 241.5L234 241.5Z" stroke="#EEEEEE" stroke-width="6"/>
<path d="M214 47.5V39H185V47.5" stroke="#EEEEEE" stroke-width="6" stroke-linejoin="round"/>
<path d="M189 107H217" stroke="#EEEEEE" stroke-width="6"/>
</svg>
