<svg width="815" height="400" viewBox="0 0 815 400" fill="none" xmlns="http://www.w3.org/2000/svg">
<path d="M638.079 216.724C639.697 216.731 641.296 216.901 642.779 217.225C644.262 217.549 645.6 218.02 646.711 218.609C647.823 219.198 648.686 219.893 649.249 220.653C649.811 221.413 650.062 222.222 649.985 223.032C646.862 256.162 623.593 288.021 583.3 314.339C543.006 340.657 487.614 360.174 424.551 370.275C361.487 380.375 293.766 380.575 230.469 370.849C167.172 361.122 111.323 341.934 70.4121 315.856C69.4123 315.219 68.6795 314.487 68.2577 313.705C67.8358 312.922 67.7336 312.105 67.957 311.302C68.1805 310.5 68.7251 309.728 69.5582 309.033C70.3913 308.338 71.4957 307.734 72.8054 307.259L220.036 253.752C222.463 252.87 225.46 252.474 228.439 252.641C231.419 252.809 234.166 253.528 236.142 254.658C251.426 263.397 271.473 269.708 293.82 272.818C316.168 275.927 339.841 275.699 361.933 272.161C384.024 268.623 403.572 261.929 418.173 252.902C432.774 243.874 441.794 232.907 444.123 221.347C444.424 219.853 445.829 218.469 448.061 217.466C450.294 216.464 453.194 215.916 456.192 215.929L638.079 216.724Z" fill="#EBE3E6"/>
<path d="M68.7142 304.883C67.3865 305.347 65.8851 305.672 64.2999 305.839C62.7147 306.006 61.0784 306.011 59.4889 305.855C57.8994 305.699 56.3894 305.384 55.0494 304.929C53.7094 304.474 52.5669 303.889 51.6903 303.209C17.491 276.658 -0.468736 245.704 0.0093003 214.134C0.487336 182.564 19.3825 151.749 54.3819 125.46C89.3813 99.1711 138.967 78.5487 197.069 66.1173C255.171 53.6858 319.269 49.9846 381.517 55.4666C383.112 55.6071 384.635 55.9069 385.993 56.3482C387.351 56.7895 388.516 57.3632 389.42 58.0348C390.323 58.7064 390.946 59.4622 391.251 60.2569C391.556 61.0516 391.536 61.8689 391.194 62.6598L352.695 151.567C352.061 153.033 350.353 154.327 347.907 155.196C345.461 156.065 342.453 156.447 339.473 156.265C317.541 154.932 295.298 156.67 275.228 161.284C255.159 165.899 238.052 173.209 225.818 182.398C213.584 191.587 206.705 202.294 205.948 213.323C205.191 224.351 210.587 235.268 221.532 244.854C223.019 246.157 223.479 247.689 222.82 249.152C222.162 250.615 220.433 251.902 217.972 252.761L68.7142 304.883Z" fill="#EBE3E6"/>
<path d="M396.674 63.6372C397.044 62.8503 397.728 62.1088 398.685 61.4571C399.643 60.8053 400.853 60.2567 402.245 59.8442C403.637 59.4316 405.181 59.1635 406.785 59.056C408.39 58.9486 410.021 59.0038 411.581 59.2186C436.606 62.6625 460.714 67.5922 483.389 73.902C484.803 74.2955 486.043 74.8274 487.035 75.4658C488.028 76.1043 488.752 76.8362 489.165 77.6178C489.577 78.3993 489.67 79.2144 489.436 80.0142C489.203 80.814 488.649 81.5821 487.807 82.2724L393.186 159.88C391.626 161.159 389.166 162.101 386.287 162.521C383.408 162.941 380.319 162.81 377.625 162.151C372.892 160.995 368.011 159.997 363.013 159.164C360.169 158.689 357.781 157.701 356.32 156.393C354.858 155.086 354.428 153.552 355.113 152.094L396.674 63.6372Z" fill="#EBE3E6"/>
<path d="M524.565 91.0077C525.072 90.6933 525.699 90.4324 526.41 90.2402C527.121 90.048 527.902 89.9283 528.706 89.8881C529.511 89.848 530.324 89.8881 531.098 90.0063C531.871 90.1244 532.59 90.3182 533.211 90.5762C533.832 90.8343 534.344 91.1515 534.717 91.5093C535.09 91.867 535.316 92.2582 535.382 92.66C535.447 93.0617 535.352 93.466 535.101 93.8492C534.85 94.2324 534.448 94.5867 533.919 94.8917L404.708 169.223C404.311 169.452 403.748 169.594 403.143 169.619C402.537 169.643 401.936 169.548 401.469 169.355C401.003 169.161 400.707 168.883 400.646 168.582C400.586 168.281 400.765 167.979 401.145 167.743L524.565 91.0077Z" fill="#EBE3E6"/>
<path d="M533.892 98.7417C534.977 98.1363 536.294 97.6467 537.766 97.3023C539.237 96.9578 540.832 96.7657 542.455 96.7373C544.078 96.709 545.695 96.8449 547.211 97.1372C548.727 97.4294 550.109 97.8718 551.275 98.4379C610.78 127.325 646.078 166.482 649.987 207.943C650.064 208.756 649.812 209.567 649.248 210.33C648.683 211.093 647.817 211.791 646.701 212.382C645.585 212.973 644.243 213.445 642.754 213.77C641.265 214.095 639.661 214.266 638.037 214.273L455.481 215.071C452.472 215.084 449.562 214.534 447.321 213.528C445.08 212.522 443.67 211.133 443.368 209.633C440.757 196.677 429.781 184.502 412.106 174.953C410.06 173.847 408.912 172.399 408.887 170.892C408.863 169.385 409.963 167.927 411.973 166.805L533.892 98.7417Z" fill="#EBE3E6"/>
<path d="M492.461 83.2391C493.324 82.5552 494.453 81.9657 495.781 81.5059C497.109 81.0461 498.608 80.7255 500.189 80.5633C501.77 80.401 503.4 80.4005 504.981 80.5617C506.562 80.7229 508.062 81.0425 509.392 81.5014C510.894 82.0201 512.388 82.5452 513.873 83.0766C515.186 83.5467 516.297 84.1449 517.139 84.8355C517.981 85.5261 518.536 86.2947 518.771 87.0955C519.007 87.8963 518.918 88.7126 518.509 89.4957C518.101 90.2787 517.382 91.0124 516.395 91.6527L401.931 165.912C401.013 166.509 399.672 166.904 398.186 167.017C396.701 167.131 395.186 166.952 393.956 166.52C392.726 166.088 391.875 165.434 391.58 164.695C391.286 163.956 391.569 163.189 392.373 162.552L492.461 83.2391Z" fill="#EBE3E6"/>
<path d="M638.079 204.724C639.697 204.731 641.296 204.902 642.779 205.226C644.262 205.549 645.6 206.02 646.711 206.609C647.823 207.198 648.686 207.893 649.249 208.653C649.811 209.413 650.062 210.222 649.985 211.032C646.862 244.162 623.593 276.022 583.3 302.339C543.006 328.657 487.614 348.175 424.551 358.275C361.487 368.375 293.766 368.576 230.469 358.849C167.172 349.123 111.323 329.934 70.4121 303.857C69.4123 303.219 68.6795 302.488 68.2577 301.705C67.8358 300.923 67.7336 300.105 67.957 299.303C68.1805 298.5 68.7251 297.728 69.5582 297.033C70.3913 296.338 71.4957 295.735 72.8054 295.259L220.036 241.752C222.463 240.87 225.46 240.474 228.439 240.641C231.419 240.809 234.166 241.528 236.142 242.658C251.426 251.397 271.473 257.709 293.82 260.818C316.168 263.928 339.841 263.699 361.933 260.161C384.024 256.623 403.572 249.929 418.173 240.902C432.774 231.875 441.794 220.907 444.123 209.347C444.424 207.853 445.829 206.469 448.061 205.467C450.294 204.464 453.194 203.916 456.192 203.929L638.079 204.724Z" fill="#6F0023"/>
<path d="M68.7142 292.883C67.3865 293.347 65.8851 293.672 64.2999 293.839C62.7147 294.006 61.0784 294.011 59.4889 293.855C57.8994 293.699 56.3894 293.384 55.0494 292.929C53.7094 292.474 52.5669 291.889 51.6903 291.209C17.491 264.658 -0.468736 233.704 0.0093003 202.134C0.487336 170.564 19.3825 139.749 54.3819 113.46C89.3813 87.1711 138.967 66.5487 197.069 54.1173C255.171 41.6858 319.269 37.9846 381.517 43.4666C383.112 43.6071 384.635 43.9069 385.993 44.3482C387.351 44.7895 388.516 45.3632 389.42 46.0348C390.323 46.7064 390.946 47.4622 391.251 48.2569C391.556 49.0516 391.536 49.8689 391.194 50.6598L352.695 139.567C352.061 141.033 350.353 142.327 347.907 143.196C345.461 144.065 342.453 144.447 339.473 144.265C317.541 142.932 295.298 144.67 275.228 149.284C255.159 153.899 238.052 161.209 225.818 170.398C213.584 179.587 206.705 190.294 205.948 201.323C205.191 212.351 210.587 223.268 221.532 232.854C223.019 234.157 223.479 235.69 222.82 237.152C222.162 238.615 220.433 239.902 217.972 240.761L68.7142 292.883Z" fill="#DCCA00"/>
<path d="M396.674 51.6372C397.044 50.8504 397.728 50.1088 398.685 49.4571C399.643 48.8053 400.853 48.2567 402.245 47.8442C403.637 47.4316 405.181 47.1635 406.785 47.056C408.39 46.9486 410.021 47.0038 411.581 47.2186C436.606 50.6625 460.714 55.5922 483.389 61.902C484.803 62.2955 486.043 62.8274 487.035 63.4658C488.028 64.1043 488.752 64.8362 489.165 65.6178C489.577 66.3993 489.67 67.2144 489.436 68.0142C489.203 68.814 488.649 69.5821 487.807 70.2724L393.186 147.88C391.626 149.159 389.166 150.101 386.287 150.521C383.408 150.941 380.319 150.81 377.625 150.151C372.892 148.995 368.011 147.997 363.013 147.164C360.169 146.689 357.781 145.701 356.32 144.393C354.858 143.086 354.428 141.552 355.113 140.094L396.674 51.6372Z" fill="#EC7D00"/>
<path d="M524.565 79.0079C525.072 78.6936 525.699 78.4327 526.41 78.2405C527.121 78.0482 527.902 77.9286 528.706 77.8884C529.511 77.8482 530.324 77.8884 531.098 78.0065C531.871 78.1247 532.59 78.3184 533.211 78.5765C533.832 78.8345 534.344 79.1517 534.717 79.5095C535.09 79.8673 535.316 80.2585 535.382 80.6602C535.447 81.062 535.352 81.4663 535.101 81.8494C534.85 82.2326 534.448 82.587 533.919 82.8919L404.708 157.223C404.311 157.452 403.748 157.594 403.143 157.619C402.537 157.643 401.936 157.549 401.469 157.355C401.003 157.161 400.707 156.884 400.646 156.582C400.586 156.281 400.765 155.98 401.145 155.744L524.565 79.0079Z" fill="#C89800"/>
<path d="M533.892 86.7417C534.977 86.1363 536.294 85.6467 537.766 85.3023C539.237 84.9578 540.832 84.7657 542.455 84.7373C544.078 84.709 545.695 84.8449 547.211 85.1372C548.727 85.4294 550.109 85.8718 551.275 86.4379C610.78 115.325 646.078 154.482 649.987 195.943C650.064 196.756 649.812 197.567 649.248 198.33C648.683 199.093 647.817 199.791 646.701 200.382C645.585 200.973 644.243 201.445 642.754 201.77C641.265 202.095 639.661 202.266 638.037 202.273L455.481 203.071C452.472 203.084 449.562 202.534 447.321 201.528C445.08 200.522 443.67 199.133 443.368 197.633C440.757 184.677 429.781 172.502 412.106 162.953C410.06 161.847 408.912 160.399 408.887 158.892C408.863 157.385 409.963 155.927 411.973 154.805L533.892 86.7417Z" fill="#AD78AC"/>
<path d="M492.461 71.2389C493.324 70.555 494.453 69.9655 495.781 69.5057C497.109 69.0459 498.608 68.7253 500.189 68.563C501.77 68.4008 503.4 68.4002 504.981 68.5614C506.562 68.7226 508.062 69.0422 509.392 69.5011C510.894 70.0199 512.388 70.5449 513.873 71.0763C515.186 71.5464 516.297 72.1447 517.139 72.8353C517.981 73.5258 518.536 74.2945 518.771 75.0953C519.007 75.896 518.918 76.7124 518.509 77.4954C518.101 78.2785 517.382 79.0122 516.395 79.6525L401.931 153.912C401.013 154.508 399.672 154.904 398.186 155.017C396.701 155.13 395.186 154.952 393.956 154.52C392.726 154.087 391.875 153.434 391.58 152.695C391.286 151.956 391.569 151.189 392.373 150.552L492.461 71.2389Z" fill="#3A2C57"/>
<path d="M638.079 204.724C639.697 204.731 641.296 204.902 642.779 205.226C644.262 205.549 645.6 206.02 646.711 206.609C647.823 207.198 648.686 207.893 649.249 208.653C649.811 209.413 650.062 210.222 649.985 211.032C646.862 244.162 623.593 276.022 583.3 302.339C543.006 328.657 487.614 348.175 424.551 358.275C361.487 368.375 293.766 368.576 230.469 358.849C167.172 349.123 111.323 329.934 70.4121 303.857C69.4123 303.219 68.6795 302.488 68.2577 301.705C67.8358 300.923 67.7336 300.105 67.957 299.303C68.1805 298.5 68.7251 297.728 69.5582 297.033C70.3913 296.338 71.4957 295.735 72.8054 295.259L220.036 241.752C222.463 240.87 225.46 240.474 228.439 240.641C231.419 240.809 234.166 241.528 236.142 242.658C251.426 251.397 271.473 257.709 293.82 260.818C316.168 263.928 339.841 263.699 361.933 260.161C384.024 256.623 403.572 249.929 418.173 240.902C432.774 231.875 441.794 220.907 444.123 209.347C444.424 207.853 445.829 206.469 448.061 205.467C450.294 204.464 453.194 203.916 456.192 203.929L638.079 204.724Z" fill="url(#paint0_linear_1643_5954)" style="mix-blend-mode:overlay"/>
<path d="M68.7142 292.883C67.3865 293.347 65.8851 293.672 64.2999 293.839C62.7147 294.006 61.0784 294.011 59.4889 293.855C57.8994 293.699 56.3894 293.384 55.0494 292.929C53.7094 292.474 52.5669 291.889 51.6903 291.209C17.491 264.658 -0.468736 233.704 0.0093003 202.134C0.487336 170.564 19.3825 139.749 54.3819 113.46C89.3813 87.1711 138.967 66.5487 197.069 54.1173C255.171 41.6858 319.269 37.9846 381.517 43.4666C383.112 43.6071 384.635 43.9069 385.993 44.3482C387.351 44.7895 388.516 45.3632 389.42 46.0348C390.323 46.7064 390.946 47.4622 391.251 48.2569C391.556 49.0516 391.536 49.8689 391.194 50.6598L352.695 139.567C352.061 141.033 350.353 142.327 347.907 143.196C345.461 144.065 342.453 144.447 339.473 144.265C317.541 142.932 295.298 144.67 275.228 149.284C255.159 153.899 238.052 161.209 225.818 170.398C213.584 179.587 206.705 190.294 205.948 201.323C205.191 212.351 210.587 223.268 221.532 232.854C223.019 234.157 223.479 235.69 222.82 237.152C222.162 238.615 220.433 239.902 217.972 240.761L68.7142 292.883Z" fill="url(#paint1_linear_1643_5954)" style="mix-blend-mode:overlay"/>
<path d="M396.674 51.6372C397.044 50.8504 397.728 50.1088 398.685 49.4571C399.643 48.8053 400.853 48.2567 402.245 47.8442C403.637 47.4316 405.181 47.1635 406.785 47.056C408.39 46.9486 410.021 47.0038 411.581 47.2186C436.606 50.6625 460.714 55.5922 483.389 61.902C484.803 62.2955 486.043 62.8274 487.035 63.4658C488.028 64.1043 488.752 64.8362 489.165 65.6178C489.577 66.3993 489.67 67.2144 489.436 68.0142C489.203 68.814 488.649 69.5821 487.807 70.2724L393.186 147.88C391.626 149.159 389.166 150.101 386.287 150.521C383.408 150.941 380.319 150.81 377.625 150.151C372.892 148.995 368.011 147.997 363.013 147.164C360.169 146.689 357.781 145.701 356.32 144.393C354.858 143.086 354.428 141.552 355.113 140.094L396.674 51.6372Z" fill="url(#paint2_linear_1643_5954)" style="mix-blend-mode:overlay"/>
<path d="M524.565 79.0079C525.072 78.6936 525.699 78.4327 526.41 78.2405C527.121 78.0482 527.902 77.9286 528.706 77.8884C529.511 77.8482 530.324 77.8884 531.098 78.0065C531.871 78.1247 532.59 78.3184 533.211 78.5765C533.832 78.8345 534.344 79.1517 534.717 79.5095C535.09 79.8673 535.316 80.2585 535.382 80.6602C535.447 81.062 535.352 81.4663 535.101 81.8494C534.85 82.2326 534.448 82.587 533.919 82.8919L404.708 157.223C404.311 157.452 403.748 157.594 403.143 157.619C402.537 157.643 401.936 157.549 401.469 157.355C401.003 157.161 400.707 156.884 400.646 156.582C400.586 156.281 400.765 155.98 401.145 155.744L524.565 79.0079Z" fill="url(#paint3_linear_1643_5954)" style="mix-blend-mode:overlay"/>
<path d="M533.892 86.7417C534.977 86.1363 536.294 85.6467 537.766 85.3023C539.237 84.9578 540.832 84.7657 542.455 84.7373C544.078 84.709 545.695 84.8449 547.211 85.1372C548.727 85.4294 550.109 85.8718 551.275 86.4379C610.78 115.325 646.078 154.482 649.987 195.943C650.064 196.756 649.812 197.567 649.248 198.33C648.683 199.093 647.817 199.791 646.701 200.382C645.585 200.973 644.243 201.445 642.754 201.77C641.265 202.095 639.661 202.266 638.037 202.273L455.481 203.071C452.472 203.084 449.562 202.534 447.321 201.528C445.08 200.522 443.67 199.133 443.368 197.633C440.757 184.677 429.781 172.502 412.106 162.953C410.06 161.847 408.912 160.399 408.887 158.892C408.863 157.385 409.963 155.927 411.973 154.805L533.892 86.7417Z" fill="url(#paint4_linear_1643_5954)" style="mix-blend-mode:overlay"/>
<path d="M492.461 71.2389C493.324 70.555 494.453 69.9655 495.781 69.5057C497.109 69.0459 498.608 68.7253 500.189 68.563C501.77 68.4008 503.4 68.4002 504.981 68.5614C506.562 68.7226 508.062 69.0422 509.392 69.5011C510.894 70.0199 512.388 70.5449 513.873 71.0763C515.186 71.5464 516.297 72.1447 517.139 72.8353C517.981 73.5258 518.536 74.2945 518.771 75.0953C519.007 75.896 518.918 76.7124 518.509 77.4954C518.101 78.2785 517.382 79.0122 516.395 79.6525L401.931 153.912C401.013 154.508 399.672 154.904 398.186 155.017C396.701 155.13 395.186 154.952 393.956 154.52C392.726 154.087 391.875 153.434 391.58 152.695C391.286 151.956 391.569 151.189 392.373 150.552L492.461 71.2389Z" fill="url(#paint5_linear_1643_5954)" style="mix-blend-mode:overlay"/>
<path d="M509 10.5003L488.499 10.5002L445.499 53.7223" stroke="#EC7D00"/>
<circle cx="5.5" cy="5.5" r="5" transform="matrix(-1 0 0 1 451 48.2222)" fill="white" stroke="#EC7D00"/>
<path d="M511.291 17.0001V3.90918H513.662V9.92409H513.822L518.93 3.90918H521.825L516.763 9.78347L521.87 17.0001H519.019L515.113 11.3879L513.662 13.1009V17.0001H511.291Z" fill="#D97300"/>
<path d="M525.656 17.1982C525.034 17.1982 524.473 17.0874 523.975 16.8659C523.48 16.64 523.088 16.3076 522.798 15.8687C522.513 15.4298 522.37 14.8886 522.37 14.2451C522.37 13.6911 522.472 13.233 522.677 12.8708C522.882 12.5086 523.161 12.2188 523.514 12.0015C523.868 11.7842 524.266 11.6201 524.71 11.5093C525.157 11.3943 525.619 11.3112 526.097 11.26C526.672 11.2004 527.139 11.1471 527.497 11.1002C527.855 11.0491 528.114 10.9724 528.276 10.8701C528.443 10.7636 528.526 10.5995 528.526 10.3779V10.3396C528.526 9.85804 528.383 9.48517 528.097 9.22097C527.812 8.95677 527.401 8.82466 526.864 8.82466C526.297 8.82466 525.847 8.94824 525.515 9.1954C525.187 9.44256 524.965 9.73446 524.85 10.0711L522.69 9.76429C522.86 9.1677 523.141 8.66912 523.534 8.26855C523.926 7.86372 524.405 7.56117 524.972 7.36088C525.538 7.15634 526.165 7.05407 526.851 7.05407C527.324 7.05407 527.795 7.10946 528.264 7.22026C528.732 7.33105 529.161 7.51429 529.548 7.76997C529.936 8.0214 530.247 8.36444 530.482 8.79909C530.72 9.23375 530.84 9.77708 530.84 10.4291V17.0001H528.615V15.6514H528.538C528.398 15.9241 528.2 16.1798 527.944 16.4184C527.693 16.6528 527.375 16.8424 526.992 16.9873C526.612 17.1279 526.167 17.1982 525.656 17.1982ZM526.257 15.498C526.721 15.498 527.124 15.4063 527.465 15.2231C527.806 15.0356 528.068 14.7884 528.251 14.4816C528.438 14.1748 528.532 13.8403 528.532 13.4781V12.3211C528.46 12.3808 528.336 12.4362 528.161 12.4873C527.991 12.5384 527.799 12.5832 527.586 12.6215C527.373 12.6599 527.162 12.694 526.953 12.7238C526.744 12.7536 526.563 12.7792 526.41 12.8005C526.065 12.8474 525.756 12.9241 525.483 13.0306C525.21 13.1372 524.995 13.2863 524.837 13.4781C524.68 13.6656 524.601 13.9085 524.601 14.2068C524.601 14.6329 524.757 14.9546 525.068 15.172C525.379 15.3893 525.775 15.498 526.257 15.498Z" fill="#D97300"/>
<path d="M534.736 13.9191L534.729 11.1258H535.1L538.628 7.18191H541.332L536.992 12.0143H536.513L534.736 13.9191ZM532.626 17.0001V3.90918H534.94V17.0001H532.626ZM538.788 17.0001L535.592 12.532L537.152 10.9021L541.556 17.0001H538.788Z" fill="#D97300"/>
<path d="M544.648 11.2472V17.0001H542.334V3.90918H544.597V8.85023H544.712C544.942 8.29625 545.298 7.85946 545.78 7.53986C546.265 7.216 546.883 7.05407 547.633 7.05407C548.315 7.05407 548.91 7.19682 549.417 7.48233C549.924 7.76784 550.316 8.18546 550.593 8.73517C550.874 9.28489 551.015 9.95605 551.015 10.7487V17.0001H548.701V11.1066C548.701 10.4461 548.53 9.93262 548.189 9.56614C547.853 9.1954 547.38 9.01003 546.77 9.01003C546.361 9.01003 545.995 9.09952 545.671 9.2785C545.351 9.45321 545.1 9.70677 544.917 10.0392C544.738 10.3715 544.648 10.7742 544.648 11.2472Z" fill="#D97300"/>
<path d="M559.091 12.8708V7.18191H561.405V17.0001H559.162V15.2551H559.059C558.838 15.8048 558.473 16.2544 557.966 16.6038C557.463 16.9532 556.843 17.1279 556.106 17.1279C555.463 17.1279 554.894 16.9852 554.399 16.6997C553.909 16.4099 553.526 15.9901 553.249 15.4404C552.972 14.8865 552.833 14.2174 552.833 13.4333V7.18191H555.147V13.0754C555.147 13.6975 555.318 14.1919 555.659 14.5583C556 14.9248 556.447 15.108 557.001 15.108C557.342 15.108 557.672 15.0249 557.992 14.8588C558.311 14.6926 558.573 14.4454 558.778 14.1173C558.987 13.7849 559.091 13.3694 559.091 12.8708Z" fill="#D97300"/>
<path d="M563.245 17.0001V7.18191H565.488V8.81827H565.59C565.769 8.25151 566.076 7.81472 566.511 7.5079C566.95 7.19682 567.451 7.04128 568.013 7.04128C568.141 7.04128 568.284 7.04767 568.441 7.06046C568.603 7.06898 568.737 7.0839 568.844 7.1052V9.23375C568.746 9.19966 568.59 9.16983 568.377 9.14426C568.169 9.11444 567.966 9.09952 567.77 9.09952C567.348 9.09952 566.969 9.19114 566.632 9.37438C566.3 9.55336 566.038 9.80265 565.846 10.1222C565.654 10.4419 565.559 10.8105 565.559 11.2281V17.0001H563.245Z" fill="#D97300"/>
<path d="M569.841 17.0001V7.18191H572.155V17.0001H569.841ZM571.005 5.78844C570.638 5.78844 570.323 5.66699 570.059 5.42409C569.794 5.17694 569.662 4.88077 569.662 4.5356C569.662 4.18617 569.794 3.89 570.059 3.64711C570.323 3.39995 570.638 3.27637 571.005 3.27637C571.375 3.27637 571.691 3.39995 571.951 3.64711C572.215 3.89 572.347 4.18617 572.347 4.5356C572.347 4.88077 572.215 5.17694 571.951 5.42409C571.691 5.66699 571.375 5.78844 571.005 5.78844Z" fill="#D97300"/>
<path d="M578.022 3.90918H580.924L584.81 13.395H584.964L588.85 3.90918H591.752V17.0001H589.476V8.00648H589.355L585.737 16.9617H584.037L580.419 7.9873H580.297V17.0001H578.022V3.90918Z" fill="#D97300"/>
<path d="M598.595 7.18191V8.97168H592.951V7.18191H598.595ZM594.344 4.82963H596.658V14.047C596.658 14.358 596.705 14.5967 596.799 14.7629C596.897 14.9248 597.024 15.0356 597.182 15.0953C597.34 15.1549 597.514 15.1847 597.706 15.1847C597.851 15.1847 597.983 15.1741 598.103 15.1528C598.226 15.1315 598.32 15.1123 598.384 15.0953L598.774 16.9042C598.65 16.9468 598.473 16.9937 598.243 17.0448C598.017 17.096 597.74 17.1258 597.412 17.1343C596.833 17.1514 596.311 17.064 595.846 16.8722C595.382 16.6762 595.013 16.3737 594.74 15.9646C594.472 15.5555 594.34 15.0441 594.344 14.4305V4.82963Z" fill="#D97300"/>
<path d="M607.609 9.77708L605.5 10.0072C605.44 9.79412 605.336 9.59384 605.187 9.40634C605.042 9.21884 604.846 9.06756 604.599 8.9525C604.351 8.83745 604.049 8.77992 603.691 8.77992C603.209 8.77992 602.805 8.88432 602.476 9.09313C602.153 9.30194 601.993 9.57253 601.997 9.90492C601.993 10.1904 602.097 10.4227 602.31 10.6017C602.528 10.7806 602.886 10.9276 603.384 11.0427L605.059 11.4007C605.988 11.6009 606.678 11.9184 607.13 12.3531C607.586 12.7877 607.816 13.3566 607.82 14.0597C607.816 14.6776 607.635 15.2231 607.277 15.6961C606.923 16.1649 606.431 16.5313 605.8 16.7955C605.17 17.0597 604.445 17.1919 603.627 17.1919C602.425 17.1919 601.458 16.9404 600.725 16.4376C599.992 15.9305 599.555 15.2252 599.415 14.3218L601.671 14.1045C601.773 14.5477 601.991 14.8822 602.323 15.108C602.655 15.3339 603.088 15.4468 603.621 15.4468C604.17 15.4468 604.611 15.3339 604.944 15.108C605.28 14.8822 605.449 14.6031 605.449 14.2707C605.449 13.9894 605.34 13.7572 605.123 13.574C604.91 13.3907 604.577 13.2501 604.126 13.1521L602.451 12.8005C601.509 12.6045 600.812 12.2742 600.361 11.8097C599.909 11.341 599.685 10.7487 599.689 10.0328C599.685 9.42765 599.849 8.9035 600.182 8.46032C600.518 8.01287 600.985 7.6677 601.582 7.4248C602.182 7.17765 602.875 7.05407 603.659 7.05407C604.81 7.05407 605.715 7.29909 606.376 7.78915C607.04 8.27921 607.452 8.94185 607.609 9.77708Z" fill="#D97300"/>
<path d="M617.958 7.18191L614.462 17.0001H611.905L608.408 7.18191H610.876L613.132 14.4752H613.234L615.497 7.18191H617.958Z" fill="#D97300"/>
<path d="M621.563 17.1982C620.941 17.1982 620.381 17.0874 619.882 16.8659C619.388 16.64 618.996 16.3076 618.706 15.8687C618.421 15.4298 618.278 14.8886 618.278 14.2451C618.278 13.6911 618.38 13.233 618.585 12.8708C618.789 12.5086 619.068 12.2188 619.422 12.0015C619.776 11.7842 620.174 11.6201 620.617 11.5093C621.065 11.3943 621.527 11.3112 622.004 11.26C622.58 11.2004 623.046 11.1471 623.404 11.1002C623.762 11.0491 624.022 10.9724 624.184 10.8701C624.35 10.7636 624.433 10.5995 624.433 10.3779V10.3396C624.433 9.85804 624.291 9.48517 624.005 9.22097C623.72 8.95677 623.308 8.82466 622.771 8.82466C622.205 8.82466 621.755 8.94824 621.423 9.1954C621.095 9.44256 620.873 9.73446 620.758 10.0711L618.597 9.76429C618.768 9.1677 619.049 8.66912 619.441 8.26855C619.833 7.86372 620.313 7.56117 620.879 7.36088C621.446 7.15634 622.073 7.05407 622.759 7.05407C623.232 7.05407 623.703 7.10946 624.171 7.22026C624.64 7.33105 625.068 7.51429 625.456 7.76997C625.844 8.0214 626.155 8.36444 626.389 8.79909C626.628 9.23375 626.747 9.77708 626.747 10.4291V17.0001H624.523V15.6514H624.446C624.306 15.9241 624.107 16.1798 623.852 16.4184C623.6 16.6528 623.283 16.8424 622.899 16.9873C622.52 17.1279 622.075 17.1982 621.563 17.1982ZM622.164 15.498C622.629 15.498 623.031 15.4063 623.372 15.2231C623.713 15.0356 623.975 14.7884 624.158 14.4816C624.346 14.1748 624.44 13.8403 624.44 13.4781V12.3211C624.367 12.3808 624.244 12.4362 624.069 12.4873C623.899 12.5384 623.707 12.5832 623.494 12.6215C623.281 12.6599 623.07 12.694 622.861 12.7238C622.652 12.7536 622.471 12.7792 622.318 12.8005C621.972 12.8474 621.663 12.9241 621.391 13.0306C621.118 13.1372 620.903 13.2863 620.745 13.4781C620.587 13.6656 620.509 13.9085 620.509 14.2068C620.509 14.6329 620.664 14.9546 620.975 15.172C621.286 15.3893 621.683 15.498 622.164 15.498Z" fill="#D97300"/>
<path d="M630.848 11.2472V17.0001H628.534V7.18191H630.746V8.85023H630.861C631.087 8.30051 631.447 7.86373 631.941 7.53986C632.44 7.216 633.055 7.05407 633.788 7.05407C634.466 7.05407 635.056 7.19895 635.559 7.48872C636.066 7.7785 636.458 8.19824 636.735 8.74796C637.016 9.29767 637.155 9.96458 637.15 10.7487V17.0001H634.837V11.1066C634.837 10.4504 634.666 9.93688 634.325 9.56614C633.989 9.1954 633.522 9.01003 632.925 9.01003C632.52 9.01003 632.16 9.09952 631.845 9.2785C631.534 9.45321 631.289 9.70677 631.11 10.0392C630.935 10.3715 630.848 10.7742 630.848 11.2472Z" fill="#D97300"/>
<path d="M643.309 17.1919C642.325 17.1919 641.475 16.9873 640.759 16.5782C640.047 16.1649 639.5 15.5811 639.116 14.8268C638.733 14.0683 638.541 13.1755 638.541 12.1485C638.541 11.1386 638.733 10.2522 639.116 9.48944C639.504 8.72239 640.045 8.1258 640.74 7.69966C641.434 7.26926 642.25 7.05407 643.188 7.05407C643.793 7.05407 644.364 7.15208 644.901 7.3481C645.442 7.53986 645.919 7.83816 646.333 8.24299C646.75 8.64782 647.079 9.16344 647.317 9.78986C647.556 10.412 647.675 11.1535 647.675 12.0143V12.7238H639.628V11.1642H645.457C645.453 10.721 645.357 10.3268 645.169 9.98162C644.982 9.63219 644.72 9.35733 644.383 9.15705C644.051 8.95677 643.663 8.85662 643.22 8.85662C642.747 8.85662 642.331 8.97168 641.973 9.20179C641.615 9.42765 641.336 9.72594 641.136 10.0967C640.94 10.4632 640.84 10.8659 640.836 11.3048V12.6663C640.836 13.2373 640.94 13.7274 641.149 14.1365C641.358 14.5413 641.65 14.8524 642.025 15.0697C642.4 15.2828 642.838 15.3893 643.341 15.3893C643.678 15.3893 643.983 15.3424 644.255 15.2487C644.528 15.1507 644.765 15.0079 644.965 14.8204C645.165 14.6329 645.316 14.4007 645.419 14.1237L647.579 14.3666C647.443 14.9376 647.183 15.4362 646.799 15.8623C646.42 16.2842 645.934 16.6123 645.342 16.8467C644.75 17.0768 644.072 17.1919 643.309 17.1919Z" fill="#D97300"/>
<path d="M647.001 106.722L627.502 106.722L608.502 125.722" stroke="#AD78AC"/>
<circle cx="5.5" cy="5.5" r="5" transform="matrix(-1 0 0 1 615 120)" fill="white" stroke="#AD78AC"/>
<path d="M661.989 106.455C661.989 107.865 661.725 109.073 661.196 110.079C660.672 111.08 659.956 111.847 659.048 112.38C658.145 112.913 657.12 113.179 655.974 113.179C654.828 113.179 653.801 112.913 652.893 112.38C651.99 111.843 651.274 111.074 650.745 110.073C650.221 109.067 649.959 107.861 649.959 106.455C649.959 105.044 650.221 103.838 650.745 102.837C651.274 101.831 651.99 101.062 652.893 100.529C653.801 99.9966 654.828 99.7302 655.974 99.7302C657.12 99.7302 658.145 99.9966 659.048 100.529C659.956 101.062 660.672 101.831 661.196 102.837C661.725 103.838 661.989 105.044 661.989 106.455ZM659.605 106.455C659.605 105.462 659.449 104.624 659.138 103.943C658.831 103.257 658.405 102.739 657.86 102.389C657.314 102.036 656.686 101.859 655.974 101.859C655.262 101.859 654.634 102.036 654.088 102.389C653.543 102.739 653.115 103.257 652.803 103.943C652.497 104.624 652.343 105.462 652.343 106.455C652.343 107.448 652.497 108.287 652.803 108.973C653.115 109.655 653.543 110.173 654.088 110.526C654.634 110.876 655.262 111.051 655.974 111.051C656.686 111.051 657.314 110.876 657.86 110.526C658.405 110.173 658.831 109.655 659.138 108.973C659.449 108.287 659.605 107.448 659.605 106.455Z" fill="#AD78AC"/>
<path d="M668.491 103.182V104.972H662.847V103.182H668.491ZM664.241 100.83H666.554V110.047C666.554 110.358 666.601 110.597 666.695 110.763C666.793 110.925 666.921 111.036 667.079 111.095C667.236 111.155 667.411 111.185 667.603 111.185C667.748 111.185 667.88 111.174 667.999 111.153C668.123 111.132 668.216 111.112 668.28 111.095L668.67 112.904C668.547 112.947 668.37 112.994 668.14 113.045C667.914 113.096 667.637 113.126 667.309 113.134C666.729 113.151 666.207 113.064 665.743 112.872C665.278 112.676 664.91 112.374 664.637 111.965C664.368 111.556 664.236 111.044 664.241 110.431V100.83Z" fill="#AD78AC"/>
<path d="M672.411 107.247V113H670.097V99.9092H672.36V104.85H672.475C672.705 104.296 673.061 103.859 673.543 103.54C674.028 103.216 674.646 103.054 675.396 103.054C676.078 103.054 676.673 103.197 677.18 103.482C677.687 103.768 678.079 104.185 678.356 104.735C678.637 105.285 678.778 105.956 678.778 106.749V113H676.464V107.107C676.464 106.446 676.293 105.933 675.952 105.566C675.616 105.195 675.143 105.01 674.533 105.01C674.124 105.01 673.758 105.1 673.434 105.279C673.114 105.453 672.863 105.707 672.68 106.039C672.501 106.372 672.411 106.774 672.411 107.247Z" fill="#AD78AC"/>
<path d="M684.943 113.192C683.959 113.192 683.109 112.987 682.393 112.578C681.681 112.165 681.133 111.581 680.75 110.827C680.366 110.068 680.175 109.176 680.175 108.149C680.175 107.139 680.366 106.252 680.75 105.489C681.138 104.722 681.679 104.126 682.373 103.7C683.068 103.269 683.884 103.054 684.822 103.054C685.427 103.054 685.998 103.152 686.535 103.348C687.076 103.54 687.553 103.838 687.966 104.243C688.384 104.648 688.712 105.163 688.951 105.79C689.189 106.412 689.309 107.154 689.309 108.014V108.724H681.261V107.164H687.091C687.086 106.721 686.991 106.327 686.803 105.982C686.616 105.632 686.354 105.357 686.017 105.157C685.685 104.957 685.297 104.857 684.854 104.857C684.381 104.857 683.965 104.972 683.607 105.202C683.249 105.428 682.97 105.726 682.77 106.097C682.574 106.463 682.474 106.866 682.469 107.305V108.666C682.469 109.237 682.574 109.727 682.783 110.136C682.991 110.541 683.283 110.852 683.658 111.07C684.033 111.283 684.472 111.389 684.975 111.389C685.312 111.389 685.616 111.342 685.889 111.249C686.162 111.151 686.398 111.008 686.599 110.82C686.799 110.633 686.95 110.401 687.052 110.124L689.213 110.367C689.077 110.938 688.817 111.436 688.433 111.862C688.054 112.284 687.568 112.612 686.976 112.847C686.383 113.077 685.706 113.192 684.943 113.192Z" fill="#AD78AC"/>
<path d="M690.726 113V103.182H692.97V104.818H693.072C693.251 104.252 693.558 103.815 693.993 103.508C694.432 103.197 694.932 103.041 695.495 103.041C695.623 103.041 695.765 103.048 695.923 103.06C696.085 103.069 696.219 103.084 696.326 103.105V105.234C696.228 105.2 696.072 105.17 695.859 105.144C695.65 105.114 695.448 105.1 695.252 105.1C694.83 105.1 694.451 105.191 694.114 105.374C693.782 105.553 693.52 105.803 693.328 106.122C693.136 106.442 693.04 106.81 693.04 107.228V113H690.726Z" fill="#AD78AC"/>
<path d="M453.406 375.508C453.346 374.95 453.095 374.515 452.651 374.204C452.213 373.893 451.642 373.737 450.938 373.737C450.444 373.737 450.02 373.812 449.666 373.961C449.313 374.11 449.042 374.313 448.855 374.568C448.667 374.824 448.571 375.116 448.567 375.444C448.567 375.717 448.629 375.953 448.752 376.153C448.88 376.354 449.053 376.524 449.27 376.665C449.487 376.801 449.728 376.916 449.992 377.01C450.257 377.104 450.523 377.183 450.791 377.247L452.019 377.553C452.513 377.668 452.988 377.824 453.444 378.02C453.904 378.216 454.316 378.463 454.678 378.761C455.044 379.06 455.334 379.42 455.547 379.842C455.76 380.264 455.867 380.758 455.867 381.325C455.867 382.092 455.671 382.767 455.279 383.351C454.887 383.93 454.32 384.384 453.578 384.712C452.841 385.036 451.948 385.198 450.9 385.198C449.882 385.198 448.997 385.041 448.247 384.725C447.502 384.41 446.918 383.95 446.496 383.345C446.078 382.739 445.852 382.002 445.818 381.133H448.151C448.186 381.589 448.326 381.968 448.573 382.271C448.82 382.573 449.142 382.799 449.539 382.948C449.939 383.097 450.387 383.172 450.881 383.172C451.396 383.172 451.848 383.095 452.236 382.942C452.628 382.784 452.935 382.567 453.156 382.29C453.378 382.009 453.491 381.68 453.495 381.305C453.491 380.965 453.391 380.683 453.195 380.462C452.999 380.236 452.724 380.048 452.37 379.899C452.021 379.746 451.612 379.609 451.143 379.49L449.654 379.107C448.575 378.83 447.723 378.41 447.097 377.847C446.475 377.281 446.164 376.528 446.164 375.591C446.164 374.82 446.372 374.144 446.79 373.565C447.212 372.985 447.785 372.536 448.509 372.216C449.234 371.892 450.054 371.73 450.97 371.73C451.899 371.73 452.713 371.892 453.412 372.216C454.115 372.536 454.667 372.981 455.068 373.552C455.468 374.119 455.675 374.771 455.688 375.508H453.406Z" fill="#6F0023"/>
<path d="M460.164 385.198C459.542 385.198 458.981 385.087 458.483 384.866C457.988 384.64 457.596 384.308 457.307 383.869C457.021 383.43 456.878 382.889 456.878 382.245C456.878 381.691 456.981 381.233 457.185 380.871C457.39 380.509 457.669 380.219 458.023 380.002C458.376 379.784 458.775 379.62 459.218 379.509C459.665 379.394 460.128 379.311 460.605 379.26C461.18 379.2 461.647 379.147 462.005 379.1C462.363 379.049 462.623 378.972 462.785 378.87C462.951 378.764 463.034 378.6 463.034 378.378V378.34C463.034 377.858 462.891 377.485 462.606 377.221C462.32 376.957 461.909 376.825 461.372 376.825C460.805 376.825 460.356 376.948 460.023 377.195C459.695 377.443 459.473 377.734 459.358 378.071L457.198 377.764C457.368 377.168 457.65 376.669 458.042 376.269C458.434 375.864 458.913 375.561 459.48 375.361C460.047 375.156 460.673 375.054 461.359 375.054C461.832 375.054 462.303 375.109 462.772 375.22C463.241 375.331 463.669 375.514 464.057 375.77C464.444 376.021 464.755 376.364 464.99 376.799C465.228 377.234 465.348 377.777 465.348 378.429V385H463.123V383.651H463.047C462.906 383.924 462.708 384.18 462.452 384.418C462.201 384.653 461.883 384.842 461.5 384.987C461.121 385.128 460.675 385.198 460.164 385.198ZM460.765 383.498C461.229 383.498 461.632 383.406 461.973 383.223C462.314 383.036 462.576 382.788 462.759 382.482C462.947 382.175 463.04 381.84 463.04 381.478V380.321C462.968 380.381 462.844 380.436 462.67 380.487C462.499 380.538 462.307 380.583 462.094 380.622C461.881 380.66 461.67 380.694 461.461 380.724C461.253 380.754 461.072 380.779 460.918 380.801C460.573 380.847 460.264 380.924 459.991 381.031C459.719 381.137 459.503 381.286 459.346 381.478C459.188 381.666 459.109 381.908 459.109 382.207C459.109 382.633 459.265 382.955 459.576 383.172C459.887 383.389 460.283 383.498 460.765 383.498Z" fill="#6F0023"/>
<path d="M467.134 388.682V375.182H469.41V376.805H469.544C469.664 376.567 469.832 376.313 470.049 376.045C470.267 375.772 470.561 375.54 470.931 375.348C471.302 375.152 471.775 375.054 472.35 375.054C473.109 375.054 473.793 375.248 474.402 375.636C475.016 376.019 475.502 376.588 475.86 377.342C476.222 378.092 476.403 379.013 476.403 380.104C476.403 381.182 476.226 382.098 475.872 382.852C475.519 383.607 475.037 384.182 474.428 384.578C473.818 384.975 473.128 385.173 472.357 385.173C471.794 385.173 471.328 385.079 470.957 384.891C470.586 384.704 470.288 384.478 470.062 384.214C469.84 383.945 469.668 383.692 469.544 383.453H469.448V388.682H467.134ZM469.404 380.091C469.404 380.726 469.493 381.282 469.672 381.759C469.855 382.237 470.117 382.609 470.458 382.878C470.804 383.142 471.221 383.274 471.711 383.274C472.223 383.274 472.651 383.138 472.996 382.865C473.341 382.588 473.601 382.211 473.776 381.734C473.955 381.252 474.044 380.705 474.044 380.091C474.044 379.482 473.957 378.94 473.782 378.467C473.608 377.994 473.348 377.624 473.002 377.355C472.657 377.087 472.227 376.953 471.711 376.953C471.217 376.953 470.797 377.082 470.452 377.342C470.107 377.602 469.845 377.967 469.666 378.435C469.491 378.904 469.404 379.456 469.404 380.091Z" fill="#6F0023"/>
<path d="M482.191 385.192C481.207 385.192 480.357 384.987 479.641 384.578C478.929 384.165 478.381 383.581 477.998 382.827C477.614 382.068 477.423 381.176 477.423 380.149C477.423 379.139 477.614 378.252 477.998 377.489C478.386 376.722 478.927 376.126 479.621 375.7C480.316 375.269 481.132 375.054 482.07 375.054C482.675 375.054 483.246 375.152 483.783 375.348C484.324 375.54 484.801 375.838 485.215 376.243C485.632 376.648 485.96 377.163 486.199 377.79C486.438 378.412 486.557 379.153 486.557 380.014V380.724H478.509V379.164H484.339C484.335 378.721 484.239 378.327 484.051 377.982C483.864 377.632 483.602 377.357 483.265 377.157C482.933 376.957 482.545 376.857 482.102 376.857C481.629 376.857 481.213 376.972 480.855 377.202C480.497 377.428 480.218 377.726 480.018 378.097C479.822 378.463 479.722 378.866 479.717 379.305V380.666C479.717 381.237 479.822 381.727 480.031 382.136C480.239 382.541 480.531 382.852 480.906 383.07C481.281 383.283 481.72 383.389 482.223 383.389C482.56 383.389 482.864 383.342 483.137 383.249C483.41 383.151 483.646 383.008 483.847 382.82C484.047 382.633 484.198 382.401 484.3 382.124L486.461 382.367C486.325 382.938 486.065 383.436 485.681 383.862C485.302 384.284 484.816 384.612 484.224 384.847C483.631 385.077 482.954 385.192 482.191 385.192Z" fill="#6F0023"/>
<path d="M487.974 385V375.182H490.218V376.818H490.32C490.499 376.252 490.806 375.815 491.241 375.508C491.68 375.197 492.18 375.041 492.743 375.041C492.871 375.041 493.013 375.048 493.171 375.06C493.333 375.069 493.467 375.084 493.574 375.105V377.234C493.476 377.2 493.32 377.17 493.107 377.144C492.898 377.114 492.696 377.1 492.5 377.1C492.078 377.1 491.699 377.191 491.362 377.374C491.03 377.553 490.768 377.803 490.576 378.122C490.384 378.442 490.288 378.81 490.288 379.228V385H487.974Z" fill="#6F0023"/>
<path d="M497.221 385.198C496.598 385.198 496.038 385.087 495.54 384.866C495.045 384.64 494.653 384.308 494.363 383.869C494.078 383.43 493.935 382.889 493.935 382.245C493.935 381.691 494.037 381.233 494.242 380.871C494.446 380.509 494.726 380.219 495.079 380.002C495.433 379.784 495.831 379.62 496.275 379.509C496.722 379.394 497.184 379.311 497.662 379.26C498.237 379.2 498.704 379.147 499.062 379.1C499.419 379.049 499.679 378.972 499.841 378.87C500.008 378.764 500.091 378.6 500.091 378.378V378.34C500.091 377.858 499.948 377.485 499.662 377.221C499.377 376.957 498.966 376.825 498.429 376.825C497.862 376.825 497.412 376.948 497.08 377.195C496.752 377.443 496.53 377.734 496.415 378.071L494.255 377.764C494.425 377.168 494.706 376.669 495.098 376.269C495.491 375.864 495.97 375.561 496.537 375.361C497.103 375.156 497.73 375.054 498.416 375.054C498.889 375.054 499.36 375.109 499.829 375.22C500.297 375.331 500.726 375.514 501.113 375.77C501.501 376.021 501.812 376.364 502.047 376.799C502.285 377.234 502.405 377.777 502.405 378.429V385H500.18V383.651H500.103C499.963 383.924 499.765 384.18 499.509 384.418C499.258 384.653 498.94 384.842 498.557 384.987C498.177 385.128 497.732 385.198 497.221 385.198ZM497.821 383.498C498.286 383.498 498.689 383.406 499.03 383.223C499.37 383.036 499.633 382.788 499.816 382.482C500.003 382.175 500.097 381.84 500.097 381.478V380.321C500.025 380.381 499.901 380.436 499.726 380.487C499.556 380.538 499.364 380.583 499.151 380.622C498.938 380.66 498.727 380.694 498.518 380.724C498.309 380.754 498.128 380.779 497.975 380.801C497.63 380.847 497.321 380.924 497.048 381.031C496.775 381.137 496.56 381.286 496.402 381.478C496.245 381.666 496.166 381.908 496.166 382.207C496.166 382.633 496.321 382.955 496.633 383.172C496.944 383.389 497.34 383.498 497.821 383.498Z" fill="#6F0023"/>
<path d="M512.61 375.182L509.113 385H506.556L503.06 375.182H505.527L507.784 382.475H507.886L510.149 375.182H512.61Z" fill="#6F0023"/>
<path d="M513.671 385V375.182H515.985V385H513.671ZM514.834 373.788C514.468 373.788 514.152 373.667 513.888 373.424C513.624 373.177 513.492 372.881 513.492 372.536C513.492 372.186 513.624 371.89 513.888 371.647C514.152 371.4 514.468 371.276 514.834 371.276C515.205 371.276 515.52 371.4 515.78 371.647C516.044 371.89 516.176 372.186 516.176 372.536C516.176 372.881 516.044 373.177 515.78 373.424C515.52 373.667 515.205 373.788 514.834 373.788Z" fill="#6F0023"/>
<path d="M444.18 379.471L413.683 379.471L394.683 360.471" stroke="#6F0023"/>
<circle cx="396.5" cy="361.5" r="5" fill="white" stroke="#6F0023"/>
<path d="M0.216797 63.0001V49.9092H5.12589C6.13157 49.9092 6.97532 50.0839 7.65714 50.4333C8.34322 50.7828 8.86097 51.2728 9.21041 51.9035C9.5641 52.5299 9.74094 53.2607 9.74094 54.096C9.74094 54.9355 9.56197 55.6642 9.20401 56.282C8.85032 56.8957 8.3283 57.3708 7.63796 57.7075C6.94762 58.0399 6.09961 58.2061 5.09393 58.2061H1.59748V56.2373H4.77433C5.36239 56.2373 5.84393 56.1563 6.21893 55.9944C6.59393 55.8282 6.87092 55.5874 7.04989 55.2721C7.23313 54.9525 7.32475 54.5605 7.32475 54.096C7.32475 53.6315 7.23313 53.2352 7.04989 52.907C6.86665 52.5747 6.58754 52.3232 6.21254 52.1528C5.83754 51.9781 5.35387 51.8907 4.76154 51.8907H2.58825V63.0001H0.216797ZM6.97958 57.0683L10.2203 63.0001H7.57404L4.3908 57.0683H6.97958Z" fill="#B7A800"/>
<path d="M13.3909 59.9191L13.3845 57.1258H13.7553L17.2837 53.1819H19.9875L15.6473 58.0143H15.1679L13.3909 59.9191ZM11.2816 63.0001V49.9092H13.5955V63.0001H11.2816ZM17.4435 63.0001L14.2475 58.532L15.8071 56.9021L20.2112 63.0001H17.4435Z" fill="#B7A800"/>
<path d="M23.8149 63.1982C23.1927 63.1982 22.6324 63.0874 22.1338 62.8659C21.6395 62.64 21.2474 62.3076 20.9576 61.8687C20.6721 61.4298 20.5294 60.8886 20.5294 60.2451C20.5294 59.6911 20.6316 59.233 20.8362 58.8708C21.0407 58.5086 21.3199 58.2188 21.6735 58.0015C22.0272 57.7842 22.4257 57.6201 22.8689 57.5093C23.3163 57.3943 23.7787 57.3112 24.2559 57.26C24.8312 57.2004 25.2978 57.1471 25.6558 57.1002C26.0137 57.0491 26.2737 56.9724 26.4356 56.8701C26.6018 56.7636 26.6849 56.5995 26.6849 56.3779V56.3396C26.6849 55.858 26.5422 55.4852 26.2566 55.221C25.9711 54.9568 25.5599 54.8247 25.023 54.8247C24.4562 54.8247 24.0066 54.9482 23.6743 55.1954C23.3461 55.4426 23.1245 55.7345 23.0095 56.0711L20.849 55.7643C21.0194 55.1677 21.3007 54.6691 21.6927 54.2686C22.0848 53.8637 22.5642 53.5612 23.1309 53.3609C23.6977 53.1563 24.3241 53.0541 25.0102 53.0541C25.4832 53.0541 25.9541 53.1095 26.4228 53.2203C26.8916 53.3311 27.3199 53.5143 27.7076 53.77C28.0954 54.0214 28.4065 54.3644 28.6409 54.7991C28.8795 55.2338 28.9988 55.7771 28.9988 56.4291V63.0001H26.7744V61.6514H26.6977C26.5571 61.9241 26.3589 62.1798 26.1032 62.4184C25.8518 62.6528 25.5343 62.8424 25.1508 62.9873C24.7716 63.1279 24.3262 63.1982 23.8149 63.1982ZM24.4157 61.498C24.8802 61.498 25.2829 61.4063 25.6238 61.2231C25.9647 61.0356 26.2268 60.7884 26.4101 60.4816C26.5976 60.1748 26.6913 59.8403 26.6913 59.4781V58.3211C26.6189 58.3808 26.4953 58.4362 26.3206 58.4873C26.1501 58.5384 25.9584 58.5832 25.7453 58.6215C25.5322 58.6599 25.3213 58.694 25.1125 58.7238C24.9037 58.7536 24.7226 58.7792 24.5691 58.8005C24.224 58.8474 23.915 58.9241 23.6423 59.0306C23.3696 59.1372 23.1544 59.2863 22.9967 59.4781C22.839 59.6656 22.7602 59.9085 22.7602 60.2068C22.7602 60.6329 22.9157 60.9546 23.2268 61.172C23.5379 61.3893 23.9342 61.498 24.4157 61.498Z" fill="#B7A800"/>
<path d="M35.6882 53.1819V54.9717H30.0441V53.1819H35.6882ZM31.4375 50.8296H33.7514V60.047C33.7514 60.358 33.7983 60.5967 33.8921 60.7629C33.9901 60.9248 34.1179 61.0356 34.2756 61.0953C34.4333 61.1549 34.608 61.1847 34.7997 61.1847C34.9446 61.1847 35.0767 61.1741 35.1961 61.1528C35.3196 61.1315 35.4134 61.1123 35.4773 61.0953L35.8672 62.9042C35.7436 62.9468 35.5668 62.9937 35.3367 63.0448C35.1108 63.096 34.8338 63.1258 34.5057 63.1343C33.9262 63.1514 33.4041 63.064 32.9397 62.8722C32.4752 62.6762 32.1066 62.3737 31.8338 61.9646C31.5654 61.5555 31.4333 61.0441 31.4375 60.4305V50.8296Z" fill="#B7A800"/>
<path d="M44.7027 55.7771L42.5934 56.0072C42.5337 55.7941 42.4293 55.5938 42.2802 55.4063C42.1353 55.2188 41.9393 55.0676 41.6921 54.9525C41.4449 54.8374 41.1424 54.7799 40.7844 54.7799C40.3029 54.7799 39.8981 54.8843 39.5699 55.0931C39.2461 55.3019 39.0863 55.5725 39.0905 55.9049C39.0863 56.1904 39.1907 56.4227 39.4037 56.6017C39.6211 56.7806 39.979 56.9276 40.4776 57.0427L42.1523 57.4007C43.0813 57.6009 43.7716 57.9184 44.2233 58.3531C44.6793 58.7877 44.9094 59.3566 44.9137 60.0597C44.9094 60.6776 44.7283 61.2231 44.3704 61.6961C44.0167 62.1649 43.5245 62.5313 42.8938 62.7955C42.2631 63.0597 41.5387 63.1919 40.7205 63.1919C39.5188 63.1919 38.5515 62.9404 37.8185 62.4376C37.0856 61.9305 36.6488 61.2252 36.5081 60.3218L38.7645 60.1045C38.8668 60.5477 39.0841 60.8822 39.4165 61.108C39.7489 61.3339 40.1814 61.4468 40.7141 61.4468C41.2638 61.4468 41.7049 61.3339 42.0373 61.108C42.3739 60.8822 42.5422 60.6031 42.5422 60.2707C42.5422 59.9894 42.4336 59.7572 42.2162 59.574C42.0032 59.3907 41.6708 59.2501 41.2191 59.1521L39.5444 58.8005C38.6026 58.6045 37.9059 58.2742 37.4542 57.8097C37.0025 57.341 36.7787 56.7487 36.783 56.0328C36.7787 55.4276 36.9428 54.9035 37.2752 54.4603C37.6118 54.0129 38.0785 53.6677 38.675 53.4248C39.2759 53.1776 39.9684 53.0541 40.7525 53.0541C41.903 53.0541 42.8086 53.2991 43.4691 53.7892C44.1339 54.2792 44.5451 54.9419 44.7027 55.7771Z" fill="#B7A800"/>
<path d="M46.2817 63.0001V53.1819H48.5956V63.0001H46.2817ZM47.4451 51.7884C47.0786 51.7884 46.7632 51.667 46.499 51.4241C46.2348 51.1769 46.1027 50.8808 46.1027 50.5356C46.1027 50.1862 46.2348 49.89 46.499 49.6471C46.7632 49.3999 47.0786 49.2764 47.4451 49.2764C47.8158 49.2764 48.1311 49.3999 48.3911 49.6471C48.6553 49.89 48.7874 50.1862 48.7874 50.5356C48.7874 50.8808 48.6553 51.1769 48.3911 51.4241C48.1311 51.667 47.8158 51.7884 47.4451 51.7884Z" fill="#B7A800"/>
<path d="M55.3378 53.1819V54.9717H49.6936V53.1819H55.3378ZM51.0871 50.8296H53.401V60.047C53.401 60.358 53.4479 60.5967 53.5416 60.7629C53.6396 60.9248 53.7675 61.0356 53.9251 61.0953C54.0828 61.1549 54.2575 61.1847 54.4493 61.1847C54.5942 61.1847 54.7263 61.1741 54.8456 61.1528C54.9692 61.1315 55.0629 61.1123 55.1268 61.0953L55.5168 62.9042C55.3932 62.9468 55.2163 62.9937 54.9862 63.0448C54.7604 63.096 54.4834 63.1258 54.1552 63.1343C53.5757 63.1514 53.0537 63.064 52.5892 62.8722C52.1247 62.6762 51.7561 62.3737 51.4834 61.9646C51.2149 61.5555 51.0828 61.0441 51.0871 60.4305V50.8296Z" fill="#B7A800"/>
<path d="M60.9741 63.1919C59.9897 63.1919 59.1396 62.9873 58.4237 62.5782C57.712 62.1649 57.1644 61.5811 56.7809 60.8268C56.3974 60.0683 56.2056 59.1755 56.2056 58.1485C56.2056 57.1386 56.3974 56.2522 56.7809 55.4894C57.1687 54.7224 57.7099 54.1258 58.4045 53.6997C59.0991 53.2693 59.9151 53.0541 60.8526 53.0541C61.4577 53.0541 62.0288 53.1521 62.5657 53.3481C63.1069 53.5399 63.5842 53.8382 63.9975 54.243C64.4151 54.6478 64.7433 55.1634 64.9819 55.7899C65.2205 56.412 65.3399 57.1535 65.3399 58.0143V58.7238H57.2923V57.1642H63.1218C63.1175 56.721 63.0217 56.3268 62.8342 55.9816C62.6467 55.6322 62.3846 55.3573 62.0479 55.157C61.7156 54.9568 61.3278 54.8566 60.8846 54.8566C60.4116 54.8566 59.9961 54.9717 59.6381 55.2018C59.2802 55.4276 59.0011 55.7259 58.8008 56.0967C58.6048 56.4632 58.5046 56.8659 58.5004 57.3048V58.6663C58.5004 59.2373 58.6048 59.7274 58.8136 60.1365C59.0224 60.5413 59.3143 60.8524 59.6893 61.0697C60.0643 61.2828 60.5032 61.3893 61.006 61.3893C61.3427 61.3893 61.6474 61.3424 61.9201 61.2487C62.1928 61.1507 62.4293 61.0079 62.6296 60.8204C62.8299 60.6329 62.9812 60.4007 63.0835 60.1237L65.244 60.3666C65.1076 60.9376 64.8477 61.4362 64.4641 61.8623C64.0849 62.2842 63.5991 62.6123 63.0068 62.8467C62.4144 63.0768 61.7369 63.1919 60.9741 63.1919Z" fill="#B7A800"/>
<path d="M69.0713 49.9092V63.0001H66.7574V49.9092H69.0713Z" fill="#B7A800"/>
<path d="M70.9108 63.0001V53.1819H73.2247V63.0001H70.9108ZM72.0741 51.7884C71.7076 51.7884 71.3923 51.667 71.1281 51.4241C70.8639 51.1769 70.7318 50.8808 70.7318 50.5356C70.7318 50.1862 70.8639 49.89 71.1281 49.6471C71.3923 49.3999 71.7076 49.2764 72.0741 49.2764C72.4449 49.2764 72.7602 49.3999 73.0201 49.6471C73.2844 49.89 73.4165 50.1862 73.4165 50.5356C73.4165 50.8808 73.2844 51.1769 73.0201 51.4241C72.7602 51.667 72.4449 51.7884 72.0741 51.7884Z" fill="#B7A800"/>
<path d="M75 57.7221L105.497 57.722L124.497 76.7221" stroke="#C6B500"/>
<circle cx="123.5" cy="76.5" r="5" fill="white" stroke="#C6B500"/>
<path d="M570.717 55.8969V53.9089H581.161V55.8969H577.115V66.9998H574.763V55.8969H570.717Z" fill="#C89800"/>
<path d="M588.957 59.7768L586.847 60.0069C586.788 59.7939 586.683 59.5936 586.534 59.4061C586.389 59.2186 586.193 59.0673 585.946 58.9523C585.699 58.8372 585.396 58.7797 585.038 58.7797C584.557 58.7797 584.152 58.8841 583.824 59.0929C583.5 59.3017 583.34 59.5723 583.344 59.9047C583.34 60.1902 583.445 60.4224 583.658 60.6014C583.875 60.7804 584.233 60.9274 584.731 61.0425L586.406 61.4004C587.335 61.6007 588.026 61.9182 588.477 62.3528C588.933 62.7875 589.163 63.3564 589.168 64.0595C589.163 64.6774 588.982 65.2229 588.624 65.6959C588.271 66.1646 587.778 66.5311 587.148 66.7953C586.517 67.0595 585.793 67.1916 584.974 67.1916C583.773 67.1916 582.805 66.9402 582.072 66.4373C581.339 65.9302 580.903 65.225 580.762 64.3216L583.018 64.1042C583.121 64.5474 583.338 64.8819 583.67 65.1078C584.003 65.3337 584.435 65.4466 584.968 65.4466C585.518 65.4466 585.959 65.3337 586.291 65.1078C586.628 64.8819 586.796 64.6028 586.796 64.2704C586.796 63.9892 586.687 63.7569 586.47 63.5737C586.257 63.3905 585.925 63.2498 585.473 63.1518L583.798 62.8003C582.856 62.6042 582.16 62.274 581.708 61.8095C581.256 61.3408 581.033 60.7484 581.037 60.0325C581.033 59.4274 581.197 58.9033 581.529 58.4601C581.866 58.0126 582.332 57.6675 582.929 57.4246C583.53 57.1774 584.222 57.0538 585.006 57.0538C586.157 57.0538 587.062 57.2989 587.723 57.7889C588.388 58.279 588.799 58.9416 588.957 59.7768Z" fill="#C89800"/>
<path d="M594.818 67.1916C593.859 67.1916 593.028 66.9807 592.325 66.5588C591.622 66.1369 591.077 65.5467 590.689 64.7882C590.305 64.0297 590.114 63.1433 590.114 62.1291C590.114 61.1149 590.305 60.2264 590.689 59.4636C591.077 58.7008 591.622 58.1085 592.325 57.6866C593.028 57.2648 593.859 57.0538 594.818 57.0538C595.777 57.0538 596.608 57.2648 597.311 57.6866C598.014 58.1085 598.558 58.7008 598.941 59.4636C599.329 60.2264 599.523 61.1149 599.523 62.1291C599.523 63.1433 599.329 64.0297 598.941 64.7882C598.558 65.5467 598.014 66.1369 597.311 66.5588C596.608 66.9807 595.777 67.1916 594.818 67.1916ZM594.831 65.3379C595.351 65.3379 595.786 65.1952 596.135 64.9096C596.484 64.6199 596.744 64.2321 596.915 63.7463C597.09 63.2605 597.177 62.7193 597.177 62.1227C597.177 61.5219 597.09 60.9785 596.915 60.4927C596.744 60.0027 596.484 59.6128 596.135 59.323C595.786 59.0332 595.351 58.8883 594.831 58.8883C594.298 58.8883 593.855 59.0332 593.501 59.323C593.152 59.6128 592.89 60.0027 592.715 60.4927C592.545 60.9785 592.46 61.5219 592.46 62.1227C592.46 62.7193 592.545 63.2605 592.715 63.7463C592.89 64.2321 593.152 64.6199 593.501 64.9096C593.855 65.1952 594.298 65.3379 594.831 65.3379Z" fill="#C89800"/>
<path d="M603.261 53.9089V66.9998H600.947V53.9089H603.261Z" fill="#C89800"/>
<path d="M605.1 66.9998V57.1817H607.414V66.9998H605.1ZM606.263 55.7882C605.897 55.7882 605.582 55.6667 605.317 55.4239C605.053 55.1767 604.921 54.8805 604.921 54.5354C604.921 54.1859 605.053 53.8898 605.317 53.6469C605.582 53.3997 605.897 53.2761 606.263 53.2761C606.634 53.2761 606.95 53.3997 607.209 53.6469C607.474 53.8898 607.606 54.1859 607.606 54.5354C607.606 54.8805 607.474 55.1767 607.209 55.4239C606.95 55.6667 606.634 55.7882 606.263 55.7882Z" fill="#C89800"/>
<path d="M611.363 63.9189L611.356 61.1256H611.727L615.256 57.1817H617.959L613.619 62.014H613.14L611.363 63.9189ZM609.253 66.9998V53.9089H611.567V66.9998H609.253ZM615.415 66.9998L612.219 62.5318L613.779 60.9018L618.183 66.9998H615.415Z" fill="#C89800"/>
<path d="M622.84 67.1916C621.881 67.1916 621.05 66.9807 620.347 66.5588C619.644 66.1369 619.098 65.5467 618.711 64.7882C618.327 64.0297 618.135 63.1433 618.135 62.1291C618.135 61.1149 618.327 60.2264 618.711 59.4636C619.098 58.7008 619.644 58.1085 620.347 57.6866C621.05 57.2648 621.881 57.0538 622.84 57.0538C623.799 57.0538 624.63 57.2648 625.333 57.6866C626.036 58.1085 626.579 58.7008 626.963 59.4636C627.351 60.2264 627.544 61.1149 627.544 62.1291C627.544 63.1433 627.351 64.0297 626.963 64.7882C626.579 65.5467 626.036 66.1369 625.333 66.5588C624.63 66.9807 623.799 67.1916 622.84 67.1916ZM622.853 65.3379C623.373 65.3379 623.807 65.1952 624.157 64.9096C624.506 64.6199 624.766 64.2321 624.936 63.7463C625.111 63.2605 625.199 62.7193 625.199 62.1227C625.199 61.5219 625.111 60.9785 624.936 60.4927C624.766 60.0027 624.506 59.6128 624.157 59.323C623.807 59.0332 623.373 58.8883 622.853 58.8883C622.32 58.8883 621.877 59.0332 621.523 59.323C621.174 59.6128 620.912 60.0027 620.737 60.4927C620.566 60.9785 620.481 61.5219 620.481 62.1227C620.481 62.7193 620.566 63.2605 620.737 63.7463C620.912 64.2321 621.174 64.6199 621.523 64.9096C621.877 65.1952 622.32 65.3379 622.853 65.3379Z" fill="#C89800"/>
<path d="M635.226 62.8706V57.1817H637.54V66.9998H635.297V65.2548H635.194C634.973 65.8045 634.608 66.2541 634.101 66.6035C633.598 66.953 632.978 67.1277 632.241 67.1277C631.598 67.1277 631.029 66.9849 630.534 66.6994C630.044 66.4096 629.661 65.9899 629.384 65.4402C629.107 64.8862 628.968 64.2172 628.968 63.4331V57.1817H631.282V63.0751C631.282 63.6973 631.453 64.1916 631.794 64.5581C632.135 64.9246 632.582 65.1078 633.136 65.1078C633.477 65.1078 633.807 65.0247 634.127 64.8585C634.446 64.6923 634.708 64.4452 634.913 64.117C635.122 63.7846 635.226 63.3692 635.226 62.8706Z" fill="#C89800"/>
<path d="M639.38 66.9998V57.1817H641.623V58.818H641.725C641.904 58.2513 642.211 57.8145 642.646 57.5077C643.085 57.1966 643.586 57.041 644.148 57.041C644.276 57.041 644.419 57.0474 644.576 57.0602C644.738 57.0687 644.872 57.0837 644.979 57.105V59.2335C644.881 59.1994 644.725 59.1696 644.512 59.144C644.304 59.1142 644.101 59.0993 643.905 59.0993C643.483 59.0993 643.104 59.1909 642.767 59.3741C642.435 59.5531 642.173 59.8024 641.981 60.122C641.789 60.4416 641.693 60.8102 641.693 61.2278V66.9998H639.38Z" fill="#C89800"/>
<path d="M645.976 66.9998V57.1817H648.29V66.9998H645.976ZM647.14 55.7882C646.773 55.7882 646.458 55.6667 646.194 55.4239C645.929 55.1767 645.797 54.8805 645.797 54.5354C645.797 54.1859 645.929 53.8898 646.194 53.6469C646.458 53.3997 646.773 53.2761 647.14 53.2761C647.51 53.2761 647.826 53.3997 648.086 53.6469C648.35 53.8898 648.482 54.1859 648.482 54.5354C648.482 54.8805 648.35 55.1767 648.086 55.4239C647.826 55.6667 647.51 55.7882 647.14 55.7882Z" fill="#C89800"/>
<path d="M652.846 65.2101L652.763 65.9132C652.704 66.4501 652.597 66.9956 652.444 67.5496C652.294 68.1078 652.137 68.6213 651.971 69.09C651.804 69.5588 651.67 69.9274 651.568 70.1959H650.008C650.068 69.9359 650.149 69.5822 650.251 69.1348C650.358 68.6873 650.46 68.1845 650.558 67.6263C650.656 67.068 650.722 66.5013 650.756 65.926L650.801 65.2101H652.846Z" fill="#C89800"/>
<path d="M657.946 55.8969V53.9089H668.39V55.8969H664.344V66.9998H661.992V55.8969H657.946Z" fill="#C89800"/>
<path d="M676.186 59.7768L674.076 60.0069C674.017 59.7939 673.912 59.5936 673.763 59.4061C673.618 59.2186 673.422 59.0673 673.175 58.9523C672.928 58.8372 672.625 58.7797 672.267 58.7797C671.786 58.7797 671.381 58.8841 671.053 59.0929C670.729 59.3017 670.569 59.5723 670.573 59.9047C670.569 60.1902 670.674 60.4224 670.887 60.6014C671.104 60.7804 671.462 60.9274 671.96 61.0425L673.635 61.4004C674.564 61.6007 675.255 61.9182 675.706 62.3528C676.162 62.7875 676.392 63.3564 676.397 64.0595C676.392 64.6774 676.211 65.2229 675.853 65.6959C675.5 66.1646 675.007 66.5311 674.377 66.7953C673.746 67.0595 673.022 67.1916 672.203 67.1916C671.002 67.1916 670.034 66.9402 669.301 66.4373C668.568 65.9302 668.132 65.225 667.991 64.3216L670.247 64.1042C670.35 64.5474 670.567 64.8819 670.899 65.1078C671.232 65.3337 671.664 65.4466 672.197 65.4466C672.747 65.4466 673.188 65.3337 673.52 65.1078C673.857 64.8819 674.025 64.6028 674.025 64.2704C674.025 63.9892 673.916 63.7569 673.699 63.5737C673.486 63.3905 673.154 63.2498 672.702 63.1518L671.027 62.8003C670.085 62.6042 669.389 62.274 668.937 61.8095C668.485 61.3408 668.262 60.7484 668.266 60.0325C668.262 59.4274 668.426 58.9033 668.758 58.4601C669.095 58.0126 669.561 57.6675 670.158 57.4246C670.759 57.1774 671.451 57.0538 672.235 57.0538C673.386 57.0538 674.291 57.2989 674.952 57.7889C675.617 58.279 676.028 58.9416 676.186 59.7768Z" fill="#C89800"/>
<path d="M680.59 67.198C679.968 67.198 679.407 67.0872 678.909 66.8656C678.414 66.6398 678.022 66.3074 677.733 65.8685C677.447 65.4295 677.304 64.8883 677.304 64.2449C677.304 63.6909 677.407 63.2328 677.611 62.8706C677.816 62.5084 678.095 62.2186 678.449 62.0013C678.802 61.7839 679.201 61.6199 679.644 61.5091C680.091 61.394 680.554 61.3109 681.031 61.2598C681.606 61.2001 682.073 61.1469 682.431 61.1C682.789 61.0489 683.049 60.9721 683.211 60.8699C683.377 60.7633 683.46 60.5993 683.46 60.3777V60.3393C683.46 59.8578 683.317 59.4849 683.032 59.2207C682.746 58.9565 682.335 58.8244 681.798 58.8244C681.231 58.8244 680.782 58.948 680.449 59.1952C680.121 59.4423 679.9 59.7342 679.784 60.0709L677.624 59.764C677.794 59.1675 678.076 58.6689 678.468 58.2683C678.86 57.8635 679.339 57.5609 679.906 57.3606C680.473 57.1561 681.099 57.0538 681.785 57.0538C682.258 57.0538 682.729 57.1092 683.198 57.22C683.667 57.3308 684.095 57.514 684.483 57.7697C684.87 58.0212 685.181 58.3642 685.416 58.7989C685.654 59.2335 685.774 59.7768 685.774 60.4288V66.9998H683.549V65.6511H683.473C683.332 65.9239 683.134 66.1795 682.878 66.4182C682.627 66.6525 682.309 66.8422 681.926 66.9871C681.547 67.1277 681.101 67.198 680.59 67.198ZM681.191 65.4977C681.655 65.4977 682.058 65.4061 682.399 65.2229C682.74 65.0354 683.002 64.7882 683.185 64.4814C683.373 64.1746 683.466 63.84 683.466 63.4778V62.3209C683.394 62.3805 683.27 62.4359 683.096 62.4871C682.925 62.5382 682.733 62.5829 682.52 62.6213C682.307 62.6596 682.096 62.6937 681.887 62.7236C681.679 62.7534 681.498 62.779 681.344 62.8003C680.999 62.8471 680.69 62.9239 680.417 63.0304C680.145 63.1369 679.929 63.2861 679.772 63.4778C679.614 63.6653 679.535 63.9082 679.535 64.2065C679.535 64.6327 679.691 64.9544 680.002 65.1717C680.313 65.389 680.709 65.4977 681.191 65.4977Z" fill="#C89800"/>
<path d="M691.83 70.8862C690.999 70.8862 690.286 70.7733 689.689 70.5474C689.092 70.3258 688.613 70.0275 688.251 69.6525C687.889 69.2775 687.637 68.8621 687.497 68.4061L689.58 67.9011C689.674 68.0929 689.811 68.2825 689.989 68.47C690.168 68.6618 690.409 68.8194 690.712 68.943C691.019 69.0709 691.404 69.1348 691.869 69.1348C692.525 69.1348 693.068 68.975 693.499 68.6554C693.929 68.34 694.144 67.8202 694.144 67.0957V65.2356H694.029C693.91 65.4743 693.735 65.7193 693.505 65.9707C693.279 66.2221 692.979 66.4331 692.604 66.6035C692.233 66.774 691.766 66.8592 691.204 66.8592C690.45 66.8592 689.766 66.6824 689.152 66.3287C688.543 65.9707 688.057 65.4381 687.695 64.7307C687.337 64.019 687.158 63.1284 687.158 62.0588C687.158 60.9807 687.337 60.0709 687.695 59.3294C688.057 58.5837 688.545 58.019 689.159 57.6355C689.772 57.2477 690.456 57.0538 691.21 57.0538C691.786 57.0538 692.259 57.1518 692.629 57.3479C693.004 57.5396 693.303 57.7719 693.524 58.0446C693.746 58.3131 693.914 58.5666 694.029 58.8052H694.157V57.1817H696.439V67.1596C696.439 67.9991 696.239 68.6937 695.838 69.2435C695.438 69.7932 694.89 70.2044 694.195 70.4771C693.501 70.7498 692.713 70.8862 691.83 70.8862ZM691.85 65.0439C692.34 65.0439 692.757 64.9246 693.102 64.6859C693.448 64.4473 693.71 64.1042 693.889 63.6568C694.068 63.2094 694.157 62.6724 694.157 62.046C694.157 61.4281 694.068 60.8869 693.889 60.4224C693.714 59.9579 693.454 59.5979 693.109 59.3422C692.768 59.0822 692.348 58.9523 691.85 58.9523C691.334 58.9523 690.904 59.0865 690.558 59.355C690.213 59.6234 689.953 59.992 689.779 60.4608C689.604 60.9253 689.516 61.4537 689.516 62.046C689.516 62.6469 689.604 63.1731 689.779 63.6248C689.958 64.0723 690.22 64.4217 690.565 64.6731C690.914 64.9203 691.342 65.0439 691.85 65.0439Z" fill="#C89800"/>
<path d="M702.617 67.1916C701.633 67.1916 700.783 66.9871 700.067 66.578C699.355 66.1646 698.807 65.5808 698.424 64.8265C698.04 64.068 697.849 63.1753 697.849 62.1483C697.849 61.1383 698.04 60.252 698.424 59.4892C698.812 58.7221 699.353 58.1256 700.048 57.6994C700.742 57.269 701.558 57.0538 702.496 57.0538C703.101 57.0538 703.672 57.1518 704.209 57.3479C704.75 57.5396 705.227 57.8379 705.641 58.2427C706.058 58.6476 706.386 59.1632 706.625 59.7896C706.864 60.4118 706.983 61.1533 706.983 62.014V62.7236H698.935V61.1639H704.765C704.761 60.7207 704.665 60.3265 704.477 59.9814C704.29 59.6319 704.028 59.3571 703.691 59.1568C703.359 58.9565 702.971 58.8564 702.528 58.8564C702.055 58.8564 701.639 58.9714 701.281 59.2015C700.923 59.4274 700.644 59.7257 700.444 60.0964C700.248 60.4629 700.148 60.8656 700.143 61.3045V62.666C700.143 63.2371 700.248 63.7271 700.457 64.1362C700.665 64.541 700.957 64.8521 701.332 65.0694C701.707 65.2825 702.146 65.389 702.649 65.389C702.986 65.389 703.29 65.3422 703.563 65.2484C703.836 65.1504 704.072 65.0077 704.273 64.8202C704.473 64.6327 704.624 64.4004 704.726 64.1234L706.887 64.3663C706.751 64.9373 706.491 65.4359 706.107 65.8621C705.728 66.2839 705.242 66.6121 704.65 66.8464C704.057 67.0765 703.38 67.1916 702.617 67.1916Z" fill="#C89800"/>
<path d="M708.4 66.9998V57.1817H710.644V58.818H710.746C710.925 58.2513 711.232 57.8145 711.667 57.5077C712.106 57.1966 712.606 57.041 713.169 57.041C713.297 57.041 713.439 57.0474 713.597 57.0602C713.759 57.0687 713.893 57.0837 714 57.105V59.2335C713.902 59.1994 713.746 59.1696 713.533 59.144C713.324 59.1142 713.122 59.0993 712.926 59.0993C712.504 59.0993 712.125 59.1909 711.788 59.3741C711.456 59.5531 711.194 59.8024 711.002 60.122C710.81 60.4416 710.714 60.8102 710.714 61.2278V66.9998H708.4Z" fill="#C89800"/>
<path d="M714.997 66.9998V57.1817H717.311V66.9998H714.997ZM716.161 55.7882C715.794 55.7882 715.479 55.6667 715.214 55.4239C714.95 55.1767 714.818 54.8805 714.818 54.5354C714.818 54.1859 714.95 53.8898 715.214 53.6469C715.479 53.3997 715.794 53.2761 716.161 53.2761C716.531 53.2761 716.847 53.3997 717.107 53.6469C717.371 53.8898 717.503 54.1859 717.503 54.5354C717.503 54.8805 717.371 55.1767 717.107 55.4239C716.847 55.6667 716.531 55.7882 716.161 55.7882Z" fill="#C89800"/>
<path d="M569.999 60.722L550.5 60.7221L531.501 79.7222" stroke="#C89800"/>
<circle cx="5.5" cy="5.5" r="5" transform="matrix(-1 0 0 1 537 74)" fill="white" stroke="#C89800"/>
<path d="M567.973 41.9996H565.441L570.05 28.9087H572.978L577.593 41.9996H575.061L571.565 31.5934H571.463L567.973 41.9996ZM568.056 36.8668H574.959V38.7716H568.056V36.8668Z" fill="#3A2C57"/>
<path d="M580.989 28.9087V41.9996H578.675V28.9087H580.989Z" fill="#3A2C57"/>
<path d="M587.175 42.1914C586.19 42.1914 585.34 41.9868 584.624 41.5777C583.913 41.1644 583.365 40.5806 582.981 39.8263C582.598 39.0678 582.406 38.175 582.406 37.148C582.406 36.1381 582.598 35.2517 582.981 34.4889C583.369 33.7219 583.91 33.1253 584.605 32.6992C585.3 32.2688 586.116 32.0536 587.053 32.0536C587.658 32.0536 588.229 32.1516 588.766 32.3476C589.307 32.5394 589.785 32.8377 590.198 33.2425C590.616 33.6473 590.944 34.163 591.182 34.7894C591.421 35.4115 591.54 36.153 591.54 37.0138V37.7233H583.493V36.1637H589.322C589.318 35.7205 589.222 35.3263 589.035 34.9811C588.847 34.6317 588.585 34.3568 588.248 34.1566C587.916 33.9563 587.528 33.8561 587.085 33.8561C586.612 33.8561 586.197 33.9712 585.839 34.2013C585.481 34.4272 585.202 34.7255 585.001 35.0962C584.805 35.4627 584.705 35.8654 584.701 36.3043V37.6658C584.701 38.2368 584.805 38.7269 585.014 39.136C585.223 39.5408 585.515 39.8519 585.89 40.0692C586.265 40.2823 586.704 40.3888 587.207 40.3888C587.543 40.3888 587.848 40.3419 588.121 40.2482C588.393 40.1502 588.63 40.0074 588.83 39.8199C589.03 39.6324 589.182 39.4002 589.284 39.1232L591.445 39.3661C591.308 39.9371 591.048 40.4357 590.665 40.8618C590.285 41.2837 589.8 41.6118 589.207 41.8462C588.615 42.0763 587.937 42.1914 587.175 42.1914Z" fill="#3A2C57"/>
<path d="M594.639 32.1814L596.621 35.8057L598.634 32.1814H601.082L598.123 37.0905L601.133 41.9996H598.698L596.621 38.4648L594.562 41.9996H592.108L595.099 37.0905L592.185 32.1814H594.639Z" fill="#3A2C57"/>
<path d="M605.122 42.1978C604.5 42.1978 603.94 42.087 603.441 41.8654C602.947 41.6395 602.555 41.3071 602.265 40.8682C601.979 40.4293 601.837 39.8881 601.837 39.2446C601.837 38.6907 601.939 38.2326 602.143 37.8703C602.348 37.5081 602.627 37.2184 602.981 37.001C603.334 36.7837 603.733 36.6196 604.176 36.5088C604.624 36.3938 605.086 36.3107 605.563 36.2595C606.138 36.1999 606.605 36.1466 606.963 36.0997C607.321 36.0486 607.581 35.9719 607.743 35.8696C607.909 35.7631 607.992 35.599 607.992 35.3774V35.3391C607.992 34.8576 607.849 34.4847 607.564 34.2205C607.278 33.9563 606.867 33.8242 606.33 33.8242C605.763 33.8242 605.314 33.9478 604.982 34.1949C604.653 34.4421 604.432 34.734 604.317 35.0706L602.156 34.7638C602.327 34.1672 602.608 33.6686 603 33.2681C603.392 32.8632 603.871 32.5607 604.438 32.3604C605.005 32.1559 605.631 32.0536 606.317 32.0536C606.79 32.0536 607.261 32.109 607.73 32.2198C608.199 32.3306 608.627 32.5138 609.015 32.7695C609.403 33.0209 609.714 33.3639 609.948 33.7986C610.187 34.2333 610.306 34.7766 610.306 35.4286V41.9996H608.082V40.6509H608.005C607.864 40.9236 607.666 41.1793 607.41 41.4179C607.159 41.6523 606.842 41.8419 606.458 41.9868C606.079 42.1274 605.634 42.1978 605.122 42.1978ZM605.723 40.4975C606.187 40.4975 606.59 40.4059 606.931 40.2226C607.272 40.0351 607.534 39.788 607.717 39.4811C607.905 39.1743 607.999 38.8398 607.999 38.4776V37.3206C607.926 37.3803 607.803 37.4357 607.628 37.4868C607.457 37.538 607.266 37.5827 607.053 37.621C606.839 37.6594 606.629 37.6935 606.42 37.7233C606.211 37.7532 606.03 37.7787 605.876 37.8C605.531 37.8469 605.222 37.9236 604.95 38.0301C604.677 38.1367 604.462 38.2858 604.304 38.4776C604.146 38.6651 604.067 38.908 604.067 39.2063C604.067 39.6324 604.223 39.9541 604.534 40.1715C604.845 40.3888 605.241 40.4975 605.723 40.4975Z" fill="#3A2C57"/>
<path d="M614.407 36.2468V41.9996H612.093V32.1814H614.304V33.8497H614.419C614.645 33.3 615.005 32.8632 615.5 32.5394C615.998 32.2155 616.614 32.0536 617.347 32.0536C618.025 32.0536 618.615 32.1985 619.118 32.4882C619.625 32.778 620.017 33.1978 620.294 33.7475C620.575 34.2972 620.714 34.9641 620.709 35.7482V41.9996H618.395V36.1061C618.395 35.4499 618.225 34.9364 617.884 34.5657C617.547 34.1949 617.081 34.0095 616.484 34.0095C616.079 34.0095 615.719 34.099 615.404 34.278C615.093 34.4527 614.848 34.7063 614.669 35.0387C614.494 35.371 614.407 35.7737 614.407 36.2468Z" fill="#3A2C57"/>
<path d="M626.165 42.1722C625.394 42.1722 624.703 41.974 624.094 41.5777C623.485 41.1814 623.003 40.6061 622.649 39.8519C622.296 39.0976 622.119 38.1814 622.119 37.1033C622.119 36.0124 622.298 35.0919 622.656 34.3419C623.018 33.5877 623.506 33.0188 624.12 32.6353C624.733 32.2475 625.417 32.0536 626.171 32.0536C626.747 32.0536 627.22 32.1516 627.59 32.3476C627.961 32.5394 628.255 32.7716 628.473 33.0443C628.69 33.3128 628.858 33.5664 628.978 33.805H629.073V28.9087H631.394V41.9996H629.118V40.4527H628.978C628.858 40.6914 628.686 40.9449 628.46 41.2134C628.234 41.4776 627.936 41.7034 627.565 41.8909C627.194 42.0784 626.728 42.1722 626.165 42.1722ZM626.811 40.2737C627.301 40.2737 627.718 40.1416 628.063 39.8774C628.409 39.609 628.671 39.2361 628.85 38.7588C629.029 38.2816 629.118 37.7255 629.118 37.0905C629.118 36.4556 629.029 35.9037 628.85 35.435C628.675 34.9662 628.415 34.6019 628.07 34.3419C627.729 34.082 627.309 33.952 626.811 33.952C626.295 33.952 625.865 34.0862 625.519 34.3547C625.174 34.6232 624.914 34.9939 624.74 35.4669C624.565 35.9399 624.478 36.4811 624.478 37.0905C624.478 37.7041 624.565 38.2517 624.74 38.7333C624.919 39.2105 625.181 39.5877 625.526 39.8647C625.875 40.1374 626.304 40.2737 626.811 40.2737Z" fill="#3A2C57"/>
<path d="M633.319 41.9996V32.1814H635.563V33.8178H635.665C635.844 33.251 636.151 32.8142 636.586 32.5074C637.025 32.1963 637.525 32.0408 638.088 32.0408C638.216 32.0408 638.358 32.0472 638.516 32.06C638.678 32.0685 638.812 32.0834 638.919 32.1047V34.2333C638.821 34.1992 638.665 34.1693 638.452 34.1438C638.243 34.1139 638.041 34.099 637.845 34.099C637.423 34.099 637.044 34.1907 636.707 34.3739C636.375 34.5529 636.113 34.8022 635.921 35.1218C635.729 35.4414 635.633 35.81 635.633 36.2276V41.9996H633.319Z" fill="#3A2C57"/>
<path d="M643.795 42.1914C642.836 42.1914 642.005 41.9804 641.302 41.5585C640.599 41.1367 640.053 40.5465 639.665 39.788C639.282 39.0294 639.09 38.1431 639.09 37.1289C639.09 36.1147 639.282 35.2262 639.665 34.4634C640.053 33.7006 640.599 33.1083 641.302 32.6864C642.005 32.2645 642.836 32.0536 643.795 32.0536C644.753 32.0536 645.584 32.2645 646.287 32.6864C646.991 33.1083 647.534 33.7006 647.917 34.4634C648.305 35.2262 648.499 36.1147 648.499 37.1289C648.499 38.1431 648.305 39.0294 647.917 39.788C647.534 40.5465 646.991 41.1367 646.287 41.5585C645.584 41.9804 644.753 42.1914 643.795 42.1914ZM643.807 40.3377C644.327 40.3377 644.762 40.1949 645.111 39.9094C645.461 39.6196 645.721 39.2318 645.891 38.746C646.066 38.2603 646.153 37.7191 646.153 37.1225C646.153 36.5216 646.066 35.9783 645.891 35.4925C645.721 35.0024 645.461 34.6125 645.111 34.3228C644.762 34.033 644.327 33.8881 643.807 33.8881C643.275 33.8881 642.831 34.033 642.478 34.3228C642.128 34.6125 641.866 35.0024 641.692 35.4925C641.521 35.9783 641.436 36.5216 641.436 37.1225C641.436 37.7191 641.521 38.2603 641.692 38.746C641.866 39.2318 642.128 39.6196 642.478 39.9094C642.831 40.1949 643.275 40.3377 643.807 40.3377Z" fill="#3A2C57"/>
<path d="M656.181 37.8703V32.1814H658.495V41.9996H656.251V40.2546H656.149C655.927 40.8043 655.563 41.2539 655.056 41.6033C654.553 41.9527 653.933 42.1274 653.196 42.1274C652.552 42.1274 651.983 41.9847 651.489 41.6992C650.999 41.4094 650.615 40.9897 650.339 40.4399C650.062 39.886 649.923 39.2169 649.923 38.4328V32.1814H652.237V38.0749C652.237 38.697 652.407 39.1914 652.748 39.5578C653.089 39.9243 653.537 40.1076 654.091 40.1076C654.432 40.1076 654.762 40.0245 655.081 39.8583C655.401 39.6921 655.663 39.4449 655.868 39.1168C656.076 38.7844 656.181 38.3689 656.181 37.8703Z" fill="#3A2C57"/>
<path d="M662.648 28.9087V41.9996H660.334V28.9087H662.648Z" fill="#3A2C57"/>
<path d="M664.488 41.9996V32.1814H666.801V41.9996H664.488ZM665.651 30.788C665.284 30.788 664.969 30.6665 664.705 30.4236C664.441 30.1764 664.309 29.8803 664.309 29.5351C664.309 29.1857 664.441 28.8895 664.705 28.6466C664.969 28.3995 665.284 28.2759 665.651 28.2759C666.022 28.2759 666.337 28.3995 666.597 28.6466C666.861 28.8895 666.993 29.1857 666.993 29.5351C666.993 29.8803 666.861 30.1764 666.597 30.4236C666.337 30.6665 666.022 30.788 665.651 30.788Z" fill="#3A2C57"/>
<path d="M673.985 28.2951L669.766 43.9684H667.74L671.958 28.2951H673.985Z" fill="#3A2C57"/>
<path d="M675.024 28.9087H677.925L681.812 38.3945H681.965L685.852 28.9087H688.754V41.9996H686.478V33.006H686.357L682.739 41.9612H681.038L677.421 32.9868H677.299V41.9996H675.024V28.9087Z" fill="#3A2C57"/>
<path d="M696.952 37.8703V32.1814H699.265V41.9996H697.022V40.2546H696.92C696.698 40.8043 696.334 41.2539 695.827 41.6033C695.324 41.9527 694.704 42.1274 693.966 42.1274C693.323 42.1274 692.754 41.9847 692.26 41.6992C691.77 41.4094 691.386 40.9897 691.109 40.4399C690.832 39.886 690.694 39.2169 690.694 38.4328V32.1814H693.008V38.0749C693.008 38.697 693.178 39.1914 693.519 39.5578C693.86 39.9243 694.307 40.1076 694.861 40.1076C695.202 40.1076 695.533 40.0245 695.852 39.8583C696.172 39.6921 696.434 39.4449 696.638 39.1168C696.847 38.7844 696.952 38.3689 696.952 37.8703Z" fill="#3A2C57"/>
<path d="M701.105 32.1814H703.419V42.5621C703.419 43.2695 703.285 43.8533 703.016 44.3135C702.748 44.7737 702.36 45.1168 701.853 45.3426C701.346 45.5685 700.73 45.6814 700.005 45.6814C699.92 45.6814 699.841 45.6793 699.769 45.675C699.697 45.675 699.618 45.6729 699.532 45.6686V43.783C699.596 43.7872 699.654 43.7894 699.705 43.7894C699.756 43.7936 699.809 43.7958 699.865 43.7958C700.308 43.7958 700.625 43.6871 700.817 43.4698C701.009 43.2567 701.105 42.9435 701.105 42.5301V32.1814ZM702.255 30.788C701.885 30.788 701.567 30.6665 701.303 30.4236C701.043 30.1764 700.913 29.8803 700.913 29.5351C700.913 29.1857 701.043 28.8895 701.303 28.6466C701.567 28.3995 701.885 28.2759 702.255 28.2759C702.622 28.2759 702.935 28.3995 703.195 28.6466C703.459 28.8895 703.591 29.1857 703.591 29.5351C703.591 29.8803 703.459 30.1764 703.195 30.4236C702.935 30.6665 702.622 30.788 702.255 30.788Z" fill="#3A2C57"/>
<path d="M711.516 37.8703V32.1814H713.83V41.9996H711.586V40.2546H711.484C711.263 40.8043 710.898 41.2539 710.391 41.6033C709.888 41.9527 709.268 42.1274 708.531 42.1274C707.888 42.1274 707.319 41.9847 706.824 41.6992C706.334 41.4094 705.951 40.9897 705.674 40.4399C705.397 39.886 705.258 39.2169 705.258 38.4328V32.1814H707.572V38.0749C707.572 38.697 707.743 39.1914 708.084 39.5578C708.424 39.9243 708.872 40.1076 709.426 40.1076C709.767 40.1076 710.097 40.0245 710.417 39.8583C710.736 39.6921 710.998 39.4449 711.203 39.1168C711.412 38.7844 711.516 38.3689 711.516 37.8703Z" fill="#3A2C57"/>
<path d="M715.669 41.9996V32.1814H717.913V33.8178H718.015C718.194 33.251 718.501 32.8142 718.936 32.5074C719.375 32.1963 719.875 32.0408 720.438 32.0408C720.566 32.0408 720.708 32.0472 720.866 32.06C721.028 32.0685 721.162 32.0834 721.269 32.1047V34.2333C721.171 34.1992 721.015 34.1693 720.802 34.1438C720.593 34.1139 720.391 34.099 720.195 34.099C719.773 34.099 719.394 34.1907 719.057 34.3739C718.725 34.5529 718.463 34.8022 718.271 35.1218C718.079 35.4414 717.983 35.81 717.983 36.2276V41.9996H715.669Z" fill="#3A2C57"/>
<path d="M726.208 42.1914C725.224 42.1914 724.374 41.9868 723.658 41.5777C722.946 41.1644 722.399 40.5806 722.015 39.8263C721.632 39.0678 721.44 38.175 721.44 37.148C721.44 36.1381 721.632 35.2517 722.015 34.4889C722.403 33.7219 722.944 33.1253 723.639 32.6992C724.333 32.2688 725.149 32.0536 726.087 32.0536C726.692 32.0536 727.263 32.1516 727.8 32.3476C728.341 32.5394 728.819 32.8377 729.232 33.2425C729.65 33.6473 729.978 34.163 730.216 34.7894C730.455 35.4115 730.574 36.153 730.574 37.0138V37.7233H722.527V36.1637H728.356C728.352 35.7205 728.256 35.3263 728.069 34.9811C727.881 34.6317 727.619 34.3568 727.282 34.1566C726.95 33.9563 726.562 33.8561 726.119 33.8561C725.646 33.8561 725.23 33.9712 724.873 34.2013C724.515 34.4272 724.235 34.7255 724.035 35.0962C723.839 35.4627 723.739 35.8654 723.735 36.3043V37.6658C723.735 38.2368 723.839 38.7269 724.048 39.136C724.257 39.5408 724.549 39.8519 724.924 40.0692C725.299 40.2823 725.738 40.3888 726.24 40.3888C726.577 40.3888 726.882 40.3419 727.154 40.2482C727.427 40.1502 727.664 40.0074 727.864 39.8199C728.064 39.6324 728.216 39.4002 728.318 39.1232L730.478 39.3661C730.342 39.9371 730.082 40.4357 729.699 40.8618C729.319 41.2837 728.833 41.6118 728.241 41.8462C727.649 42.0763 726.971 42.1914 726.208 42.1914Z" fill="#3A2C57"/>
<path d="M736.894 32.1814V33.9712H731.25V32.1814H736.894ZM732.644 29.8291H734.958V39.0465C734.958 39.3576 735.005 39.5962 735.098 39.7624C735.196 39.9243 735.324 40.0351 735.482 40.0948C735.64 40.1544 735.814 40.1843 736.006 40.1843C736.151 40.1843 736.283 40.1736 736.402 40.1523C736.526 40.131 736.62 40.1118 736.684 40.0948L737.073 41.9037C736.95 41.9463 736.773 41.9932 736.543 42.0443C736.317 42.0955 736.04 42.1253 735.712 42.1338C735.132 42.1509 734.61 42.0635 734.146 41.8718C733.681 41.6757 733.313 41.3732 733.04 40.9641C732.772 40.555 732.64 40.0436 732.644 39.43V29.8291Z" fill="#3A2C57"/>
<path d="M744.547 37.8703V32.1814H746.861V41.9996H744.618V40.2546H744.516C744.294 40.8043 743.93 41.2539 743.422 41.6033C742.92 41.9527 742.3 42.1274 741.562 42.1274C740.919 42.1274 740.35 41.9847 739.856 41.6992C739.366 41.4094 738.982 40.9897 738.705 40.4399C738.428 39.886 738.29 39.2169 738.29 38.4328V32.1814H740.604V38.0749C740.604 38.697 740.774 39.1914 741.115 39.5578C741.456 39.9243 741.903 40.1076 742.457 40.1076C742.798 40.1076 743.128 40.0245 743.448 39.8583C743.768 39.6921 744.03 39.4449 744.234 39.1168C744.443 38.7844 744.547 38.3689 744.547 37.8703Z" fill="#3A2C57"/>
<path d="M751.015 28.9087V41.9996H748.701V28.9087H751.015Z" fill="#3A2C57"/>
<path d="M752.854 41.9996V32.1814H755.168V41.9996H752.854ZM754.018 30.788C753.651 30.788 753.336 30.6665 753.072 30.4236C752.807 30.1764 752.675 29.8803 752.675 29.5351C752.675 29.1857 752.807 28.8895 753.072 28.6466C753.336 28.3995 753.651 28.2759 754.018 28.2759C754.388 28.2759 754.704 28.3995 754.964 28.6466C755.228 28.8895 755.36 29.1857 755.36 29.5351C755.36 29.8803 755.228 30.1764 754.964 30.4236C754.704 30.6665 754.388 30.788 754.018 30.788Z" fill="#3A2C57"/>
<path d="M759.724 40.2098L759.641 40.913C759.581 41.4499 759.475 41.9953 759.321 42.5493C759.172 43.1076 759.015 43.621 758.848 44.0898C758.682 44.5585 758.548 44.9272 758.446 45.1956H756.886C756.946 44.9357 757.027 44.582 757.129 44.1345C757.236 43.6871 757.338 43.1843 757.436 42.626C757.534 42.0678 757.6 41.501 757.634 40.9257L757.679 40.2098H759.724Z" fill="#3A2C57"/>
<path d="M765.399 41.9996V28.9087H770.308C771.314 28.9087 772.157 29.0834 772.839 29.4328C773.525 29.7823 774.043 30.2723 774.393 30.903C774.746 31.5294 774.923 32.2603 774.923 33.0955C774.923 33.935 774.744 34.6637 774.386 35.2816C774.032 35.8952 773.51 36.3703 772.82 36.707C772.13 37.0394 771.282 37.2056 770.276 37.2056H766.78V35.2368H769.956C770.545 35.2368 771.026 35.1559 771.401 34.9939C771.776 34.8277 772.053 34.587 772.232 34.2716C772.415 33.952 772.507 33.56 772.507 33.0955C772.507 32.631 772.415 32.2347 772.232 31.9066C772.049 31.5742 771.77 31.3228 771.395 31.1523C771.02 30.9776 770.536 30.8902 769.944 30.8902H767.77V41.9996H765.399ZM772.162 36.0678L775.403 41.9996H772.756L769.573 36.0678H772.162Z" fill="#3A2C57"/>
<path d="M779.289 42.1978C778.667 42.1978 778.106 42.087 777.608 41.8654C777.114 41.6395 776.722 41.3071 776.432 40.8682C776.146 40.4293 776.004 39.8881 776.004 39.2446C776.004 38.6907 776.106 38.2326 776.31 37.8703C776.515 37.5081 776.794 37.2184 777.148 37.001C777.501 36.7837 777.9 36.6196 778.343 36.5088C778.79 36.3938 779.253 36.3107 779.73 36.2595C780.305 36.1999 780.772 36.1466 781.13 36.0997C781.488 36.0486 781.748 35.9719 781.91 35.8696C782.076 35.7631 782.159 35.599 782.159 35.3774V35.3391C782.159 34.8576 782.016 34.4847 781.731 34.2205C781.445 33.9563 781.034 33.8242 780.497 33.8242C779.93 33.8242 779.481 33.9478 779.148 34.1949C778.82 34.4421 778.599 34.734 778.484 35.0706L776.323 34.7638C776.494 34.1672 776.775 33.6686 777.167 33.2681C777.559 32.8632 778.038 32.5607 778.605 32.3604C779.172 32.1559 779.798 32.0536 780.484 32.0536C780.957 32.0536 781.428 32.109 781.897 32.2198C782.366 32.3306 782.794 32.5138 783.182 32.7695C783.57 33.0209 783.881 33.3639 784.115 33.7986C784.354 34.2333 784.473 34.7766 784.473 35.4286V41.9996H782.249V40.6509H782.172C782.031 40.9236 781.833 41.1793 781.577 41.4179C781.326 41.6523 781.008 41.8419 780.625 41.9868C780.246 42.1274 779.8 42.1978 779.289 42.1978ZM779.89 40.4975C780.354 40.4975 780.757 40.4059 781.098 40.2226C781.439 40.0351 781.701 39.788 781.884 39.4811C782.072 39.1743 782.165 38.8398 782.165 38.4776V37.3206C782.093 37.3803 781.969 37.4357 781.795 37.4868C781.624 37.538 781.432 37.5827 781.219 37.621C781.006 37.6594 780.795 37.6935 780.587 37.7233C780.378 37.7532 780.197 37.7787 780.043 37.8C779.698 37.8469 779.389 37.9236 779.116 38.0301C778.844 38.1367 778.629 38.2858 778.471 38.4776C778.313 38.6651 778.234 38.908 778.234 39.2063C778.234 39.6324 778.39 39.9541 778.701 40.1715C779.012 40.3888 779.408 40.4975 779.89 40.4975Z" fill="#3A2C57"/>
<path d="M790.542 42.1914C789.562 42.1914 788.721 41.9762 788.017 41.5458C787.319 41.1154 786.78 40.5209 786.4 39.7624C786.025 38.9996 785.838 38.1218 785.838 37.1289C785.838 36.1317 786.03 35.2517 786.413 34.4889C786.797 33.7219 787.338 33.1253 788.037 32.6992C788.74 32.2688 789.571 32.0536 790.53 32.0536C791.326 32.0536 792.032 32.2006 792.645 32.4946C793.263 32.7844 793.755 33.1956 794.122 33.7283C794.488 34.2567 794.697 34.8746 794.748 35.582H792.537C792.447 35.109 792.234 34.7148 791.897 34.3995C791.565 34.0799 791.12 33.9201 790.562 33.9201C790.088 33.9201 789.673 34.0479 789.315 34.3036C788.957 34.555 788.678 34.9172 788.478 35.3902C788.282 35.8632 788.184 36.43 788.184 37.0905C788.184 37.7595 788.282 38.3348 788.478 38.8164C788.674 39.2936 788.949 39.6622 789.302 39.9222C789.66 40.1779 790.08 40.3057 790.562 40.3057C790.902 40.3057 791.207 40.2418 791.476 40.1139C791.748 39.9818 791.976 39.7922 792.16 39.5451C792.343 39.2979 792.468 38.9975 792.537 38.6438H794.748C794.693 39.3384 794.488 39.9541 794.135 40.4911C793.781 41.0237 793.299 41.4414 792.69 41.7439C792.081 42.0422 791.365 42.1914 790.542 42.1914Z" fill="#3A2C57"/>
<path d="M798.422 36.2468V41.9996H796.108V28.9087H798.371V33.8497H798.486C798.716 33.2958 799.072 32.859 799.554 32.5394C800.039 32.2155 800.657 32.0536 801.407 32.0536C802.089 32.0536 802.684 32.1963 803.191 32.4818C803.698 32.7674 804.09 33.185 804.367 33.7347C804.648 34.2844 804.789 34.9556 804.789 35.7482V41.9996H802.475V36.1061C802.475 35.4456 802.304 34.9321 801.963 34.5657C801.627 34.1949 801.154 34.0095 800.544 34.0095C800.135 34.0095 799.769 34.099 799.445 34.278C799.125 34.4527 798.874 34.7063 798.691 35.0387C798.512 35.371 798.422 35.7737 798.422 36.2468Z" fill="#3A2C57"/>
<path d="M809.433 42.1978C808.811 42.1978 808.25 42.087 807.752 41.8654C807.257 41.6395 806.865 41.3071 806.575 40.8682C806.29 40.4293 806.147 39.8881 806.147 39.2446C806.147 38.6907 806.249 38.2326 806.454 37.8703C806.659 37.5081 806.938 37.2184 807.291 37.001C807.645 36.7837 808.043 36.6196 808.487 36.5088C808.934 36.3938 809.396 36.3107 809.874 36.2595C810.449 36.1999 810.916 36.1466 811.274 36.0997C811.632 36.0486 811.891 35.9719 812.053 35.8696C812.22 35.7631 812.303 35.599 812.303 35.3774V35.3391C812.303 34.8576 812.16 34.4847 811.874 34.2205C811.589 33.9563 811.178 33.8242 810.641 33.8242C810.074 33.8242 809.624 33.9478 809.292 34.1949C808.964 34.4421 808.742 34.734 808.627 35.0706L806.467 34.7638C806.637 34.1672 806.918 33.6686 807.311 33.2681C807.703 32.8632 808.182 32.5607 808.749 32.3604C809.315 32.1559 809.942 32.0536 810.628 32.0536C811.101 32.0536 811.572 32.109 812.041 32.2198C812.509 32.3306 812.938 32.5138 813.325 32.7695C813.713 33.0209 814.024 33.3639 814.259 33.7986C814.497 34.2333 814.617 34.7766 814.617 35.4286V41.9996H812.392V40.6509H812.315C812.175 40.9236 811.977 41.1793 811.721 41.4179C811.47 41.6523 811.152 41.8419 810.769 41.9868C810.389 42.1274 809.944 42.1978 809.433 42.1978ZM810.034 40.4975C810.498 40.4975 810.901 40.4059 811.242 40.2226C811.583 40.0351 811.845 39.788 812.028 39.4811C812.215 39.1743 812.309 38.8398 812.309 38.4776V37.3206C812.237 37.3803 812.113 37.4357 811.938 37.4868C811.768 37.538 811.576 37.5827 811.363 37.621C811.15 37.6594 810.939 37.6935 810.73 37.7233C810.521 37.7532 810.34 37.7787 810.187 37.8C809.842 37.8469 809.533 37.9236 809.26 38.0301C808.987 38.1367 808.772 38.2858 808.615 38.4776C808.457 38.6651 808.378 38.908 808.378 39.2063C808.378 39.6324 808.534 39.9541 808.845 40.1715C809.156 40.3888 809.552 40.4975 810.034 40.4975Z" fill="#3A2C57"/>
<path d="M563.999 35.5003L545.5 35.5003L509.499 71.5008" stroke="#3A2C57"/>
<circle cx="5.5" cy="5.5" r="5" transform="matrix(-1 0 0 1 515 66)" fill="white" stroke="#3A2C57"/>
<defs>
<linearGradient id="paint0_linear_1643_5954" x1="304.287" y1="207.17" x2="321.648" y2="369.975" gradientUnits="userSpaceOnUse">
<stop stop-color="white" stop-opacity="0.33"/>
<stop offset="1" stop-opacity="0.33"/>
</linearGradient>
<linearGradient id="paint1_linear_1643_5954" x1="158.995" y1="46.0594" x2="218.938" y2="288.224" gradientUnits="userSpaceOnUse">
<stop stop-color="white" stop-opacity="0.33"/>
<stop offset="1" stop-opacity="0.33"/>
</linearGradient>
<linearGradient id="paint2_linear_1643_5954" x1="409.531" y1="49.0779" x2="438.132" y2="146.058" gradientUnits="userSpaceOnUse">
<stop stop-color="white" stop-opacity="0.33"/>
<stop offset="1" stop-opacity="0.33"/>
</linearGradient>
<linearGradient id="paint3_linear_1643_5954" x1="455.371" y1="79.4683" x2="472.839" y2="156.53" gradientUnits="userSpaceOnUse">
<stop stop-color="white" stop-opacity="0.33"/>
<stop offset="1" stop-opacity="0.33"/>
</linearGradient>
<linearGradient id="paint4_linear_1643_5954" x1="506.816" y1="87.1004" x2="528.646" y2="203.221" gradientUnits="userSpaceOnUse">
<stop stop-color="white" stop-opacity="0.33"/>
<stop offset="1" stop-opacity="0.33"/>
</linearGradient>
<linearGradient id="paint5_linear_1643_5954" x1="443.224" y1="70.1731" x2="464.677" y2="152.579" gradientUnits="userSpaceOnUse">
<stop stop-color="white" stop-opacity="0.33"/>
<stop offset="1" stop-opacity="0.33"/>
</linearGradient>
</defs>
</svg>
