<svg width="59" height="59" viewBox="0 0 59 59" fill="none" xmlns="http://www.w3.org/2000/svg">
<path d="M29.5 0L32.4602 1.33514L35.6334 0.644646L38.2514 2.56608L41.4987 2.55041L43.66 4.97416L46.8397 5.634L48.4498 8.45414L51.4228 9.76065L52.4114 12.8539L55.0477 14.75L55.3716 17.9812L57.5562 20.384L57.2011 23.6119L58.8384 26.4164L57.82 29.5L58.8384 32.5836L57.2011 35.3881L57.5562 38.616L55.3716 41.0188L55.0477 44.25L52.4114 46.1461L51.4228 49.2394L48.4498 50.5459L46.8397 53.366L43.66 54.0258L41.4987 56.4496L38.2514 56.4339L35.6334 58.3554L32.4602 57.6649L29.5 59L26.5398 57.6649L23.3666 58.3554L20.7486 56.4339L17.5013 56.4496L15.34 54.0258L12.1603 53.366L10.5502 50.5459L7.57723 49.2394L6.58864 46.1461L3.95225 44.25L3.62839 41.0188L1.44383 38.616L1.79886 35.3881L0.161604 32.5836L1.18 29.5L0.161604 26.4164L1.79886 23.6119L1.44383 20.384L3.62839 17.9812L3.95225 14.75L6.58864 12.8539L7.57723 9.76065L10.5502 8.45414L12.1603 5.634L15.34 4.97416L17.5013 2.55041L20.7486 2.56608L23.3666 0.644646L26.5398 1.33514L29.5 0Z" fill="#62A50D"/>
<path fill-rule="evenodd" clip-rule="evenodd" d="M27.0022 42.3342L24.74 40.1097L20.4125 44.6649L23.3894 47.7623L26.0486 45.0004V44.766C26.1683 43.869 26.5042 43.0404 27.0022 42.3342ZM32.6726 36.3148L31.9513 35.5556L34.115 33.278L34.8363 34.0372L32.6726 36.3148Z" fill="white"/>
<path d="M24.74 40.1097L27.0022 42.3342C26.5042 43.0404 26.1683 43.869 26.0486 44.766V45.0004L23.3894 47.7623L20.4125 44.6649L24.74 40.1097Z" fill="#62A50D"/>
<path d="M31.9513 35.5556L32.6726 36.3148L34.8363 34.0372L34.115 33.278L31.9513 35.5556Z" fill="#62A50D"/>
<path fill-rule="evenodd" clip-rule="evenodd" d="M35.1726 31.3544L36.7148 32.9961C36.7148 32.9961 36.9883 33.278 36.7148 33.5586L33.0332 37.4536C32.4034 38.0937 32.1408 38.8862 31.8574 39.7418L31.857 39.743C31.8281 39.8303 26.3746 47.4994 26.3746 47.4994L23.2975 50.7385C22.9483 51.0934 22.193 51.082 21.855 50.7385L19.6903 48.462L18.2488 46.9425C17.9225 46.5867 17.9117 45.7917 18.2488 45.4241L23.6582 39.7301C24.8265 38.4564 26.0885 37.5568 27.6066 36.8498C27.9766 36.6776 28.3421 36.5434 28.6962 36.4135C29.5089 36.1151 30.2614 35.8389 30.8695 35.176L34.5 31.3544C34.8363 31.0009 35.1726 31.3544 35.1726 31.3544ZM27.0022 42.3342L24.74 40.1097L20.4125 44.6649L23.3894 47.7623L26.0486 45.0004V44.766C26.1683 43.869 26.5042 43.0404 27.0022 42.3342ZM32.6726 36.3148L31.9513 35.5556L34.115 33.278L34.8363 34.0372L32.6726 36.3148Z" fill="white"/>
<circle cx="31.5" cy="45.5" r="5.5" fill="white"/>
<path d="M31.5 40.5L31.5 45.5" stroke="#62A50D" stroke-linecap="round"/>
<path d="M31.5 45.5L30 47" stroke="#62A50D" stroke-linecap="round"/>
<path d="M32 49.5C32 49.2239 31.7761 49 31.5 49C31.2239 49 31 49.2239 31 49.5H32ZM32 51V49.5H31V51H32Z" fill="#62A50D"/>
<path d="M35.5 45C35.2239 45 35 45.2239 35 45.5C35 45.7761 35.2239 46 35.5 46V45ZM37 45H35.5V46H37V45Z" fill="#62A50D"/>
<path d="M27.5 46C27.7761 46 28 45.7761 28 45.5C28 45.2239 27.7761 45 27.5 45V46ZM24.5 46H27.5V45H24.5V46Z" fill="#62A50D"/>
<path d="M35.5276 45.5C35.5276 47.7091 33.7367 49.5 31.5276 49.5C29.3184 49.5 27.5276 47.7091 27.5276 45.5C27.5276 43.2909 29.3184 41.5 31.5276 41.5C33.7367 41.5 35.5276 43.2909 35.5276 45.5Z" stroke="#62A50D"/>
<path d="M12.5515 30H10.2845L13.2291 21.2727H16.0373L18.9819 30H16.7149L14.6651 23.4716H14.597L12.5515 30ZM12.2489 26.5653H16.9876V28.1676H12.2489V26.5653ZM24.8786 24.1236C24.8303 23.9446 24.7593 23.7869 24.6656 23.6506C24.5718 23.5114 24.4568 23.3935 24.3204 23.2969C24.184 23.2003 24.0278 23.1278 23.8517 23.0795C23.6755 23.0284 23.4823 23.0028 23.2721 23.0028C22.8488 23.0028 22.4823 23.1051 22.1727 23.3097C21.8659 23.5142 21.6286 23.8125 21.461 24.2045C21.2934 24.5937 21.2096 25.0668 21.2096 25.6236C21.2096 26.1832 21.2906 26.6605 21.4525 27.0554C21.6144 27.4503 21.8488 27.7514 22.1556 27.9588C22.4625 28.1662 22.8346 28.2699 23.2721 28.2699C23.6585 28.2699 23.9852 28.2074 24.2522 28.0824C24.5221 27.9545 24.7267 27.7741 24.8659 27.5412C25.0051 27.3082 25.0747 27.0341 25.0747 26.7188L25.4667 26.7656H23.3446V25.2273H27.1073V26.3821C27.1073 27.1634 26.9411 27.8324 26.6088 28.3892C26.2792 28.946 25.8247 29.3736 25.2451 29.6719C24.6684 29.9702 24.0051 30.1193 23.2551 30.1193C22.4227 30.1193 21.6911 29.9389 21.0605 29.5781C20.4298 29.2173 19.9383 28.7031 19.586 28.0355C19.2338 27.3651 19.0576 26.5696 19.0576 25.6491C19.0576 24.9332 19.1642 24.2983 19.3772 23.7443C19.5903 23.1875 19.8872 22.7159 20.2678 22.3295C20.6514 21.9432 21.0946 21.6506 21.5974 21.4517C22.1031 21.2528 22.6471 21.1534 23.2295 21.1534C23.7352 21.1534 24.2053 21.2259 24.64 21.3707C25.0775 21.5156 25.4639 21.7202 25.7991 21.9844C26.1372 22.2486 26.4113 22.5625 26.6215 22.9261C26.8318 23.2898 26.9625 23.6889 27.0136 24.1236H24.8786ZM30.1 21.2727V30H27.9906V21.2727H30.1ZM38.4917 21.2727V30H36.702L33.229 24.9631H33.1736V30H31.0642V21.2727H32.8795L36.3142 26.3011H36.3866V21.2727H38.4917ZM45.1854 24.1236C45.1371 23.9446 45.066 23.7869 44.9723 23.6506C44.8785 23.5114 44.7635 23.3935 44.6271 23.2969C44.4908 23.2003 44.3345 23.1278 44.1584 23.0795C43.9822 23.0284 43.7891 23.0028 43.5788 23.0028C43.1555 23.0028 42.7891 23.1051 42.4794 23.3097C42.1726 23.5142 41.9354 23.8125 41.7677 24.2045C41.6001 24.5937 41.5163 25.0668 41.5163 25.6236C41.5163 26.1832 41.5973 26.6605 41.7592 27.0554C41.9212 27.4503 42.1555 27.7514 42.4623 27.9588C42.7692 28.1662 43.1413 28.2699 43.5788 28.2699C43.9652 28.2699 44.2919 28.2074 44.5589 28.0824C44.8288 27.9545 45.0334 27.7741 45.1726 27.5412C45.3118 27.3082 45.3814 27.0341 45.3814 26.7188L45.7734 26.7656H43.6513V25.2273H47.4141V26.3821C47.4141 27.1634 47.2479 27.8324 46.9155 28.3892C46.5859 28.946 46.1314 29.3736 45.5518 29.6719C44.9751 29.9702 44.3118 30.1193 43.5618 30.1193C42.7294 30.1193 41.9979 29.9389 41.3672 29.5781C40.7365 29.2173 40.245 28.7031 39.8927 28.0355C39.5405 27.3651 39.3643 26.5696 39.3643 25.6491C39.3643 24.9332 39.4709 24.2983 39.6839 23.7443C39.897 23.1875 40.1939 22.7159 40.5746 22.3295C40.9581 21.9432 41.4013 21.6506 41.9041 21.4517C42.4098 21.2528 42.9538 21.1534 43.5362 21.1534C44.0419 21.1534 44.5121 21.2259 44.9467 21.3707C45.3842 21.5156 45.7706 21.7202 46.1058 21.9844C46.4439 22.2486 46.718 22.5625 46.9283 22.9261C47.1385 23.2898 47.2692 23.6889 47.3203 24.1236H45.1854Z" fill="white"/>
<path d="M18.5275 13.8892C18.4991 13.5767 18.3727 13.3338 18.1483 13.1605C17.9267 12.9844 17.6099 12.8963 17.198 12.8963C16.9253 12.8963 16.698 12.9318 16.5162 13.0028C16.3343 13.0739 16.198 13.1719 16.1071 13.2969C16.0162 13.419 15.9693 13.5597 15.9664 13.7188C15.9608 13.8494 15.9863 13.9645 16.0432 14.0639C16.1028 14.1634 16.188 14.2514 16.2988 14.3281C16.4125 14.402 16.5488 14.4673 16.7079 14.5241C16.867 14.581 17.046 14.6307 17.2449 14.6733L17.9949 14.8438C18.4267 14.9375 18.8074 15.0625 19.1369 15.2188C19.4693 15.375 19.7477 15.5611 19.9721 15.777C20.1994 15.9929 20.3713 16.2415 20.4878 16.5227C20.6042 16.804 20.6639 17.1193 20.6667 17.4688C20.6639 18.0199 20.5247 18.4929 20.2491 18.8878C19.9736 19.2827 19.5772 19.5852 19.0602 19.7955C18.546 20.0057 17.9253 20.1108 17.198 20.1108C16.4679 20.1108 15.8315 20.0014 15.2889 19.7827C14.7463 19.5639 14.3244 19.2315 14.0233 18.7855C13.7221 18.3395 13.5673 17.7756 13.5588 17.0938H15.5787C15.5957 17.375 15.671 17.6094 15.8045 17.7969C15.938 17.9844 16.1213 18.1264 16.3542 18.223C16.59 18.3196 16.8628 18.3679 17.1724 18.3679C17.4565 18.3679 17.698 18.3295 17.8968 18.2528C18.0986 18.1761 18.2534 18.0696 18.3613 17.9332C18.4693 17.7969 18.5247 17.6406 18.5275 17.4645C18.5247 17.2997 18.4736 17.1591 18.3741 17.0426C18.2747 16.9233 18.1213 16.821 17.9139 16.7358C17.7093 16.6477 17.448 16.5668 17.1298 16.4929L16.2179 16.2798C15.4622 16.1065 14.867 15.8267 14.4324 15.4403C13.9977 15.0511 13.7818 14.5256 13.7846 13.8636C13.7818 13.3239 13.9267 12.8509 14.2193 12.4446C14.5119 12.0384 14.9167 11.7216 15.4338 11.4943C15.9508 11.267 16.5403 11.1534 17.2022 11.1534C17.8784 11.1534 18.465 11.2685 18.9622 11.4986C19.4622 11.7259 19.85 12.0455 20.1255 12.4574C20.4011 12.8693 20.5417 13.3466 20.5474 13.8892H18.5275ZM21.0866 12.9858V11.2727H28.463V12.9858H25.8167V20H23.7371V12.9858H21.0866ZM31.2425 11.2727V20H29.1332V11.2727H31.2425ZM32.2068 20V11.2727H34.3161V18.2869H37.9468V20H32.2068ZM38.6788 20V11.2727H40.7882V18.2869H44.4188V20H38.6788Z" fill="white"/>
</svg>
