<svg width="87" height="20" viewBox="0 0 87 20" fill="none" xmlns="http://www.w3.org/2000/svg">
<path d="M6.0625 15C7.35156 12.9362 7.99609 11.0807 7.99609 9.43359C7.99609 8.30729 7.72266 7.41536 7.17578 6.75781C6.63542 6.10026 6.00716 5.77148 5.29102 5.77148C4.57487 5.77148 3.94336 6.10026 3.39648 6.75781C2.85612 7.41536 2.58594 8.30729 2.58594 9.43359C2.58594 11.0807 3.25977 12.9362 4.60742 15H2.58594C1.38802 12.6172 0.789062 10.765 0.789062 9.44336C0.789062 8.64909 0.961589 7.83854 1.30664 7.01172C1.65169 6.17839 2.16276 5.53385 2.83984 5.07812C3.51693 4.6224 4.33398 4.39453 5.29102 4.39453C6.24805 4.39453 7.0651 4.6224 7.74219 5.07812C8.41927 5.53385 8.93034 6.17839 9.27539 7.01172C9.62044 7.83854 9.79297 8.64909 9.79297 9.44336C9.79297 10.765 9.19401 12.6172 7.99609 15H6.0625Z" fill="black"/>
<path d="M20.75 10.0977C20.75 11.0938 20.5579 11.9889 20.1738 12.7832C19.7962 13.571 19.2428 14.1764 18.5137 14.5996C17.791 15.0228 17.0391 15.2344 16.2578 15.2344C15.4635 15.2344 14.7018 15.0228 13.9727 14.5996C13.25 14.1764 12.6966 13.571 12.3125 12.7832C11.9349 11.9889 11.7461 11.0938 11.7461 10.0977C11.7461 9.17318 11.9186 8.32357 12.2637 7.54883C12.6087 6.77409 13.1198 6.17513 13.7969 5.75195C14.474 5.32878 15.2943 5.11719 16.2578 5.11719C17.2083 5.11719 18.1393 5.60221 19.0508 6.57227V4.21875C19.0508 3.59375 18.7904 3.07943 18.2695 2.67578C17.7552 2.26562 17.166 2.06055 16.502 2.06055C15.7988 2.06055 15.2129 2.2168 14.7441 2.5293C14.2819 2.83529 14.0508 3.27148 14.0508 3.83789H12.293C12.2865 2.93294 12.6803 2.18099 13.4746 1.58203C14.2754 0.983073 15.291 0.683594 16.5215 0.683594C17.6543 0.683594 18.6406 1.0319 19.4805 1.72852C20.3268 2.41862 20.75 3.26497 20.75 4.26758V10.0977ZM16.248 13.7793C16.9316 13.7793 17.5697 13.4831 18.1621 12.8906C18.7546 12.2982 19.0508 11.3802 19.0508 10.1367C19.0508 8.95182 18.7611 8.06315 18.1816 7.4707C17.6022 6.87174 16.9577 6.57227 16.248 6.57227C15.5384 6.57227 14.9102 6.87174 14.3633 7.4707C13.8164 8.06315 13.543 8.95182 13.543 10.1367C13.543 11.3802 13.8229 12.2982 14.3828 12.8906C14.9427 13.4831 15.5645 13.7793 16.248 13.7793Z" fill="black"/>
<path d="M31.6094 13.6426C31.6094 15.2246 31.4434 16.3509 31.1113 17.0215C30.7858 17.6986 30.265 18.2324 29.5488 18.623C28.8392 19.0137 28.0612 19.2122 27.2148 19.2188C26.3555 19.2122 25.5677 19.0137 24.8516 18.623C24.1419 18.2324 23.6211 17.6986 23.2891 17.0215C22.9635 16.3509 22.8008 15.5762 22.8008 14.6973C22.8008 14.0918 23.0872 13.3008 23.6602 12.3242H25.4375C24.8776 13.3008 24.5977 14.2708 24.5977 15.2344C24.5977 15.944 24.8776 16.5397 25.4375 17.0215C25.9974 17.5098 26.5898 17.7539 27.2148 17.7539C27.8268 17.7539 28.3704 17.5911 28.8457 17.2656C29.321 16.9401 29.6204 16.5397 29.7441 16.0645C29.8678 15.5957 29.9232 14.7884 29.9102 13.6426V7.93945C29.9102 7.29492 29.6367 6.77083 29.0898 6.36719C28.543 5.96354 27.9928 5.76172 27.4395 5.76172C26.7493 5.76172 26.1862 5.98633 25.75 6.43555C25.3203 6.88477 25.1055 7.38281 25.1055 7.92969C25.1055 8.60026 25.278 9.15365 25.623 9.58984L24.0996 10.3809C23.5983 9.55404 23.3477 8.75326 23.3477 7.97852C23.3477 6.98893 23.7513 6.14583 24.5586 5.44922C25.3724 4.74609 26.3457 4.39453 27.4785 4.39453C28.6829 4.39453 29.6693 4.75586 30.4375 5.47852C31.2122 6.20117 31.6029 7.03451 31.6094 7.97852V13.6426Z" fill="black"/>
<path d="M39.9102 8.27148C39.9102 6.65039 39.3275 5.83984 38.1621 5.83984C37.446 5.83984 36.8145 6.15885 36.2676 6.79688C35.7272 7.42839 35.457 8.40495 35.457 9.72656C35.457 11.5755 36.6517 13.3366 39.041 15.0098H36.5312C34.6172 13.2064 33.6602 11.4486 33.6602 9.73633C33.6536 6.81966 34.5781 4.58333 36.4336 3.02734C38.2891 1.46484 40.6328 0.683594 43.4648 0.683594V2.13867C42.6055 2.13216 41.4531 2.33398 40.0078 2.74414C38.5625 3.1543 37.2702 3.94531 36.1309 5.11719C36.8796 4.63542 37.5241 4.39453 38.0645 4.39453C39.1452 4.39453 40.0794 5.01953 40.8672 6.26953C41.5312 5.01953 42.4655 4.39453 43.6699 4.39453C44.5618 4.39453 45.3464 4.6224 46.0234 5.07812C46.7005 5.53385 47.2116 6.17839 47.5566 7.01172C47.9017 7.83854 48.0742 8.74674 48.0742 9.73633C48.0742 11.4486 47.1172 13.2064 45.2031 15.0098H42.7812C45.112 13.3301 46.2773 11.569 46.2773 9.72656C46.2773 8.40495 46.0039 7.42839 45.457 6.79688C44.9167 6.15885 44.2884 5.83984 43.5723 5.83984C42.3288 5.83984 41.707 6.65039 41.707 8.27148V10.6934H39.9102V8.27148Z" fill="black"/>
<path d="M58.6406 13.6426C58.6406 15.2246 58.4746 16.3509 58.1426 17.0215C57.8171 17.6986 57.2962 18.2324 56.5801 18.623C55.8704 19.0137 55.0924 19.2122 54.2461 19.2188C53.3867 19.2122 52.599 19.0137 51.8828 18.623C51.1732 18.2324 50.6523 17.6986 50.3203 17.0215C49.9948 16.3509 49.832 15.5762 49.832 14.6973C49.832 14.0918 50.1185 13.3008 50.6914 12.3242H52.4688C51.9089 13.3008 51.6289 14.2708 51.6289 15.2344C51.6289 15.944 51.9089 16.5397 52.4688 17.0215C53.0286 17.5098 53.6211 17.7539 54.2461 17.7539C54.8581 17.7539 55.4017 17.5911 55.877 17.2656C56.3522 16.9401 56.6517 16.5397 56.7754 16.0645C56.8991 15.5957 56.9544 14.7884 56.9414 13.6426V7.93945C56.9414 7.29492 56.668 6.77083 56.1211 6.36719C55.5742 5.96354 55.0241 5.76172 54.4707 5.76172C53.7806 5.76172 53.2174 5.98633 52.7812 6.43555C52.3516 6.88477 52.1367 7.38281 52.1367 7.92969C52.1367 8.60026 52.3092 9.15365 52.6543 9.58984L51.1309 10.3809C50.6296 9.55404 50.3789 8.75326 50.3789 7.97852C50.3789 6.98893 50.7826 6.14583 51.5898 5.44922C52.4036 4.74609 53.377 4.39453 54.5098 4.39453C55.7142 4.39453 56.7005 4.75586 57.4688 5.47852C58.2435 6.20117 58.6341 7.03451 58.6406 7.97852V13.6426Z" fill="black"/>
<path d="M70.6035 15C72.485 13.1966 73.4258 11.3411 73.4258 9.43359C73.4258 8.30729 73.1523 7.41536 72.6055 6.75781C72.0651 6.10026 71.4368 5.77148 70.7207 5.77148C70.0046 5.77148 69.4219 6.04167 68.9727 6.58203C69.4544 7.5651 69.6953 8.61654 69.6953 9.73633C69.6953 10.7975 69.5033 11.7546 69.1191 12.6074C68.7415 13.4538 68.1882 14.1048 67.459 14.5605C66.7363 15.0098 65.9811 15.2344 65.1934 15.2344C64.4056 15.2344 63.6471 15.0098 62.918 14.5605C62.1953 14.1048 61.6419 13.4538 61.2578 12.6074C60.8802 11.7546 60.6914 10.7975 60.6914 9.73633C60.6914 8.74674 60.8639 7.83854 61.209 7.01172C61.554 6.17839 62.0651 5.53385 62.7422 5.07812C63.4193 4.6224 64.2363 4.39453 65.1934 4.39453C66.3001 4.39453 67.2181 4.70052 67.9473 5.3125C68.7025 4.70052 69.627 4.39453 70.7207 4.39453C71.6777 4.39453 72.4948 4.6224 73.1719 5.07812C73.849 5.53385 74.36 6.17839 74.7051 7.01172C75.0501 7.83854 75.2227 8.64909 75.2227 9.44336C75.2227 11.416 74.474 13.2682 72.9766 15H70.6035ZM65.1934 13.7891C65.8835 13.7891 66.5052 13.4603 67.0586 12.8027C67.6185 12.1387 67.8984 11.1133 67.8984 9.72656C67.8984 8.40495 67.625 7.41536 67.0781 6.75781C66.5378 6.10026 65.9095 5.77148 65.1934 5.77148C64.4772 5.77148 63.8457 6.10026 63.2988 6.75781C62.7585 7.41536 62.4883 8.40495 62.4883 9.72656C62.4883 11.1133 62.765 12.1387 63.3184 12.8027C63.8783 13.4603 64.5033 13.7891 65.1934 13.7891Z" fill="black"/>
<path d="M82.4492 15C83.7383 12.9362 84.3828 11.0807 84.3828 9.43359C84.3828 8.30729 84.1094 7.41536 83.5625 6.75781C83.0221 6.10026 82.3939 5.77148 81.6777 5.77148C80.9616 5.77148 80.3301 6.10026 79.7832 6.75781C79.2428 7.41536 78.9727 8.30729 78.9727 9.43359C78.9727 11.0807 79.6465 12.9362 80.9941 15H78.9727C77.7747 12.6172 77.1758 10.765 77.1758 9.44336C77.1758 8.64909 77.3483 7.83854 77.6934 7.01172C78.0384 6.17839 78.5495 5.53385 79.2266 5.07812C79.9036 4.6224 80.7207 4.39453 81.6777 4.39453C82.6348 4.39453 83.4518 4.6224 84.1289 5.07812C84.806 5.53385 85.3171 6.17839 85.6621 7.01172C86.0072 7.83854 86.1797 8.64909 86.1797 9.44336C86.1797 10.765 85.5807 12.6172 84.3828 15H82.4492Z" fill="black"/>
</svg>
