<svg width="87" height="20" viewBox="0 0 87 20" fill="none" xmlns="http://www.w3.org/2000/svg">
<path d="M8.28125 8.22278C8.28125 7.57825 8.00781 7.05741 7.46094 6.66028C6.92057 6.26314 6.3444 6.06458 5.73242 6.06458C4.9707 6.06458 4.37174 6.30221 3.93555 6.77747C3.49935 7.24622 3.28125 7.72799 3.28125 8.22278C3.28125 8.82825 3.42122 9.40116 3.70117 9.94153L2.14844 10.7325C1.72526 9.93827 1.51693 9.11796 1.52344 8.27161C1.51693 7.269 1.9401 6.42265 2.79297 5.73254C3.64583 5.03593 4.63216 4.68762 5.75195 4.68762C6.57878 4.68762 7.42188 4.97083 8.28125 5.53723V1.07434H9.98047V13.8868C9.98047 15.5014 9.81445 16.644 9.48242 17.3146C9.1569 17.9917 8.63607 18.5255 7.91992 18.9161C7.21029 19.3068 6.39974 19.5053 5.48828 19.5118C4.5638 19.5053 3.74349 19.3068 3.02734 18.9161C2.31771 18.5255 1.79688 17.9917 1.46484 17.3146C1.13932 16.644 0.976562 15.8693 0.976562 14.9904C0.976562 14.3849 1.23047 13.5939 1.73828 12.6173H3.61328C3.05339 13.5939 2.77344 14.5639 2.77344 15.5275C2.77344 16.2371 3.05339 16.8328 3.61328 17.3146C4.17318 17.8029 4.79818 18.047 5.48828 18.047C6.16536 18.047 6.74154 17.8842 7.2168 17.5587C7.69206 17.2332 7.99154 16.8328 8.11523 16.3575C8.23893 15.8888 8.29753 15.0815 8.29102 13.9357L8.28125 8.22278Z" fill="black"/>
<path d="M21.2402 11.0548C21.2337 12.1616 20.8268 13.1837 20.0195 14.1212C19.2122 15.0587 18.1055 15.5275 16.6992 15.5275C15.4167 15.5275 14.349 15.0587 13.4961 14.1212C12.6432 13.1772 12.2201 12.0574 12.2266 10.7618C12.2266 9.79179 12.5521 8.80221 13.2031 7.79309L14.7656 8.51575C14.2839 9.47278 14.043 10.2215 14.043 10.7618C14.0495 11.9532 14.3327 12.8061 14.8926 13.3204C15.4525 13.8282 16.0645 14.0854 16.7285 14.0919C17.3665 14.0854 17.946 13.8771 18.4668 13.4669C18.9876 13.0503 19.3099 12.2462 19.4336 11.0548C19.4401 9.45325 18.7044 8.16093 17.2266 7.17786C15.7487 6.19478 15.0098 5.0164 15.0098 3.6427H16.7285C16.735 4.73645 17.487 5.79114 18.9844 6.80676C20.4883 7.81588 21.2402 9.23189 21.2402 11.0548Z" fill="black"/>
<path d="M29.4531 8.56458C29.4531 6.94348 28.8704 6.13293 27.7051 6.13293C26.9889 6.13293 26.3574 6.45195 25.8105 7.08997C25.2702 7.72148 25 8.69804 25 10.0197C25 11.8686 26.1947 13.6297 28.584 15.3029H26.0742C24.1602 13.4995 23.2031 11.7417 23.2031 10.0294C23.1966 7.11275 24.1211 4.87642 25.9766 3.32043C27.832 1.75793 30.1758 0.976685 33.0078 0.976685V2.43176C32.1484 2.42525 30.9961 2.62708 29.5508 3.03723C28.1055 3.44739 26.8132 4.2384 25.6738 5.41028C26.4225 4.92851 27.0671 4.68762 27.6074 4.68762C28.6882 4.68762 29.6224 5.31262 30.4102 6.56262C31.0742 5.31262 32.0085 4.68762 33.2129 4.68762C34.1048 4.68762 34.8893 4.91549 35.5664 5.37122C36.2435 5.82694 36.7546 6.47148 37.0996 7.30481C37.4447 8.13163 37.6172 9.03984 37.6172 10.0294C37.6172 11.7417 36.6602 13.4995 34.7461 15.3029H32.3242C34.6549 13.6232 35.8203 11.8621 35.8203 10.0197C35.8203 8.69804 35.5469 7.72148 35 7.08997C34.4596 6.45195 33.8314 6.13293 33.1152 6.13293C31.8717 6.13293 31.25 6.94348 31.25 8.56458V10.9865H29.4531V8.56458Z" fill="black"/>
<path d="M49.4824 15.2931C51.3639 13.4897 52.3047 11.6342 52.3047 9.72668C52.3047 8.60038 52.0312 7.70846 51.4844 7.0509C50.944 6.39335 50.3158 6.06458 49.5996 6.06458C48.8835 6.06458 48.3008 6.33476 47.8516 6.87512C48.3333 7.8582 48.5742 8.90963 48.5742 10.0294C48.5742 11.0906 48.3822 12.0476 47.998 12.9005C47.6204 13.7469 47.0671 14.3979 46.3379 14.8536C45.6152 15.3029 44.86 15.5275 44.0723 15.5275C43.2845 15.5275 42.526 15.3029 41.7969 14.8536C41.0742 14.3979 40.5208 13.7469 40.1367 12.9005C39.7591 12.0476 39.5703 11.0906 39.5703 10.0294C39.5703 9.03984 39.7428 8.13163 40.0879 7.30481C40.4329 6.47148 40.944 5.82694 41.6211 5.37122C42.2982 4.91549 43.1152 4.68762 44.0723 4.68762C45.179 4.68762 46.097 4.99361 46.8262 5.60559C47.5814 4.99361 48.5059 4.68762 49.5996 4.68762C50.5566 4.68762 51.3737 4.91549 52.0508 5.37122C52.7279 5.82694 53.2389 6.47148 53.584 7.30481C53.929 8.13163 54.1016 8.94218 54.1016 9.73645C54.1016 11.7091 53.3529 13.5613 51.8555 15.2931H49.4824ZM44.0723 14.0822C44.7624 14.0822 45.3841 13.7534 45.9375 13.0958C46.4974 12.4318 46.7773 11.4064 46.7773 10.0197C46.7773 8.69804 46.5039 7.70846 45.957 7.0509C45.4167 6.39335 44.7884 6.06458 44.0723 6.06458C43.3561 6.06458 42.7246 6.39335 42.1777 7.0509C41.6374 7.70846 41.3672 8.69804 41.3672 10.0197C41.3672 11.4064 41.6439 12.4318 42.1973 13.0958C42.7572 13.7534 43.3822 14.0822 44.0723 14.0822Z" fill="black"/>
<path d="M57.2754 15.8888C58.0436 15.7391 58.8574 15.6544 59.7168 15.6349C57.2754 14.0594 56.0547 12.0607 56.0547 9.63879C56.0547 8.77942 56.2272 7.96887 56.5723 7.20715C56.9173 6.43892 57.4284 5.82694 58.1055 5.37122C58.7826 4.91549 59.5345 4.68762 60.3613 4.68762C61.5267 4.68762 62.4284 5.18241 63.0664 6.172C63.6979 5.11731 64.541 4.58997 65.5957 4.58997C66.722 4.58997 67.6042 5.11731 68.2422 6.172C68.776 5.18241 69.6777 4.68762 70.9473 4.68762C71.7741 4.68762 72.526 4.91549 73.2031 5.37122C73.8802 5.82694 74.3913 6.42265 74.7363 7.15833C75.0814 7.88749 75.2539 8.71431 75.2539 9.63879C75.2539 11.0906 74.5247 12.6303 73.0664 14.2579H70.4492C72.4544 12.754 73.457 11.2111 73.457 9.62903C73.457 8.37252 73.1836 7.46431 72.6367 6.90442C72.0964 6.34452 71.5332 6.06458 70.9473 6.06458C69.7038 6.06458 69.082 6.89791 69.082 8.56458V11.2794H67.2852V8.56458C67.2852 6.8328 66.722 5.96692 65.5957 5.96692C64.4694 5.96692 63.9062 6.8328 63.9062 8.56458V11.2794H62.1094V8.56458C62.1094 6.89791 61.5267 6.06458 60.3613 6.06458C59.7754 6.06458 59.209 6.3608 58.6621 6.95325C58.1217 7.5457 57.8516 8.43762 57.8516 9.62903C57.8581 11.9793 59.362 13.8771 62.3633 15.3224C64.8633 15.4396 66.875 15.9116 68.3984 16.7384C69.9219 17.5652 70.752 18.4213 70.8887 19.3068H68.5547C68.4961 18.6101 67.8939 18.0307 66.748 17.5685C65.6087 17.1062 64.3229 16.8751 62.8906 16.8751C61.0677 16.8751 59.196 17.0932 57.2754 17.5294V15.8888Z" fill="black"/>
<path d="M82.4805 15.2931C83.7695 13.2293 84.4141 11.3738 84.4141 9.72668C84.4141 8.60038 84.1406 7.70846 83.5938 7.0509C83.0534 6.39335 82.4251 6.06458 81.709 6.06458C80.9928 6.06458 80.3613 6.39335 79.8145 7.0509C79.2741 7.70846 79.0039 8.60038 79.0039 9.72668C79.0039 11.3738 79.6777 13.2293 81.0254 15.2931H79.0039C77.806 12.9103 77.207 11.0581 77.207 9.73645C77.207 8.94218 77.3796 8.13163 77.7246 7.30481C78.0697 6.47148 78.5807 5.82694 79.2578 5.37122C79.9349 4.91549 80.752 4.68762 81.709 4.68762C82.666 4.68762 83.4831 4.91549 84.1602 5.37122C84.8372 5.82694 85.3483 6.47148 85.6934 7.30481C86.0384 8.13163 86.2109 8.94218 86.2109 9.73645C86.2109 11.0581 85.612 12.9103 84.4141 15.2931H82.4805Z" fill="black"/>
</svg>
