<svg width="71" height="20" viewBox="0 0 71 20" fill="none" xmlns="http://www.w3.org/2000/svg">
<path d="M7.99805 14.2773C7.99805 13.5221 7.78971 12.8678 7.37305 12.3145C6.96289 11.7611 6.41276 11.4844 5.72266 11.4844H4.32617V10.0977H5.80078C6.45182 10.0977 6.94661 9.87305 7.28516 9.42383C7.6237 8.9681 7.79297 8.47005 7.79297 7.92969C7.79297 7.33724 7.53581 6.83919 7.02148 6.43555C6.51367 6.0319 5.9375 5.83008 5.29297 5.83008V4.39453C6.40625 4.39453 7.39909 4.73958 8.27148 5.42969C9.14388 6.11328 9.58333 6.96289 9.58984 7.97852C9.58984 8.55143 9.44661 9.07552 9.16016 9.55078C8.88021 10.026 8.4668 10.4297 7.91992 10.7617C8.46029 11.0612 8.90951 11.543 9.26758 12.207C9.62565 12.8646 9.80469 13.5319 9.80469 14.209C9.80469 15.3874 9.63542 16.3184 9.29688 17.002C8.96484 17.6921 8.44401 18.2324 7.73438 18.623C7.02474 19.0202 6.21094 19.2188 5.29297 19.2188C4.36849 19.2188 3.54818 19.0202 2.83203 18.623C2.1224 18.2324 1.60156 17.6986 1.26953 17.0215C0.94401 16.3509 0.78125 15.5762 0.78125 14.6973C0.78125 14.0918 1.0026 13.3659 1.44531 12.5195H3.22266C2.79948 13.3659 2.58789 14.2708 2.58789 15.2344C2.58789 15.931 2.86458 16.5234 3.41797 17.0117C3.97786 17.5065 4.60286 17.7539 5.29297 17.7539C5.97005 17.7539 6.52995 17.5911 6.97266 17.2656C7.41536 16.9401 7.69531 16.543 7.8125 16.0742C7.9362 15.6055 7.99805 15.0065 7.99805 14.2773Z" fill="black"/>
<path d="M20.7715 10.7617C20.765 11.8685 20.3581 12.8906 19.5508 13.8281C18.7435 14.7656 17.6367 15.2344 16.2305 15.2344C14.9479 15.2344 13.8802 14.7656 13.0273 13.8281C12.1745 12.8841 11.7513 11.7643 11.7578 10.4688C11.7578 9.4987 12.0833 8.50911 12.7344 7.5L14.2969 8.22266C13.8151 9.17969 13.5742 9.92839 13.5742 10.4688C13.5807 11.6602 13.8639 12.513 14.4238 13.0273C14.9837 13.5352 15.5957 13.7923 16.2598 13.7988C16.8978 13.7923 17.4772 13.584 17.998 13.1738C18.5189 12.7572 18.8411 11.9531 18.9648 10.7617C18.9714 9.16016 18.2357 7.86784 16.7578 6.88477C15.2799 5.90169 14.541 4.72331 14.541 3.34961H16.2598C16.2663 4.44336 17.0182 5.49805 18.5156 6.51367C20.0195 7.52279 20.7715 8.9388 20.7715 10.7617Z" fill="black"/>
<path d="M27.5293 15.2344C26.7415 15.2344 25.9831 15.0098 25.2539 14.5605C24.5312 14.1048 23.9779 13.4538 23.5938 12.6074C23.2161 11.7546 23.0273 10.7975 23.0273 9.73633V0.78125H24.7266V5.6543C25.625 4.81445 26.5592 4.39453 27.5293 4.39453C28.4863 4.39453 29.3034 4.6224 29.9805 5.07812C30.6576 5.53385 31.1686 6.17839 31.5137 7.01172C31.8587 7.83854 32.0312 8.74674 32.0312 9.73633C32.0312 10.7975 31.8392 11.7546 31.4551 12.6074C31.0775 13.4538 30.5241 14.1048 29.7949 14.5605C29.0723 15.0098 28.3171 15.2344 27.5293 15.2344ZM27.5293 13.7891C28.2194 13.7891 28.8411 13.4603 29.3945 12.8027C29.9544 12.1387 30.2344 11.1133 30.2344 9.72656C30.2344 8.40495 29.9609 7.41536 29.4141 6.75781C28.8737 6.10026 28.2454 5.77148 27.5293 5.77148C26.8132 5.77148 26.1654 6.10026 25.5859 6.75781C25.013 7.41536 24.7266 8.40495 24.7266 9.72656C24.7266 11.1133 25.0195 12.1387 25.6055 12.8027C26.1979 13.4603 26.8392 13.7891 27.5293 13.7891Z" fill="black"/>
<path d="M42.5977 13.6426C42.5977 15.2246 42.4316 16.3509 42.0996 17.0215C41.7741 17.6986 41.2533 18.2324 40.5371 18.623C39.8275 19.0137 39.0495 19.2122 38.2031 19.2188C37.3438 19.2122 36.556 19.0137 35.8398 18.623C35.1302 18.2324 34.6094 17.6986 34.2773 17.0215C33.9518 16.3509 33.7891 15.5762 33.7891 14.6973C33.7891 14.0918 34.0755 13.3008 34.6484 12.3242H36.4258C35.8659 13.3008 35.5859 14.2708 35.5859 15.2344C35.5859 15.944 35.8659 16.5397 36.4258 17.0215C36.9857 17.5098 37.5781 17.7539 38.2031 17.7539C38.8151 17.7539 39.3587 17.5911 39.834 17.2656C40.3092 16.9401 40.6087 16.5397 40.7324 16.0645C40.8561 15.5957 40.9115 14.7884 40.8984 13.6426V7.93945C40.8984 7.29492 40.625 6.77083 40.0781 6.36719C39.5312 5.96354 38.9811 5.76172 38.4277 5.76172C37.7376 5.76172 37.1745 5.98633 36.7383 6.43555C36.3086 6.88477 36.0938 7.38281 36.0938 7.92969C36.0938 8.60026 36.2663 9.15365 36.6113 9.58984L35.0879 10.3809C34.5866 9.55404 34.3359 8.75326 34.3359 7.97852C34.3359 6.98893 34.7396 6.14583 35.5469 5.44922C36.3607 4.74609 37.334 4.39453 38.4668 4.39453C39.6712 4.39453 40.6576 4.75586 41.4258 5.47852C42.2005 6.20117 42.5911 7.03451 42.5977 7.97852V13.6426Z" fill="black"/>
<path d="M54.5605 15C56.4421 13.1966 57.3828 11.3411 57.3828 9.43359C57.3828 8.30729 57.1094 7.41536 56.5625 6.75781C56.0221 6.10026 55.3939 5.77148 54.6777 5.77148C53.9616 5.77148 53.3789 6.04167 52.9297 6.58203C53.4115 7.5651 53.6523 8.61654 53.6523 9.73633C53.6523 10.7975 53.4603 11.7546 53.0762 12.6074C52.6986 13.4538 52.1452 14.1048 51.416 14.5605C50.6934 15.0098 49.9382 15.2344 49.1504 15.2344C48.3626 15.2344 47.6042 15.0098 46.875 14.5605C46.1523 14.1048 45.599 13.4538 45.2148 12.6074C44.8372 11.7546 44.6484 10.7975 44.6484 9.73633C44.6484 8.74674 44.821 7.83854 45.166 7.01172C45.5111 6.17839 46.0221 5.53385 46.6992 5.07812C47.3763 4.6224 48.1934 4.39453 49.1504 4.39453C50.2572 4.39453 51.1751 4.70052 51.9043 5.3125C52.6595 4.70052 53.584 4.39453 54.6777 4.39453C55.6348 4.39453 56.4518 4.6224 57.1289 5.07812C57.806 5.53385 58.3171 6.17839 58.6621 7.01172C59.0072 7.83854 59.1797 8.64909 59.1797 9.44336C59.1797 11.416 58.431 13.2682 56.9336 15H54.5605ZM49.1504 13.7891C49.8405 13.7891 50.4622 13.4603 51.0156 12.8027C51.5755 12.1387 51.8555 11.1133 51.8555 9.72656C51.8555 8.40495 51.582 7.41536 51.0352 6.75781C50.4948 6.10026 49.8665 5.77148 49.1504 5.77148C48.4342 5.77148 47.8027 6.10026 47.2559 6.75781C46.7155 7.41536 46.4453 8.40495 46.4453 9.72656C46.4453 11.1133 46.722 12.1387 47.2754 12.8027C47.8353 13.4603 48.4603 13.7891 49.1504 13.7891Z" fill="black"/>
<path d="M66.4062 15C67.6953 12.9362 68.3398 11.0807 68.3398 9.43359C68.3398 8.30729 68.0664 7.41536 67.5195 6.75781C66.9792 6.10026 66.3509 5.77148 65.6348 5.77148C64.9186 5.77148 64.2871 6.10026 63.7402 6.75781C63.1999 7.41536 62.9297 8.30729 62.9297 9.43359C62.9297 11.0807 63.6035 12.9362 64.9512 15H62.9297C61.7318 12.6172 61.1328 10.765 61.1328 9.44336C61.1328 8.64909 61.3053 7.83854 61.6504 7.01172C61.9954 6.17839 62.5065 5.53385 63.1836 5.07812C63.8607 4.6224 64.6777 4.39453 65.6348 4.39453C66.5918 4.39453 67.4089 4.6224 68.0859 5.07812C68.763 5.53385 69.2741 6.17839 69.6191 7.01172C69.9642 7.83854 70.1367 8.64909 70.1367 9.44336C70.1367 10.765 69.5378 12.6172 68.3398 15H66.4062Z" fill="black"/>
</svg>
