<svg width="331" height="20" viewBox="0 0 331 20" fill="none" xmlns="http://www.w3.org/2000/svg">
<path d="M7.22657 8.27148C7.22657 6.65039 6.64388 5.83984 5.47852 5.83984C4.76237 5.83984 4.13086 6.15885 3.58399 6.79688C3.04362 7.42839 2.77344 8.40495 2.77344 9.72656C2.77344 11.5755 3.9681 13.3366 6.35743 15.0098H3.84766C1.9336 13.2064 0.976566 11.4486 0.976566 9.73633C0.970056 6.81966 1.89453 4.58333 3.75 3.02734C5.60547 1.46484 7.94922 0.683594 10.7813 0.683594V2.13867C9.92188 2.13216 8.76954 2.33398 7.32422 2.74414C5.87891 3.1543 4.58659 3.94531 3.44727 5.11719C4.19597 4.63542 4.8405 4.39453 5.38086 4.39453C6.46159 4.39453 7.39584 5.01953 8.1836 6.26953C8.84766 5.01953 9.7819 4.39453 10.9863 4.39453C11.8783 4.39453 12.6628 4.6224 13.3398 5.07812C14.0169 5.53385 14.528 6.17839 14.8731 7.01172C15.2181 7.83854 15.3906 8.74674 15.3906 9.73633C15.3906 11.4486 14.4336 13.2064 12.5195 15.0098H10.0977C12.4284 13.3301 13.5938 11.569 13.5938 9.72656C13.5938 8.40495 13.3203 7.42839 12.7734 6.79688C12.2331 6.15885 11.6048 5.83984 10.8887 5.83984C9.64519 5.83984 9.02344 6.65039 9.02344 8.27148V10.6934H7.22657V8.27148Z" fill="black"/>
<path d="M26.3574 10.7617C26.3509 11.8685 25.944 12.8906 25.1367 13.8281C24.3294 14.7656 23.2227 15.2344 21.8164 15.2344C20.5339 15.2344 19.4661 14.7656 18.6133 13.8281C17.7604 12.8841 17.3372 11.7643 17.3438 10.4688C17.3438 9.4987 17.6693 8.50911 18.3203 7.5L19.8828 8.22266C19.401 9.17969 19.1602 9.92839 19.1602 10.4688C19.1667 11.6602 19.4499 12.513 20.0098 13.0273C20.5697 13.5352 21.1816 13.7923 21.8457 13.7988C22.4837 13.7923 23.0632 13.584 23.584 13.1738C24.1048 12.7572 24.4271 11.9531 24.5508 10.7617C24.5573 9.16016 23.8216 7.86784 22.3438 6.88477C20.8659 5.90169 20.127 4.72331 20.127 3.34961H21.8457C21.8522 4.44336 22.6042 5.49805 24.1016 6.51367C25.6055 7.52279 26.3574 8.9388 26.3574 10.7617Z" fill="black"/>
<path d="M35.3906 10.957H32.3633C31.4258 10.957 30.6478 10.6673 30.0293 10.0879C29.4108 9.50195 29.1016 8.8151 29.1016 8.02734C29.1016 7.29167 29.375 6.62435 29.9219 6.02539C30.4753 5.41992 31.1914 5.11719 32.0703 5.11719H35.0781L34.8438 0.771484H36.6406L36.875 5.11719H37.793V6.50391H36.9434L37.3242 13.5938C37.3242 15.2083 37.1582 16.3509 36.8262 17.0215C36.5007 17.6986 35.9798 18.2324 35.2637 18.623C34.554 19.0137 33.7435 19.2122 32.832 19.2188C31.9076 19.2122 31.0872 19.0137 30.3711 18.623C29.6615 18.2324 29.1406 17.6986 28.8086 17.0215C28.4831 16.3509 28.3203 15.5762 28.3203 14.6973C28.3203 14.0918 28.6068 13.3008 29.1797 12.3242H30.957C30.3971 13.3008 30.1172 14.2708 30.1172 15.2344C30.1172 15.944 30.3971 16.5397 30.957 17.0215C31.5169 17.5098 32.1419 17.7539 32.832 17.7539C33.5091 17.7539 34.069 17.5911 34.5117 17.2656C34.9544 16.9401 35.2376 16.5397 35.3613 16.0645C35.485 15.5957 35.5436 14.7884 35.5371 13.6426L35.3906 10.957ZM35.3125 9.55078L35.1563 6.50391H32.2266C31.888 6.50391 31.582 6.65365 31.3086 6.95312C31.0352 7.24609 30.8984 7.61719 30.8984 8.06641C30.8984 8.40495 31.0189 8.73698 31.2598 9.0625C31.5072 9.38802 31.8392 9.55078 32.2559 9.55078H35.3125Z" fill="black"/>
<path d="M48.7598 10.7617C48.7533 11.8685 48.3464 12.8906 47.5391 13.8281C46.7318 14.7656 45.625 15.2344 44.2188 15.2344C42.9362 15.2344 41.8685 14.7656 41.0156 13.8281C40.1628 12.8841 39.7396 11.7643 39.7461 10.4688C39.7461 9.4987 40.0716 8.50911 40.7227 7.5L42.2852 8.22266C41.8034 9.17969 41.5625 9.92839 41.5625 10.4688C41.569 11.6602 41.8522 12.513 42.4121 13.0273C42.972 13.5352 43.584 13.7923 44.2481 13.7988C44.8861 13.7923 45.4655 13.584 45.9863 13.1738C46.5072 12.7572 46.8294 11.9531 46.9531 10.7617C46.9596 9.16016 46.224 7.86784 44.7461 6.88477C43.2682 5.90169 42.5293 4.72331 42.5293 3.34961H44.2481C44.2546 4.44336 45.0065 5.49805 46.5039 6.51367C48.0078 7.52279 48.7598 8.9388 48.7598 10.7617Z" fill="black"/>
<path d="M50.3809 10.7031V8.93555H55.7813V10.7031H50.3809Z" fill="black"/>
<path d="M58.6035 15.5957C59.3717 15.446 60.1856 15.3613 61.0449 15.3418C58.6035 13.7663 57.3828 11.7676 57.3828 9.3457C57.3828 8.48633 57.5553 7.67578 57.9004 6.91406C58.2454 6.14583 58.7565 5.53385 59.4336 5.07812C60.1107 4.6224 60.8626 4.39453 61.6895 4.39453C62.8548 4.39453 63.7565 4.88932 64.3945 5.87891C65.026 4.82422 65.8691 4.29688 66.9238 4.29688C68.0501 4.29688 68.9323 4.82422 69.5703 5.87891C70.1042 4.88932 71.0059 4.39453 72.2754 4.39453C73.1022 4.39453 73.8542 4.6224 74.5312 5.07812C75.2083 5.53385 75.7194 6.12956 76.0645 6.86523C76.4095 7.5944 76.582 8.42122 76.582 9.3457C76.582 10.7975 75.8529 12.3372 74.3945 13.9648H71.7773C73.7826 12.4609 74.7852 10.918 74.7852 9.33594C74.7852 8.07943 74.5117 7.17122 73.9648 6.61133C73.4245 6.05143 72.8613 5.77148 72.2754 5.77148C71.0319 5.77148 70.4102 6.60482 70.4102 8.27148V10.9863H68.6133V8.27148C68.6133 6.53971 68.0501 5.67383 66.9238 5.67383C65.7975 5.67383 65.2344 6.53971 65.2344 8.27148V10.9863H63.4375V8.27148C63.4375 6.60482 62.8548 5.77148 61.6895 5.77148C61.1035 5.77148 60.5371 6.06771 59.9902 6.66016C59.4499 7.2526 59.1797 8.14453 59.1797 9.33594C59.1862 11.6862 60.6901 13.584 63.6914 15.0293C66.1914 15.1465 68.2031 15.6185 69.7266 16.4453C71.25 17.2721 72.0801 18.1283 72.2168 19.0137H69.8828C69.8242 18.3171 69.222 17.7376 68.0762 17.2754C66.9368 16.8132 65.651 16.582 64.2188 16.582C62.3958 16.582 60.5241 16.8001 58.6035 17.2363V15.5957Z" fill="black"/>
<path d="M87.1484 13.6426C87.1484 15.2246 86.9824 16.3509 86.6504 17.0215C86.3249 17.6986 85.804 18.2324 85.0879 18.623C84.3783 19.0137 83.6003 19.2122 82.7539 19.2188C81.8945 19.2122 81.1068 19.0137 80.3906 18.623C79.681 18.2324 79.1602 17.6986 78.8281 17.0215C78.5026 16.3509 78.3398 15.5762 78.3398 14.6973C78.3398 14.0918 78.6263 13.3008 79.1992 12.3242H80.9766C80.4167 13.3008 80.1367 14.2708 80.1367 15.2344C80.1367 15.944 80.4167 16.5397 80.9766 17.0215C81.5365 17.5098 82.1289 17.7539 82.7539 17.7539C83.3659 17.7539 83.9095 17.5911 84.3848 17.2656C84.86 16.9401 85.1595 16.5397 85.2832 16.0645C85.4069 15.5957 85.4622 14.7884 85.4492 13.6426V7.93945C85.4492 7.29492 85.1758 6.77083 84.6289 6.36719C84.082 5.96354 83.5319 5.76172 82.9785 5.76172C82.2884 5.76172 81.7253 5.98633 81.2891 6.43555C80.8594 6.88477 80.6445 7.38281 80.6445 7.92969C80.6445 8.60026 80.8171 9.15365 81.1621 9.58984L79.6387 10.3809C79.1374 9.55404 78.8867 8.75326 78.8867 7.97852C78.8867 6.98893 79.2904 6.14583 80.0977 5.44922C80.9115 4.74609 81.8848 4.39453 83.0176 4.39453C84.222 4.39453 85.2083 4.75586 85.9766 5.47852C86.7513 6.20117 87.1419 7.03451 87.1484 7.97852V13.6426Z" fill="black"/>
<path d="M93.6816 15.1172C95.6934 13.6263 96.6992 11.9661 96.6992 10.1367C96.6992 8.94531 96.4258 8.05339 95.8789 7.46094C95.332 6.86849 94.7038 6.57227 93.9941 6.57227C93.2845 6.57227 92.6367 6.81315 92.0508 7.29492C91.4714 7.77669 91.1849 8.66536 91.1914 9.96094V15H89.4922V3.96484C89.4922 1.77734 90.6315 0.683594 92.9102 0.683594C95.2409 0.683594 96.4128 1.66016 96.4258 3.61328H94.6289C94.5898 2.63021 94.0365 2.13867 92.9688 2.13867C91.7839 2.13867 91.1914 2.67578 91.1914 3.75V6.54297C91.9466 5.67057 92.8841 5.19531 94.0039 5.11719C94.9544 5.11719 95.7682 5.32878 96.4453 5.75195C97.1224 6.17513 97.6335 6.77409 97.9785 7.54883C98.3236 8.32357 98.4961 9.17318 98.4961 10.0977C98.4961 11.9336 97.7116 13.6068 96.1426 15.1172H93.6816Z" fill="black"/>
<path d="M105.244 15.2344C104.456 15.2344 103.698 15.0098 102.969 14.5605C102.246 14.1048 101.693 13.4538 101.309 12.6074C100.931 11.7546 100.742 10.7975 100.742 9.73633V0.78125H102.441V5.6543C103.34 4.81445 104.274 4.39453 105.244 4.39453C106.201 4.39453 107.018 4.6224 107.695 5.07812C108.372 5.53385 108.883 6.17839 109.229 7.01172C109.574 7.83854 109.746 8.74674 109.746 9.73633C109.746 10.7975 109.554 11.7546 109.17 12.6074C108.792 13.4538 108.239 14.1048 107.51 14.5605C106.787 15.0098 106.032 15.2344 105.244 15.2344ZM105.244 13.7891C105.934 13.7891 106.556 13.4603 107.109 12.8027C107.669 12.1387 107.949 11.1133 107.949 9.72656C107.949 8.40495 107.676 7.41536 107.129 6.75781C106.589 6.10026 105.96 5.77148 105.244 5.77148C104.528 5.77148 103.88 6.10026 103.301 6.75781C102.728 7.41536 102.441 8.40495 102.441 9.72656C102.441 11.1133 102.734 12.1387 103.32 12.8027C103.913 13.4603 104.554 13.7891 105.244 13.7891Z" fill="black"/>
<path d="M120.703 13.6035C120.703 15.2116 120.537 16.3509 120.205 17.0215C119.88 17.6986 119.359 18.2324 118.643 18.623C117.933 19.0137 117.122 19.2122 116.211 19.2188C115.286 19.2122 114.466 19.0137 113.75 18.623C113.04 18.2324 112.52 17.6986 112.188 17.0215C111.862 16.3509 111.699 15.5762 111.699 14.6973C111.699 14.0918 111.986 13.3008 112.559 12.3242H114.434C113.809 13.3008 113.496 14.2708 113.496 15.2344C113.496 15.944 113.776 16.5397 114.336 17.0215C114.896 17.5098 115.521 17.7539 116.211 17.7539C116.888 17.7539 117.464 17.5911 117.939 17.2656C118.415 16.9401 118.711 16.5397 118.828 16.0645C118.952 15.5957 119.01 14.7884 119.004 13.6426V6.98242C119.004 6.63086 118.864 6.34115 118.584 6.11328C118.311 5.88542 118.021 5.77148 117.715 5.77148C117.409 5.77148 117.119 5.86914 116.846 6.06445C116.579 6.25977 116.445 6.52018 116.445 6.8457V9.64844H114.736V6.8457C114.736 6.55273 114.632 6.31836 114.424 6.14258C114.222 5.96029 114.004 5.86914 113.77 5.86914H112.764C112.145 5.86914 111.589 5.70964 111.094 5.39062L111.602 4.10156C112.005 4.36198 112.393 4.49219 112.764 4.49219H113.779C114.58 4.49219 115.208 4.83073 115.664 5.50781C116.211 4.76562 116.888 4.39453 117.695 4.39453C118.47 4.39453 119.163 4.65169 119.775 5.16602C120.394 5.67383 120.703 6.26628 120.703 6.94336V13.6035Z" fill="black"/>
<path d="M131.758 10.0977C131.758 11.0938 131.566 11.9889 131.182 12.7832C130.804 13.571 130.251 14.1764 129.521 14.5996C128.799 15.0228 128.047 15.2344 127.266 15.2344C126.471 15.2344 125.71 15.0228 124.98 14.5996C124.258 14.1764 123.704 13.571 123.32 12.7832C122.943 11.9889 122.754 11.0938 122.754 10.0977C122.754 9.17318 122.926 8.32357 123.271 7.54883C123.617 6.77409 124.128 6.17513 124.805 5.75195C125.482 5.32878 126.302 5.11719 127.266 5.11719C128.216 5.11719 129.147 5.60221 130.059 6.57227V4.21875C130.059 3.59375 129.798 3.07943 129.277 2.67578C128.763 2.26562 128.174 2.06055 127.51 2.06055C126.807 2.06055 126.221 2.2168 125.752 2.5293C125.29 2.83529 125.059 3.27148 125.059 3.83789H123.301C123.294 2.93294 123.688 2.18099 124.482 1.58203C125.283 0.983073 126.299 0.683594 127.529 0.683594C128.662 0.683594 129.648 1.0319 130.488 1.72852C131.335 2.41862 131.758 3.26497 131.758 4.26758V10.0977ZM127.256 13.7793C127.939 13.7793 128.577 13.4831 129.17 12.8906C129.762 12.2982 130.059 11.3802 130.059 10.1367C130.059 8.95182 129.769 8.06315 129.189 7.4707C128.61 6.87174 127.965 6.57227 127.256 6.57227C126.546 6.57227 125.918 6.87174 125.371 7.4707C124.824 8.06315 124.551 8.95182 124.551 10.1367C124.551 11.3802 124.831 12.2982 125.391 12.8906C125.951 13.4831 126.572 13.7793 127.256 13.7793Z" fill="black"/>
<path d="M139.277 15C140.566 12.9362 141.211 11.0807 141.211 9.43359C141.211 8.30729 140.938 7.41536 140.391 6.75781C139.85 6.10026 139.222 5.77148 138.506 5.77148C137.79 5.77148 137.158 6.10026 136.611 6.75781C136.071 7.41536 135.801 8.30729 135.801 9.43359C135.801 11.0807 136.475 12.9362 137.822 15H135.801C134.603 12.6172 134.004 10.765 134.004 9.44336C134.004 8.64909 134.176 7.83854 134.521 7.01172C134.867 6.17839 135.378 5.53385 136.055 5.07812C136.732 4.6224 137.549 4.39453 138.506 4.39453C139.463 4.39453 140.28 4.6224 140.957 5.07812C141.634 5.53385 142.145 6.17839 142.49 7.01172C142.835 7.83854 143.008 8.64909 143.008 9.44336C143.008 10.765 142.409 12.6172 141.211 15H139.277Z" fill="black"/>
<path d="M151.162 15.625C151.722 15.5599 152.393 15.5176 153.174 15.498C151.279 13.5514 150.332 11.6309 150.332 9.73633C150.332 8.74674 150.505 7.83854 150.85 7.01172C151.195 6.17839 151.706 5.53385 152.383 5.07812C153.06 4.6224 153.877 4.39453 154.834 4.39453C155.876 4.39453 156.803 4.69401 157.617 5.29297C158.49 4.69401 159.404 4.39453 160.361 4.39453C161.318 4.39453 162.135 4.6224 162.812 5.07812C163.49 5.53385 164.001 6.17839 164.346 7.01172C164.691 7.83854 164.863 8.74674 164.863 9.73633C164.863 10.7975 164.671 11.7546 164.287 12.6074C163.91 13.4538 163.356 14.1048 162.627 14.5605C161.904 15.0098 161.149 15.2344 160.361 15.2344C159.574 15.2344 158.815 15.0098 158.086 14.5605C157.363 14.1048 156.81 13.4538 156.426 12.6074C156.048 11.7546 155.859 10.7975 155.859 9.73633C155.859 8.74674 156.032 7.83854 156.377 7.01172L156.68 6.39648C155.996 6.02539 155.384 5.83984 154.844 5.83984C154.128 5.83984 153.499 6.18164 152.959 6.86523C152.419 7.54232 152.148 8.50586 152.148 9.75586C152.142 11.6048 153.18 13.4733 155.264 15.3613C157.191 15.6738 158.617 16.1979 159.541 16.9336C160.472 17.6693 161.045 18.3626 161.26 19.0137H158.926C158.926 18.5254 158.545 18.0306 157.783 17.5293C157.021 17.028 156.042 16.7773 154.844 16.7773C153.633 16.7773 152.406 16.9401 151.162 17.2656V15.625ZM160.361 13.7891C161.051 13.7891 161.673 13.4603 162.227 12.8027C162.786 12.1387 163.066 11.1133 163.066 9.72656C163.066 8.40495 162.793 7.42513 162.246 6.78711C161.706 6.14909 161.077 5.83008 160.361 5.83008C159.645 5.83008 159.014 6.14909 158.467 6.78711C157.926 7.42513 157.656 8.40495 157.656 9.72656C157.656 11.1133 157.933 12.1387 158.486 12.8027C159.046 13.4603 159.671 13.7891 160.361 13.7891Z" fill="black"/>
<path d="M176.025 10.7617C176.019 11.8685 175.612 12.8906 174.805 13.8281C173.997 14.7656 172.891 15.2344 171.484 15.2344C170.202 15.2344 169.134 14.7656 168.281 13.8281C167.428 12.8841 167.005 11.7643 167.012 10.4688C167.012 9.4987 167.337 8.50911 167.988 7.5L169.551 8.22266C169.069 9.17969 168.828 9.92839 168.828 10.4688C168.835 11.6602 169.118 12.513 169.678 13.0273C170.238 13.5352 170.85 13.7923 171.514 13.7988C172.152 13.7923 172.731 13.584 173.252 13.1738C173.773 12.7572 174.095 11.9531 174.219 10.7617C174.225 9.16016 173.49 7.86784 172.012 6.88477C170.534 5.90169 169.795 4.72331 169.795 3.34961H171.514C171.52 4.44336 172.272 5.49805 173.77 6.51367C175.273 7.52279 176.025 8.9388 176.025 10.7617Z" fill="black"/>
<path d="M190.859 7.92969C190.859 7.28516 190.586 6.76432 190.039 6.36719C189.499 5.97005 188.923 5.77148 188.311 5.77148C187.549 5.77148 186.95 6.00911 186.514 6.48438C186.077 6.95312 185.859 7.4349 185.859 7.92969C185.859 8.53516 185.999 9.10807 186.279 9.64844L184.727 10.4395C184.303 9.64518 184.095 8.82487 184.102 7.97852C184.095 6.97591 184.518 6.12956 185.371 5.43945C186.224 4.74284 187.21 4.39453 188.33 4.39453C189.157 4.39453 190 4.67773 190.859 5.24414V0.78125H192.559V13.5938C192.559 15.2083 192.393 16.3509 192.061 17.0215C191.735 17.6986 191.214 18.2324 190.498 18.623C189.788 19.0137 188.978 19.2122 188.066 19.2188C187.142 19.2122 186.322 19.0137 185.605 18.623C184.896 18.2324 184.375 17.6986 184.043 17.0215C183.717 16.3509 183.555 15.5762 183.555 14.6973C183.555 14.0918 183.809 13.3008 184.316 12.3242H186.191C185.632 13.3008 185.352 14.2708 185.352 15.2344C185.352 15.944 185.632 16.5397 186.191 17.0215C186.751 17.5098 187.376 17.7539 188.066 17.7539C188.743 17.7539 189.32 17.5911 189.795 17.2656C190.27 16.9401 190.57 16.5397 190.693 16.0645C190.817 15.5957 190.876 14.7884 190.869 13.6426L190.859 7.92969Z" fill="black"/>
<path d="M203.438 7.96875C203.438 9.32943 202.777 10.4036 201.455 11.1914C202.907 12.1029 203.633 13.2878 203.633 14.7461C203.633 15.6901 203.464 16.4746 203.125 17.0996C202.793 17.7246 202.269 18.2324 201.553 18.623C200.843 19.0137 200.033 19.2122 199.121 19.2188C198.197 19.2122 197.376 19.0137 196.66 18.623C195.951 18.2324 195.43 17.6986 195.098 17.0215C194.772 16.3509 194.609 15.5762 194.609 14.6973C194.609 14.0918 194.831 13.3008 195.273 12.3242H197.246C196.686 13.3008 196.406 14.2708 196.406 15.2344C196.406 15.944 196.686 16.5397 197.246 17.0215C197.806 17.5098 198.431 17.7539 199.121 17.7539C199.798 17.7539 200.417 17.5228 200.977 17.0605C201.543 16.5983 201.826 16.0352 201.826 15.3711V14.6094C201.826 13.8021 201.608 13.1543 201.172 12.666C200.736 12.1777 200.14 11.9336 199.385 11.9336H198.76V10.4785H199.385C200.114 10.4785 200.671 10.2181 201.055 9.69727C201.439 9.16992 201.631 8.59375 201.631 7.96875C201.631 7.33073 201.41 6.80664 200.967 6.39648C200.531 5.97982 199.997 5.77148 199.365 5.77148C198.623 5.77148 198.027 5.99935 197.578 6.45508C197.135 6.9043 196.914 7.39583 196.914 7.92969C196.914 8.38542 197.005 8.80534 197.188 9.18945L195.479 9.75586C195.264 9.18945 195.156 8.57096 195.156 7.90039C195.156 6.93685 195.573 6.11328 196.406 5.42969C197.246 4.73958 198.239 4.39453 199.385 4.39453C200.57 4.39453 201.54 4.74609 202.295 5.44922C203.057 6.15234 203.438 6.99219 203.438 7.96875Z" fill="black"/>
<path d="M214.297 13.6426C214.297 15.2246 214.131 16.3509 213.799 17.0215C213.473 17.6986 212.952 18.2324 212.236 18.623C211.527 19.0137 210.749 19.2122 209.902 19.2188C209.043 19.2122 208.255 19.0137 207.539 18.623C206.829 18.2324 206.309 17.6986 205.977 17.0215C205.651 16.3509 205.488 15.5762 205.488 14.6973C205.488 14.0918 205.775 13.3008 206.348 12.3242H208.125C207.565 13.3008 207.285 14.2708 207.285 15.2344C207.285 15.944 207.565 16.5397 208.125 17.0215C208.685 17.5098 209.277 17.7539 209.902 17.7539C210.514 17.7539 211.058 17.5911 211.533 17.2656C212.008 16.9401 212.308 16.5397 212.432 16.0645C212.555 15.5957 212.611 14.7884 212.598 13.6426V7.93945C212.598 7.29492 212.324 6.77083 211.777 6.36719C211.23 5.96354 210.68 5.76172 210.127 5.76172C209.437 5.76172 208.874 5.98633 208.438 6.43555C208.008 6.88477 207.793 7.38281 207.793 7.92969C207.793 8.60026 207.965 9.15365 208.311 9.58984L206.787 10.3809C206.286 9.55404 206.035 8.75326 206.035 7.97852C206.035 6.98893 206.439 6.14583 207.246 5.44922C208.06 4.74609 209.033 4.39453 210.166 4.39453C211.37 4.39453 212.357 4.75586 213.125 5.47852C213.9 6.20117 214.29 7.03451 214.297 7.97852V13.6426Z" fill="black"/>
<path d="M225.352 10.0977C225.352 11.0938 225.16 11.9889 224.775 12.7832C224.398 13.571 223.844 14.1764 223.115 14.5996C222.393 15.0228 221.641 15.2344 220.859 15.2344C220.065 15.2344 219.303 15.0228 218.574 14.5996C217.852 14.1764 217.298 13.571 216.914 12.7832C216.536 11.9889 216.348 11.0938 216.348 10.0977C216.348 9.17318 216.52 8.32357 216.865 7.54883C217.21 6.77409 217.721 6.17513 218.398 5.75195C219.076 5.32878 219.896 5.11719 220.859 5.11719C221.81 5.11719 222.741 5.60221 223.652 6.57227V4.21875C223.652 3.59375 223.392 3.07943 222.871 2.67578C222.357 2.26562 221.768 2.06055 221.104 2.06055C220.4 2.06055 219.814 2.2168 219.346 2.5293C218.883 2.83529 218.652 3.27148 218.652 3.83789H216.895C216.888 2.93294 217.282 2.18099 218.076 1.58203C218.877 0.983073 219.893 0.683594 221.123 0.683594C222.256 0.683594 223.242 1.0319 224.082 1.72852C224.928 2.41862 225.352 3.26497 225.352 4.26758V10.0977ZM220.85 13.7793C221.533 13.7793 222.171 13.4831 222.764 12.8906C223.356 12.2982 223.652 11.3802 223.652 10.1367C223.652 8.95182 223.363 8.06315 222.783 7.4707C222.204 6.87174 221.559 6.57227 220.85 6.57227C220.14 6.57227 219.512 6.87174 218.965 7.4707C218.418 8.06315 218.145 8.95182 218.145 10.1367C218.145 11.3802 218.424 12.2982 218.984 12.8906C219.544 13.4831 220.166 13.7793 220.85 13.7793Z" fill="black"/>
<path d="M233.848 8.27148C233.848 6.64388 233.265 5.83008 232.1 5.83008C231.383 5.83008 230.752 6.14909 230.205 6.78711C229.665 7.42513 229.395 8.40495 229.395 9.72656C229.395 11.5755 230.557 13.3366 232.881 15.0098H230.469C228.555 13.2064 227.598 11.4486 227.598 9.73633C227.598 8.74674 227.77 7.83854 228.115 7.01172C228.46 6.17839 228.971 5.53385 229.648 5.07812C230.326 4.6224 231.11 4.39453 232.002 4.39453C233.102 4.38802 234.036 4.88281 234.805 5.87891C235.469 4.88932 236.403 4.39453 237.607 4.39453C238.499 4.39453 239.284 4.6224 239.961 5.07812C240.638 5.53385 241.149 6.17839 241.494 7.01172C241.839 7.83854 242.012 8.74674 242.012 9.73633C242.012 11.4486 241.055 13.2064 239.141 15.0098H236.816C239.082 13.3301 240.215 11.569 240.215 9.72656C240.215 8.40495 239.941 7.42513 239.395 6.78711C238.854 6.14909 238.226 5.83008 237.51 5.83008C236.266 5.83008 235.645 6.64388 235.645 8.27148V10.6934H233.848V8.27148Z" fill="black"/>
<path d="M256.543 3.90625C256.543 5.34505 256.924 6.3737 257.686 6.99219C258.447 7.60417 258.828 8.51888 258.828 9.73633C258.828 10.7975 258.636 11.7546 258.252 12.6074C257.874 13.4538 257.321 14.1048 256.592 14.5605C255.869 15.0098 255.114 15.2344 254.326 15.2344C253.538 15.2344 252.78 15.0098 252.051 14.5605C251.328 14.1048 250.775 13.4538 250.391 12.6074C250.013 11.7546 249.824 10.7975 249.824 9.73633V0.78125H251.523V9.72656C251.523 11.1133 251.816 12.1387 252.402 12.8027C252.995 13.4603 253.636 13.7891 254.326 13.7891C255.016 13.7891 255.638 13.4603 256.191 12.8027C256.751 12.1387 257.031 11.1133 257.031 9.72656C257.031 8.79557 256.657 7.97852 255.908 7.27539C255.16 6.56576 254.782 5.44271 254.775 3.90625H256.543Z" fill="black"/>
<path d="M269.414 7.96875C269.414 9.32943 268.753 10.4036 267.432 11.1914C268.883 12.1029 269.609 13.2878 269.609 14.7461C269.609 15.6901 269.44 16.4746 269.102 17.0996C268.77 17.7246 268.245 18.2324 267.529 18.623C266.82 19.0137 266.009 19.2122 265.098 19.2188C264.173 19.2122 263.353 19.0137 262.637 18.623C261.927 18.2324 261.406 17.6986 261.074 17.0215C260.749 16.3509 260.586 15.5762 260.586 14.6973C260.586 14.0918 260.807 13.3008 261.25 12.3242H263.223C262.663 13.3008 262.383 14.2708 262.383 15.2344C262.383 15.944 262.663 16.5397 263.223 17.0215C263.783 17.5098 264.408 17.7539 265.098 17.7539C265.775 17.7539 266.393 17.5228 266.953 17.0605C267.52 16.5983 267.803 16.0352 267.803 15.3711V14.6094C267.803 13.8021 267.585 13.1543 267.148 12.666C266.712 12.1777 266.117 11.9336 265.361 11.9336H264.736V10.4785H265.361C266.09 10.4785 266.647 10.2181 267.031 9.69727C267.415 9.16992 267.607 8.59375 267.607 7.96875C267.607 7.33073 267.386 6.80664 266.943 6.39648C266.507 5.97982 265.973 5.77148 265.342 5.77148C264.6 5.77148 264.004 5.99935 263.555 6.45508C263.112 6.9043 262.891 7.39583 262.891 7.92969C262.891 8.38542 262.982 8.80534 263.164 9.18945L261.455 9.75586C261.24 9.18945 261.133 8.57096 261.133 7.90039C261.133 6.93685 261.549 6.11328 262.383 5.42969C263.223 4.73958 264.215 4.39453 265.361 4.39453C266.546 4.39453 267.516 4.74609 268.271 5.44922C269.033 6.15234 269.414 6.99219 269.414 7.96875Z" fill="black"/>
<path d="M280.674 10.7617C280.667 11.8685 280.26 12.8906 279.453 13.8281C278.646 14.7656 277.539 15.2344 276.133 15.2344C274.85 15.2344 273.783 14.7656 272.93 13.8281C272.077 12.8841 271.654 11.7643 271.66 10.4688C271.66 9.4987 271.986 8.50911 272.637 7.5L274.199 8.22266C273.717 9.17969 273.477 9.92839 273.477 10.4688C273.483 11.6602 273.766 12.513 274.326 13.0273C274.886 13.5352 275.498 13.7923 276.162 13.7988C276.8 13.7923 277.38 13.584 277.9 13.1738C278.421 12.7572 278.743 11.9531 278.867 10.7617C278.874 9.16016 278.138 7.86784 276.66 6.88477C275.182 5.90169 274.443 4.72331 274.443 3.34961H276.162C276.169 4.44336 276.921 5.49805 278.418 6.51367C279.922 7.52279 280.674 8.9388 280.674 10.7617Z" fill="black"/>
<path d="M287.451 15.2344C286.657 15.2344 285.895 15.0228 285.166 14.5996C284.443 14.1764 283.89 13.571 283.506 12.7832C283.128 11.9889 282.939 11.0938 282.939 10.0977V3.91602C282.939 2.80924 283.249 2.01172 283.867 1.52344C284.492 1.02865 285.485 0.78125 286.846 0.78125H290.898V2.25586H286.416C285.719 2.25586 285.247 2.37956 285 2.62695C284.759 2.86784 284.639 3.29753 284.639 3.91602V6.51367C285.55 5.58268 286.488 5.11719 287.451 5.11719C288.402 5.11719 289.215 5.32878 289.893 5.75195C290.57 6.17513 291.081 6.77409 291.426 7.54883C291.771 8.32357 291.943 9.17318 291.943 10.0977C291.943 11.0938 291.751 11.9889 291.367 12.7832C290.99 13.571 290.436 14.1764 289.707 14.5996C288.984 15.0228 288.232 15.2344 287.451 15.2344ZM287.441 13.7793C288.125 13.7793 288.747 13.4831 289.307 12.8906C289.867 12.2982 290.146 11.3802 290.146 10.1367C290.146 8.95182 289.873 8.06315 289.326 7.4707C288.779 6.87174 288.151 6.57227 287.441 6.57227C286.732 6.57227 286.087 6.87174 285.508 7.4707C284.928 8.06315 284.639 8.95182 284.639 10.1367C284.639 11.3802 284.935 12.2982 285.527 12.8906C286.12 13.4831 286.758 13.7793 287.441 13.7793Z" fill="black"/>
<path d="M302.52 13.6426C302.52 15.2246 302.354 16.3509 302.021 17.0215C301.696 17.6986 301.175 18.2324 300.459 18.623C299.749 19.0137 298.971 19.2122 298.125 19.2188C297.266 19.2122 296.478 19.0137 295.762 18.623C295.052 18.2324 294.531 17.6986 294.199 17.0215C293.874 16.3509 293.711 15.5762 293.711 14.6973C293.711 14.0918 293.997 13.3008 294.57 12.3242H296.348C295.788 13.3008 295.508 14.2708 295.508 15.2344C295.508 15.944 295.788 16.5397 296.348 17.0215C296.908 17.5098 297.5 17.7539 298.125 17.7539C298.737 17.7539 299.281 17.5911 299.756 17.2656C300.231 16.9401 300.531 16.5397 300.654 16.0645C300.778 15.5957 300.833 14.7884 300.82 13.6426V7.93945C300.82 7.29492 300.547 6.77083 300 6.36719C299.453 5.96354 298.903 5.76172 298.35 5.76172C297.66 5.76172 297.096 5.98633 296.66 6.43555C296.23 6.88477 296.016 7.38281 296.016 7.92969C296.016 8.60026 296.188 9.15365 296.533 9.58984L295.01 10.3809C294.508 9.55404 294.258 8.75326 294.258 7.97852C294.258 6.98893 294.661 6.14583 295.469 5.44922C296.283 4.74609 297.256 4.39453 298.389 4.39453C299.593 4.39453 300.579 4.75586 301.348 5.47852C302.122 6.20117 302.513 7.03451 302.52 7.97852V13.6426Z" fill="black"/>
<path d="M314.482 15C316.364 13.1966 317.305 11.3411 317.305 9.43359C317.305 8.30729 317.031 7.41536 316.484 6.75781C315.944 6.10026 315.316 5.77148 314.6 5.77148C313.883 5.77148 313.301 6.04167 312.852 6.58203C313.333 7.5651 313.574 8.61654 313.574 9.73633C313.574 10.7975 313.382 11.7546 312.998 12.6074C312.62 13.4538 312.067 14.1048 311.338 14.5605C310.615 15.0098 309.86 15.2344 309.072 15.2344C308.285 15.2344 307.526 15.0098 306.797 14.5605C306.074 14.1048 305.521 13.4538 305.137 12.6074C304.759 11.7546 304.57 10.7975 304.57 9.73633C304.57 8.74674 304.743 7.83854 305.088 7.01172C305.433 6.17839 305.944 5.53385 306.621 5.07812C307.298 4.6224 308.115 4.39453 309.072 4.39453C310.179 4.39453 311.097 4.70052 311.826 5.3125C312.581 4.70052 313.506 4.39453 314.6 4.39453C315.557 4.39453 316.374 4.6224 317.051 5.07812C317.728 5.53385 318.239 6.17839 318.584 7.01172C318.929 7.83854 319.102 8.64909 319.102 9.44336C319.102 11.416 318.353 13.2682 316.855 15H314.482ZM309.072 13.7891C309.762 13.7891 310.384 13.4603 310.938 12.8027C311.497 12.1387 311.777 11.1133 311.777 9.72656C311.777 8.40495 311.504 7.41536 310.957 6.75781C310.417 6.10026 309.788 5.77148 309.072 5.77148C308.356 5.77148 307.725 6.10026 307.178 6.75781C306.637 7.41536 306.367 8.40495 306.367 9.72656C306.367 11.1133 306.644 12.1387 307.197 12.8027C307.757 13.4603 308.382 13.7891 309.072 13.7891Z" fill="black"/>
<path d="M326.328 15C327.617 12.9362 328.262 11.0807 328.262 9.43359C328.262 8.30729 327.988 7.41536 327.441 6.75781C326.901 6.10026 326.273 5.77148 325.557 5.77148C324.84 5.77148 324.209 6.10026 323.662 6.75781C323.122 7.41536 322.852 8.30729 322.852 9.43359C322.852 11.0807 323.525 12.9362 324.873 15H322.852C321.654 12.6172 321.055 10.765 321.055 9.44336C321.055 8.64909 321.227 7.83854 321.572 7.01172C321.917 6.17839 322.428 5.53385 323.105 5.07812C323.783 4.6224 324.6 4.39453 325.557 4.39453C326.514 4.39453 327.331 4.6224 328.008 5.07812C328.685 5.53385 329.196 6.17839 329.541 7.01172C329.886 7.83854 330.059 8.64909 330.059 9.44336C330.059 10.765 329.46 12.6172 328.262 15H326.328Z" fill="black"/>
</svg>
