<svg width="30" height="30" viewBox="0 0 30 30" fill="none" xmlns="http://www.w3.org/2000/svg">
<path fill-rule="evenodd" clip-rule="evenodd" d="M15 28C22.1797 28 28 22.1797 28 15C28 7.8203 22.1797 2 15 2C7.8203 2 2 7.8203 2 15C2 22.1797 7.8203 28 15 28ZM15 30C23.2843 30 30 23.2843 30 15C30 6.71573 23.2843 0 15 0C6.71573 0 0 6.71573 0 15C0 23.2843 6.71573 30 15 30Z" fill="#AE194A"/>
<path fill-rule="evenodd" clip-rule="evenodd" d="M13.799 10.1076C13.9378 9.6644 14.0454 9.21903 14.1134 8.77707C14.4039 6.88893 13.9694 4.94441 12.0547 3.66797C12.9527 6.04862 12.7359 7.39965 11.8297 9.00124C11.4182 7.8354 10.3067 7 9 7C7.34315 7 6 8.34315 6 10C6 10.8636 6.36489 11.6419 6.94889 12.1893C5.81047 12.6152 5 13.713 5 15C5 16.6569 6.34315 18 8 18C8.1005 18 8.19985 17.9951 8.29781 17.9854C8.18162 19.2292 8.52136 20.5387 8.88544 21.541C9.81075 24.0884 11.9999 25.987 14.9695 26L14.9837 26L15 26L15.4902 26C19.2098 26 22.2654 23.5902 23.8289 20.3538C25.3989 17.1041 25.5312 12.9155 23.3579 9.14316L22.0254 7L21.5197 9.39469C21.0553 11.2373 20.3822 12.3067 19.6578 13.0251C18.9137 13.7632 18.0576 14.1957 17.0429 14.699C15.8819 15.2747 14.3075 16.5461 13.5069 18.423C12.8585 19.9432 12.7562 21.7728 13.6499 23.7966C12.3046 23.3703 11.2897 22.3021 10.7653 20.8582C10.1971 19.2939 10.2236 17.3006 11.1175 15.336C11.6322 15.7513 12.2871 16 13 16C14.6569 16 16 14.6569 16 13C16 11.6198 15.068 10.4574 13.799 10.1076ZM22.5746 12.3268C22.1448 13.1833 21.6388 13.8655 21.0719 14.4277C20.0817 15.4099 18.9579 15.9671 17.9832 16.4504C16.8365 17.019 15.8496 18.0217 15.3487 19.1959C14.9623 20.1019 14.8165 21.2529 15.3371 22.6479C15.9176 21.0613 16.9663 20.288 17.9921 19.5314C19.0039 18.7853 19.9934 18.0555 20.4899 16.5781C21.0383 18.2099 20.0829 19.2451 19.026 20.3903C18.1558 21.3332 17.2167 22.3507 16.9916 23.8372C19.1346 23.3183 20.9564 21.7095 22.0254 19.4966C23.0337 17.4095 23.3332 14.8467 22.5746 12.3268ZM8 16C8.55228 16 9 15.5523 9 15C9 14.4477 8.55228 14 8 14C7.44772 14 7 14.4477 7 15C7 15.5523 7.44772 16 8 16ZM9 11C9.55228 11 10 10.5523 10 10C10 9.44772 9.55228 9 9 9C8.44772 9 8 9.44772 8 10C8 10.5523 8.44772 11 9 11ZM13 14C13.5523 14 14 13.5523 14 13C14 12.4477 13.5523 12 13 12C12.4477 12 12 12.4477 12 13C12 13.5523 12.4477 14 13 14Z" fill="#AE194A"/>
</svg>
