<svg width="30" height="30" viewBox="0 0 30 30" fill="none" xmlns="http://www.w3.org/2000/svg">
<path fill-rule="evenodd" clip-rule="evenodd" d="M15 28C22.1797 28 28 22.1797 28 15C28 7.8203 22.1797 2 15 2C7.8203 2 2 7.8203 2 15C2 22.1797 7.8203 28 15 28ZM15 30C23.2843 30 30 23.2843 30 15C30 6.71573 23.2843 0 15 0C6.71573 0 0 6.71573 0 15C0 23.2843 6.71573 30 15 30Z" fill="#AE194A"/>
<path fill-rule="evenodd" clip-rule="evenodd" d="M9.61257 5H20.3874L19.2417 8.43729C19.6885 8.65071 20.2593 8.96066 20.8355 9.37682C22.0653 10.265 23.5 11.776 23.5 14C23.5 16.0299 22.6352 18.1042 21.2567 20.0735C19.8719 22.0518 17.919 23.9965 15.6139 25.7894L15 26.2669L14.3861 25.7894C12.081 23.9965 10.1281 22.0518 8.74327 20.0735C7.36478 18.1042 6.5 16.0299 6.5 14C6.5 11.776 7.9347 10.265 9.16451 9.37682C9.74073 8.96066 10.3115 8.65071 10.7583 8.43729L9.61257 5ZM17.6827 9.94832L16.7351 9.63246L17.6126 7H12.3874L13.2649 9.63246L12.3182 9.94802L12.314 9.94948L12.2876 9.95881C12.2623 9.9679 12.2221 9.98269 12.1691 10.0033C12.063 10.0446 11.9066 10.1087 11.717 10.1965C11.335 10.3734 10.832 10.6396 10.3355 10.9982C9.3153 11.735 8.5 12.724 8.5 14C8.5 15.4701 9.13522 17.1458 10.3817 18.9265C11.5042 20.5301 13.083 22.1612 15 23.7221C16.917 22.1612 18.4958 20.5301 19.6183 18.9265C20.8648 17.1458 21.5 15.4701 21.5 14C21.5 12.724 20.6847 11.735 19.6645 10.9982C19.168 10.6396 18.665 10.3734 18.283 10.1965C18.0934 10.1087 17.937 10.0446 17.8309 10.0033C17.7779 9.98269 17.7377 9.9679 17.7124 9.95881L17.686 9.94948L17.6827 9.94832Z" fill="#AE194A"/>
</svg>
