<svg width="15" height="17" viewBox="0 0 15 17" fill="none" xmlns="http://www.w3.org/2000/svg">
<path d="M11.6875 10.625C13.4473 10.625 14.875 12.0527 14.875 13.8125C14.875 15.5723 13.4473 17 11.6875 17C9.92773 17 8.5 15.5723 8.5 13.8125C8.5 13.5137 8.5332 13.1816 8.63281 12.8828L5.37891 10.8242C4.78125 11.3555 4.01758 11.6875 3.1875 11.6875C1.42773 11.6875 0 10.2598 0 8.5C0 6.74023 1.42773 5.3125 3.1875 5.3125C4.01758 5.3125 4.78125 5.64453 5.37891 6.20898L8.63281 4.15039C8.5332 3.85156 8.5 3.51953 8.5 3.1875C8.5 1.42773 9.92773 0 11.6875 0C13.4473 0 14.875 1.42773 14.875 3.1875C14.875 4.94727 13.4473 6.375 11.6875 6.375C10.8242 6.375 10.0605 6.04297 9.46289 5.51172L6.20898 7.57031C6.4082 8.16797 6.4082 8.86523 6.20898 9.46289L9.46289 11.5215C10.0605 10.957 10.8242 10.625 11.6875 10.625ZM11.6875 1.59375C10.791 1.59375 10.0938 2.32422 10.0938 3.1875C10.0938 4.08398 10.791 4.78125 11.6875 4.78125C12.5508 4.78125 13.2812 4.08398 13.2812 3.1875C13.2812 2.32422 12.5508 1.59375 11.6875 1.59375ZM3.1875 10.0938C4.05078 10.0938 4.78125 9.39648 4.78125 8.5C4.78125 7.63672 4.05078 6.90625 3.1875 6.90625C2.29102 6.90625 1.59375 7.63672 1.59375 8.5C1.59375 9.39648 2.29102 10.0938 3.1875 10.0938ZM11.6875 15.4062C12.5508 15.4062 13.2812 14.709 13.2812 13.8125C13.2812 12.9492 12.5508 12.2188 11.6875 12.2188C10.791 12.2188 10.0938 12.9492 10.0938 13.8125C10.0938 14.709 10.791 15.4062 11.6875 15.4062Z" fill="black"/>
</svg>
